{"glyphs":{"0":{"ha":815,"x_min":60,"x_max":756,"o":"m 407 -14 q 142 117 224 -14 q 60 486 60 247 q 142 856 60 725 q 407 986 224 986 q 673 856 590 986 q 756 486 756 726 q 673 116 756 246 q 407 -14 590 -14 m 407 38 q 574 154 524 38 q 625 486 625 271 q 574 817 625 700 q 407 935 524 935 q 241 817 292 935 q 190 486 190 700 q 241 154 190 271 q 407 38 292 38 z "},"1":{"ha":815,"x_min":168,"x_max":664,"o":"m 171 24 q 353 46 281 46 l 353 899 l 168 819 l 168 881 l 482 1007 l 482 46 q 664 25 581 42 l 664 0 l 171 0 l 171 24 z "},"2":{"ha":815,"x_min":65,"x_max":733,"o":"m 65 61 q 126 195 85 135 q 217 301 168 256 q 343 407 267 347 q 470 515 425 472 q 547 615 515 558 q 578 742 578 672 q 525 879 578 824 q 375 935 472 935 q 244 909 310 935 q 135 842 179 883 l 108 883 q 233 956 158 926 q 396 986 307 986 q 622 926 536 986 q 708 740 708 867 q 672 597 708 661 q 581 487 635 533 q 436 375 526 440 q 312 282 358 319 q 227 194 265 244 q 174 86 189 144 l 661 86 q 676 150 664 110 q 700 211 689 190 l 733 211 l 718 0 l 65 0 l 65 61 z "},"3":{"ha":815,"x_min":82,"x_max":717,"o":"m 383 -14 q 212 14 292 -14 q 82 88 132 42 l 108 128 q 222 64 150 90 q 358 38 293 38 q 526 101 463 38 q 589 276 589 165 q 563 384 589 335 q 489 462 538 433 q 375 490 440 490 l 263 490 l 263 543 l 375 543 q 484 574 439 543 q 551 653 529 606 q 574 750 574 700 q 522 883 574 832 q 372 935 469 935 q 242 910 307 935 q 132 843 176 885 l 106 883 q 230 957 157 928 q 393 986 303 986 q 620 928 533 986 q 707 751 707 871 q 653 603 707 669 q 514 522 599 536 l 514 515 q 657 439 597 500 q 717 279 717 378 q 620 58 717 129 q 383 -14 524 -14 z "},"4":{"ha":815,"x_min":47,"x_max":782,"o":"m 357 22 q 501 44 440 44 l 501 235 l 47 235 l 47 307 l 500 972 l 631 972 l 631 315 l 782 315 l 765 235 l 631 235 l 631 46 q 771 22 701 44 l 771 0 l 357 0 l 357 22 m 501 315 l 501 878 l 499 878 l 122 315 l 501 315 z "},"5":{"ha":815,"x_min":81,"x_max":719,"o":"m 374 -14 q 208 13 283 -14 q 81 88 132 40 l 107 128 q 219 63 150 89 q 351 38 288 38 q 525 111 461 38 q 589 299 589 185 q 538 483 589 410 q 376 556 488 556 q 256 529 310 556 q 151 450 201 503 l 108 464 l 167 972 l 671 972 l 663 890 l 214 890 l 174 531 q 407 608 267 608 q 644 520 569 608 q 719 300 719 432 q 679 141 719 213 q 561 28 639 69 q 374 -14 483 -14 z "},"6":{"ha":815,"x_min":74,"x_max":746,"o":"m 410 -14 q 74 425 74 -14 q 175 847 74 707 q 463 986 276 986 q 616 958 557 986 q 721 883 675 929 l 693 843 q 597 909 653 883 q 474 935 542 935 q 290 833 371 935 q 199 471 208 732 q 288 581 224 542 q 429 619 353 619 q 661 537 576 619 q 746 311 746 454 q 658 74 746 161 q 410 -14 571 -14 m 414 38 q 565 110 511 38 q 618 299 618 183 q 564 492 618 417 q 413 568 510 568 q 269 495 324 568 q 214 307 214 422 q 238 173 214 235 q 306 74 261 111 q 414 38 351 38 z "},"7":{"ha":815,"x_min":79,"x_max":735,"o":"m 228 0 q 370 502 268 274 q 597 890 472 731 l 143 890 q 114 764 131 797 l 79 764 l 79 972 l 735 972 l 735 928 q 558 664 640 829 q 422 319 475 499 q 356 0 368 139 l 228 0 z "},"8":{"ha":815,"x_min":68,"x_max":746,"o":"m 407 -14 q 148 65 228 -14 q 68 264 68 144 q 124 427 68 363 q 272 518 181 492 q 149 605 200 538 q 97 750 97 672 q 181 925 97 864 q 407 986 265 986 q 633 925 549 986 q 717 750 717 864 q 666 604 717 671 q 542 518 615 538 q 690 426 635 490 q 746 264 746 363 q 666 65 746 144 q 407 -14 586 -14 m 407 539 q 542 602 493 539 q 590 754 590 665 q 536 888 590 842 q 407 935 482 935 q 276 889 328 935 q 225 754 225 843 q 274 602 225 665 q 407 539 322 539 m 406 38 q 509 63 460 38 q 588 139 558 89 q 618 260 618 189 q 562 428 618 368 q 407 489 506 489 q 253 428 308 489 q 197 260 197 368 q 227 138 197 188 q 304 63 257 88 q 406 38 351 38 z "},"9":{"ha":815,"x_min":71,"x_max":744,"o":"m 354 -14 q 199 14 258 -14 q 96 86 139 42 l 122 128 q 218 63 161 88 q 343 38 275 38 q 530 138 447 38 q 618 496 613 238 q 531 387 599 428 q 388 346 463 346 q 156 430 240 346 q 71 658 71 514 q 159 897 71 807 q 407 986 247 986 q 744 546 744 986 q 642 126 744 265 q 354 -14 540 -14 m 404 400 q 508 433 463 400 q 578 526 553 467 q 603 663 603 586 q 579 797 603 735 q 510 897 556 858 q 403 935 465 935 q 252 860 306 935 q 199 669 199 786 q 253 476 199 551 q 404 400 307 400 z "},"\r":{"ha":363,"x_min":0,"x_max":0,"o":""}," ":{"ha":363,"x_min":0,"x_max":0,"o":""},"A":{"ha":1004,"x_min":10,"x_max":994,"o":"m 886 43 q 994 17 947 33 l 994 0 l 647 0 l 647 17 q 760 42 696 35 l 685 253 l 268 253 l 192 42 q 307 15 253 35 l 307 0 l 10 0 l 10 18 q 65 34 33 26 q 118 44 97 42 l 458 978 l 546 978 l 886 43 m 668 301 l 478 839 l 285 301 l 668 301 z "},"Á":{"ha":1004,"x_min":10,"x_max":994,"o":"m 446 1092 l 424 1124 l 582 1271 q 644 1303 614 1303 q 676 1292 665 1303 q 688 1265 688 1281 q 643 1206 688 1233 l 446 1092 m 886 43 q 994 17 947 33 l 994 0 l 647 0 l 647 17 q 760 42 696 35 l 685 253 l 268 253 l 192 42 q 307 15 253 35 l 307 0 l 10 0 l 10 18 q 65 34 33 26 q 118 44 97 42 l 458 978 l 546 978 l 886 43 m 668 301 l 478 839 l 285 301 l 668 301 z "},"Ă":{"ha":1004,"x_min":10,"x_max":994,"o":"m 501 1076 q 353 1119 410 1076 q 285 1249 296 1163 l 363 1249 q 408 1153 369 1178 q 501 1128 447 1128 q 594 1153 556 1128 q 639 1249 632 1178 l 717 1249 q 649 1119 707 1163 q 501 1076 592 1076 m 886 43 q 994 17 947 33 l 994 0 l 647 0 l 647 17 q 760 42 696 35 l 685 253 l 268 253 l 192 42 q 307 15 253 35 l 307 0 l 10 0 l 10 18 q 65 34 33 26 q 118 44 97 42 l 458 978 l 546 978 l 886 43 m 668 301 l 478 839 l 285 301 l 668 301 z "},"Ắ":{"ha":1004,"x_min":10,"x_max":994,"o":"m 475 1257 l 454 1286 l 565 1396 q 647 1442 614 1442 q 674 1433 664 1442 q 683 1410 683 1424 q 667 1372 683 1392 q 619 1336 651 1353 l 475 1257 m 508 1092 q 360 1135 418 1092 q 293 1263 303 1178 l 371 1263 q 416 1167 378 1192 q 508 1143 454 1143 q 602 1167 564 1143 q 647 1263 640 1192 l 725 1263 q 657 1135 714 1178 q 508 1092 600 1092 m 886 43 q 994 17 947 33 l 994 0 l 647 0 l 647 17 q 760 42 696 35 l 685 253 l 268 253 l 192 42 q 307 15 253 35 l 307 0 l 10 0 l 10 18 q 65 34 33 26 q 118 44 97 42 l 458 978 l 546 978 l 886 43 m 668 301 l 478 839 l 285 301 l 668 301 z "},"Ặ":{"ha":1004,"x_min":10,"x_max":994,"o":"m 490 1076 q 342 1119 399 1076 q 274 1249 285 1163 l 351 1249 q 397 1153 358 1178 q 490 1128 436 1128 q 583 1153 544 1128 q 628 1249 621 1178 l 706 1249 q 638 1119 696 1163 q 490 1076 581 1076 m 886 43 q 994 17 947 33 l 994 0 l 647 0 l 647 17 q 760 42 696 35 l 685 253 l 268 253 l 192 42 q 307 15 253 35 l 307 0 l 10 0 l 10 18 q 65 34 33 26 q 118 44 97 42 l 458 978 l 546 978 l 886 43 m 668 301 l 478 839 l 285 301 l 668 301 m 497 -82 q 542 -100 525 -82 q 560 -147 560 -118 q 542 -192 560 -175 q 497 -210 525 -210 q 452 -192 469 -210 q 435 -147 435 -175 q 452 -100 435 -118 q 497 -82 469 -82 z "},"Ằ":{"ha":1004,"x_min":10,"x_max":994,"o":"m 396 1336 q 349 1372 364 1353 q 333 1410 333 1392 q 343 1433 333 1424 q 368 1442 353 1442 q 450 1396 403 1442 l 563 1286 l 542 1257 l 396 1336 m 510 1092 q 362 1135 419 1092 q 294 1263 304 1178 l 372 1263 q 417 1167 379 1192 q 510 1143 456 1143 q 603 1167 565 1143 q 649 1263 642 1192 l 726 1263 q 658 1135 715 1178 q 510 1092 601 1092 m 886 43 q 994 17 947 33 l 994 0 l 647 0 l 647 17 q 760 42 696 35 l 685 253 l 268 253 l 192 42 q 307 15 253 35 l 307 0 l 10 0 l 10 18 q 65 34 33 26 q 118 44 97 42 l 458 978 l 546 978 l 886 43 m 668 301 l 478 839 l 285 301 l 668 301 z "},"Ẳ":{"ha":1004,"x_min":10,"x_max":994,"o":"m 504 1458 q 435 1440 469 1458 l 426 1478 q 518 1497 471 1497 q 603 1474 568 1497 q 638 1406 638 1451 q 536 1318 638 1326 l 524 1244 l 475 1244 l 469 1349 l 499 1349 q 554 1364 535 1349 q 574 1407 574 1379 q 556 1444 574 1431 q 504 1458 539 1458 m 508 1092 q 360 1135 418 1092 q 293 1263 303 1178 l 371 1263 q 416 1167 378 1192 q 508 1143 454 1143 q 602 1167 564 1143 q 647 1263 640 1192 l 725 1263 q 657 1135 714 1178 q 508 1092 600 1092 m 886 43 q 994 17 947 33 l 994 0 l 647 0 l 647 17 q 760 42 696 35 l 685 253 l 268 253 l 192 42 q 307 15 253 35 l 307 0 l 10 0 l 10 18 q 65 34 33 26 q 118 44 97 42 l 458 978 l 546 978 l 886 43 m 668 301 l 478 839 l 285 301 l 668 301 z "},"Ẵ":{"ha":1004,"x_min":10,"x_max":994,"o":"m 411 1424 q 358 1402 381 1424 q 329 1344 336 1381 l 285 1344 q 328 1449 294 1414 q 415 1483 361 1483 q 466 1472 443 1483 q 522 1440 489 1461 q 564 1415 547 1424 q 597 1407 581 1407 q 653 1427 629 1407 q 686 1490 676 1447 l 728 1490 q 686 1384 719 1422 q 596 1346 653 1346 q 549 1356 572 1346 q 493 1388 526 1367 q 447 1415 467 1406 q 411 1424 428 1424 m 508 1143 q 602 1167 564 1143 q 647 1263 640 1192 l 725 1263 q 657 1135 714 1178 q 508 1092 600 1092 q 360 1135 418 1092 q 293 1263 303 1178 l 371 1263 q 416 1167 378 1192 q 508 1143 454 1143 m 886 43 q 994 17 947 33 l 994 0 l 647 0 l 647 17 q 760 42 696 35 l 685 253 l 268 253 l 192 42 q 307 15 253 35 l 307 0 l 10 0 l 10 18 q 65 34 33 26 q 118 44 97 42 l 458 978 l 546 978 l 886 43 m 668 301 l 478 839 l 285 301 l 668 301 z "},"Ǎ":{"ha":1004,"x_min":10,"x_max":994,"o":"m 472 1092 q 389 1182 443 1132 q 290 1263 335 1232 l 342 1307 q 428 1234 383 1276 q 499 1156 472 1192 l 506 1156 q 576 1234 532 1192 q 661 1307 619 1276 l 714 1263 q 615 1183 669 1233 q 532 1092 561 1133 l 472 1092 m 886 43 q 994 17 947 33 l 994 0 l 647 0 l 647 17 q 760 42 696 35 l 685 253 l 268 253 l 192 42 q 307 15 253 35 l 307 0 l 10 0 l 10 18 q 65 34 33 26 q 118 44 97 42 l 458 978 l 546 978 l 886 43 m 668 301 l 478 839 l 285 301 l 668 301 z "},"Â":{"ha":1004,"x_min":10,"x_max":994,"o":"m 499 1235 q 428 1156 472 1199 q 342 1083 383 1114 l 290 1128 q 389 1208 335 1158 q 472 1297 443 1257 l 532 1297 q 615 1207 561 1257 q 714 1128 669 1157 l 661 1083 q 576 1156 619 1114 q 506 1235 532 1199 l 499 1235 m 886 43 q 994 17 947 33 l 994 0 l 647 0 l 647 17 q 760 42 696 35 l 685 253 l 268 253 l 192 42 q 307 15 253 35 l 307 0 l 10 0 l 10 18 q 65 34 33 26 q 118 44 97 42 l 458 978 l 546 978 l 886 43 m 668 301 l 478 839 l 285 301 l 668 301 z "},"Ấ":{"ha":1004,"x_min":10,"x_max":994,"o":"m 667 1250 l 646 1279 l 758 1389 q 840 1435 803 1435 q 865 1426 856 1435 q 875 1403 875 1417 q 860 1365 875 1385 q 813 1329 844 1346 l 667 1250 m 499 1235 q 428 1156 472 1199 q 343 1083 383 1114 l 290 1128 q 388 1207 333 1157 q 472 1297 442 1257 l 531 1297 q 615 1208 560 1257 q 713 1128 669 1158 l 661 1083 q 576 1156 619 1114 q 504 1235 532 1199 l 499 1235 m 886 43 q 994 17 947 33 l 994 0 l 647 0 l 647 17 q 760 42 696 35 l 685 253 l 268 253 l 192 42 q 307 15 253 35 l 307 0 l 10 0 l 10 18 q 65 34 33 26 q 118 44 97 42 l 458 978 l 546 978 l 886 43 m 668 301 l 478 839 l 285 301 l 668 301 z "},"Ậ":{"ha":1004,"x_min":10,"x_max":994,"o":"m 499 1233 q 428 1155 472 1197 q 342 1082 383 1113 l 290 1126 q 389 1206 335 1157 q 472 1296 443 1256 l 532 1296 q 615 1206 561 1256 q 714 1126 669 1156 l 661 1082 q 576 1155 619 1113 q 506 1233 532 1197 l 499 1233 m 886 43 q 994 17 947 33 l 994 0 l 647 0 l 647 17 q 760 42 696 35 l 685 253 l 268 253 l 192 42 q 307 15 253 35 l 307 0 l 10 0 l 10 18 q 65 34 33 26 q 118 44 97 42 l 458 978 l 546 978 l 886 43 m 668 301 l 478 839 l 285 301 l 668 301 m 501 -82 q 547 -100 529 -82 q 564 -147 564 -118 q 547 -192 564 -175 q 501 -210 529 -210 q 456 -192 474 -210 q 439 -147 439 -175 q 456 -100 439 -118 q 501 -82 474 -82 z "},"Ầ":{"ha":1004,"x_min":10,"x_max":994,"o":"m 215 1321 q 159 1363 179 1340 q 139 1403 139 1385 q 149 1426 139 1417 q 174 1435 158 1435 q 268 1378 211 1435 l 368 1279 l 346 1250 l 215 1321 m 290 1128 q 388 1207 333 1157 q 472 1297 442 1257 l 531 1297 q 615 1208 560 1257 q 713 1128 669 1158 l 661 1083 q 576 1156 619 1114 q 504 1235 532 1199 l 499 1235 q 428 1156 472 1199 q 343 1083 383 1114 l 290 1128 m 886 43 q 994 17 947 33 l 994 0 l 647 0 l 647 17 q 760 42 696 35 l 685 253 l 268 253 l 192 42 q 307 15 253 35 l 307 0 l 10 0 l 10 18 q 65 34 33 26 q 118 44 97 42 l 458 978 l 546 978 l 886 43 m 668 301 l 478 839 l 285 301 l 668 301 z "},"Ẩ":{"ha":1004,"x_min":10,"x_max":994,"o":"m 674 1451 q 604 1433 639 1451 l 596 1471 q 688 1490 640 1490 q 772 1467 738 1490 q 807 1399 807 1444 q 706 1311 807 1319 l 693 1238 l 644 1238 l 639 1342 l 668 1342 q 724 1357 704 1342 q 743 1400 743 1372 q 726 1438 743 1424 q 674 1451 708 1451 m 499 1235 q 428 1156 472 1199 q 343 1083 383 1114 l 290 1128 q 388 1207 333 1157 q 472 1297 442 1257 l 531 1297 q 615 1208 560 1257 q 713 1128 669 1158 l 661 1083 q 576 1156 619 1114 q 504 1235 532 1199 l 499 1235 m 886 43 q 994 17 947 33 l 994 0 l 647 0 l 647 17 q 760 42 696 35 l 685 253 l 268 253 l 192 42 q 307 15 253 35 l 307 0 l 10 0 l 10 18 q 65 34 33 26 q 118 44 97 42 l 458 978 l 546 978 l 886 43 m 668 301 l 478 839 l 285 301 l 668 301 z "},"Ẫ":{"ha":1004,"x_min":10,"x_max":994,"o":"m 404 1417 q 351 1395 374 1417 q 321 1338 329 1374 l 278 1338 q 321 1442 288 1408 q 407 1476 354 1476 q 460 1465 435 1476 q 519 1433 486 1454 q 565 1408 546 1417 q 600 1400 583 1400 q 653 1420 631 1400 q 686 1483 676 1440 l 728 1483 q 687 1377 719 1415 q 597 1339 654 1339 q 556 1348 576 1339 q 515 1367 535 1357 q 490 1381 496 1378 q 440 1408 460 1399 q 404 1417 421 1417 m 531 1297 q 615 1208 560 1257 q 713 1128 669 1158 l 661 1083 q 576 1156 619 1114 q 504 1235 532 1199 l 499 1235 q 428 1156 472 1199 q 343 1083 383 1114 l 290 1128 q 388 1207 333 1157 q 472 1297 442 1257 l 531 1297 m 886 43 q 994 17 947 33 l 994 0 l 647 0 l 647 17 q 760 42 696 35 l 685 253 l 268 253 l 192 42 q 307 15 253 35 l 307 0 l 10 0 l 10 18 q 65 34 33 26 q 118 44 97 42 l 458 978 l 546 978 l 886 43 m 668 301 l 478 839 l 285 301 l 668 301 z "},"Ä":{"ha":1004,"x_min":10,"x_max":994,"o":"m 336 1090 q 292 1108 310 1090 q 275 1153 275 1125 q 292 1200 275 1182 q 336 1218 308 1218 q 381 1200 364 1218 q 399 1153 399 1182 q 381 1108 399 1125 q 336 1090 364 1090 m 642 1090 q 597 1108 614 1090 q 581 1153 581 1125 q 597 1200 581 1182 q 642 1218 614 1218 q 687 1200 669 1218 q 704 1153 704 1182 q 687 1108 704 1125 q 642 1090 669 1090 m 886 43 q 994 17 947 33 l 994 0 l 647 0 l 647 17 q 760 42 696 35 l 685 253 l 268 253 l 192 42 q 307 15 253 35 l 307 0 l 10 0 l 10 18 q 65 34 33 26 q 118 44 97 42 l 458 978 l 546 978 l 886 43 m 668 301 l 478 839 l 285 301 l 668 301 z "},"Ạ":{"ha":1004,"x_min":10,"x_max":994,"o":"m 886 43 q 994 17 947 33 l 994 0 l 647 0 l 647 17 q 760 42 696 35 l 685 253 l 268 253 l 192 42 q 307 15 253 35 l 307 0 l 10 0 l 10 18 q 65 34 33 26 q 118 44 97 42 l 458 978 l 546 978 l 886 43 m 668 301 l 478 839 l 285 301 l 668 301 m 501 -82 q 547 -100 529 -82 q 564 -147 564 -118 q 547 -192 564 -175 q 501 -210 529 -210 q 456 -192 474 -210 q 439 -147 439 -175 q 456 -100 439 -118 q 501 -82 474 -82 z "},"À":{"ha":1004,"x_min":10,"x_max":994,"o":"m 369 1206 q 322 1265 322 1233 q 334 1292 322 1281 q 367 1303 346 1303 q 428 1272 397 1303 l 589 1124 l 567 1092 l 369 1206 m 886 43 q 994 17 947 33 l 994 0 l 647 0 l 647 17 q 760 42 696 35 l 685 253 l 268 253 l 192 42 q 307 15 253 35 l 307 0 l 10 0 l 10 18 q 65 34 33 26 q 118 44 97 42 l 458 978 l 546 978 l 886 43 m 668 301 l 478 839 l 285 301 l 668 301 z "},"Ả":{"ha":1004,"x_min":10,"x_max":994,"o":"m 514 1343 q 433 1321 474 1343 l 424 1363 q 531 1386 471 1386 q 627 1358 588 1386 q 667 1276 667 1331 q 636 1203 667 1229 q 550 1171 606 1176 l 536 1082 l 482 1082 l 475 1207 l 508 1207 q 573 1226 550 1207 q 596 1279 596 1246 q 574 1325 596 1307 q 514 1343 553 1343 m 886 43 q 994 17 947 33 l 994 0 l 647 0 l 647 17 q 760 42 696 35 l 685 253 l 268 253 l 192 42 q 307 15 253 35 l 307 0 l 10 0 l 10 18 q 65 34 33 26 q 118 44 97 42 l 458 978 l 546 978 l 886 43 m 668 301 l 478 839 l 285 301 l 668 301 z "},"Ā":{"ha":1004,"x_min":10,"x_max":994,"o":"m 733 1089 l 271 1089 l 271 1138 l 733 1138 l 733 1089 m 886 43 q 994 17 947 33 l 994 0 l 647 0 l 647 17 q 760 42 696 35 l 685 253 l 268 253 l 192 42 q 307 15 253 35 l 307 0 l 10 0 l 10 18 q 65 34 33 26 q 118 44 97 42 l 458 978 l 546 978 l 886 43 m 668 301 l 478 839 l 285 301 l 668 301 z "},"Ą":{"ha":1004,"x_min":10,"x_max":1063,"o":"m 988 -199 q 1063 -179 1025 -199 l 1063 -236 q 946 -260 1011 -260 q 842 -227 879 -260 q 804 -149 804 -194 q 835 -61 804 -101 q 919 0 867 -21 l 647 0 l 647 17 q 760 42 696 35 l 685 253 l 268 253 l 192 42 q 307 15 253 35 l 307 0 l 10 0 l 10 18 q 65 34 33 26 q 118 44 97 42 l 458 978 l 546 978 l 886 43 q 994 17 947 33 l 994 0 l 989 0 q 926 -57 951 -22 q 901 -128 901 -92 q 926 -181 901 -162 q 988 -199 950 -199 m 668 301 l 478 839 l 285 301 l 668 301 z "},"Å":{"ha":1004,"x_min":10,"x_max":994,"o":"m 501 1026 q 408 1060 444 1026 q 372 1147 372 1093 q 408 1237 372 1203 q 501 1271 444 1271 q 594 1237 558 1271 q 629 1147 629 1203 q 594 1060 629 1093 q 501 1026 558 1026 m 501 1225 q 444 1203 467 1225 q 421 1147 421 1182 q 444 1092 421 1113 q 501 1071 467 1071 q 558 1092 536 1071 q 579 1147 579 1113 q 558 1203 579 1182 q 501 1225 536 1225 m 886 43 q 994 17 947 33 l 994 0 l 647 0 l 647 17 q 760 42 696 35 l 685 253 l 268 253 l 192 42 q 307 15 253 35 l 307 0 l 10 0 l 10 18 q 65 34 33 26 q 118 44 97 42 l 458 978 l 546 978 l 886 43 m 668 301 l 478 839 l 285 301 l 668 301 z "},"Ǻ":{"ha":1004,"x_min":10,"x_max":994,"o":"m 442 1304 l 419 1336 l 578 1483 q 640 1515 610 1515 q 672 1504 661 1515 q 683 1478 683 1493 q 639 1418 683 1446 l 442 1304 m 501 1024 q 408 1057 444 1024 q 372 1144 372 1090 q 408 1234 372 1200 q 501 1268 444 1268 q 594 1234 558 1268 q 629 1144 629 1200 q 594 1057 629 1090 q 501 1024 558 1024 m 501 1222 q 444 1201 467 1222 q 421 1144 421 1179 q 444 1089 421 1110 q 501 1068 467 1068 q 558 1089 536 1068 q 579 1144 579 1110 q 558 1201 579 1179 q 501 1222 536 1222 m 886 43 q 994 17 947 33 l 994 0 l 647 0 l 647 17 q 760 42 696 35 l 685 253 l 268 253 l 192 42 q 307 15 253 35 l 307 0 l 10 0 l 10 18 q 65 34 33 26 q 118 44 97 42 l 458 978 l 546 978 l 886 43 m 668 301 l 478 839 l 285 301 l 668 301 z "},"Ã":{"ha":1004,"x_min":10,"x_max":994,"o":"m 396 1171 q 340 1149 364 1171 q 308 1092 317 1128 l 263 1092 q 308 1197 272 1163 q 399 1231 343 1231 q 455 1219 428 1231 q 518 1188 482 1208 q 564 1163 544 1171 q 601 1154 583 1154 q 658 1174 633 1154 q 692 1238 682 1194 l 736 1238 q 692 1131 726 1169 q 599 1093 658 1093 q 552 1103 575 1093 q 486 1135 529 1113 q 435 1162 456 1153 q 396 1171 414 1171 m 886 43 q 994 17 947 33 l 994 0 l 647 0 l 647 17 q 760 42 696 35 l 685 253 l 268 253 l 192 42 q 307 15 253 35 l 307 0 l 10 0 l 10 18 q 65 34 33 26 q 118 44 97 42 l 458 978 l 546 978 l 886 43 m 668 301 l 478 839 l 285 301 l 668 301 z "},"Æ":{"ha":1386,"x_min":10,"x_max":1319,"o":"m 10 17 q 113 44 57 33 l 653 936 q 624 942 646 938 q 585 956 601 947 l 585 972 l 1300 972 l 1300 769 l 1269 769 q 1247 840 1258 789 q 1232 921 1235 892 l 833 921 l 833 524 l 1124 524 q 1133 582 1126 547 q 1149 639 1140 617 l 1172 639 l 1172 358 l 1149 358 q 1133 417 1140 383 q 1124 474 1126 450 l 833 474 l 833 49 l 1236 49 q 1257 128 1239 78 q 1289 200 1275 179 l 1319 200 l 1299 0 l 590 0 l 590 17 q 706 42 649 35 l 706 253 l 318 253 l 193 42 q 313 15 261 35 l 313 0 l 10 0 l 10 17 m 706 301 l 706 903 l 699 903 l 349 301 l 706 301 z "},"Ǽ":{"ha":1386,"x_min":10,"x_max":1319,"o":"m 858 1124 l 1017 1271 q 1079 1303 1049 1303 q 1111 1292 1100 1303 q 1122 1265 1122 1281 q 1078 1206 1122 1233 l 881 1092 l 858 1124 m 10 17 q 113 44 57 33 l 653 936 q 624 942 646 938 q 585 956 601 947 l 585 972 l 1300 972 l 1300 769 l 1269 769 q 1247 840 1258 789 q 1232 921 1235 892 l 833 921 l 833 524 l 1124 524 q 1133 582 1126 547 q 1149 639 1140 617 l 1172 639 l 1172 358 l 1149 358 q 1133 417 1140 383 q 1124 474 1126 450 l 833 474 l 833 49 l 1236 49 q 1257 128 1239 78 q 1289 200 1275 179 l 1319 200 l 1299 0 l 590 0 l 590 17 q 706 42 649 35 l 706 253 l 318 253 l 193 42 q 313 15 261 35 l 313 0 l 10 0 l 10 17 m 706 301 l 706 903 l 699 903 l 349 301 l 706 301 z "},"B":{"ha":840,"x_min":50,"x_max":799,"o":"m 50 17 q 108 35 83 29 q 163 43 132 40 l 163 929 q 50 954 93 940 l 50 972 l 449 972 q 686 917 614 972 q 758 743 758 861 q 713 600 758 664 q 578 518 668 536 l 578 511 q 747 422 696 492 q 799 265 799 353 q 726 66 799 132 q 492 0 654 0 l 50 0 l 50 17 m 429 536 q 579 590 528 536 q 631 739 631 644 q 584 877 631 833 q 435 921 538 921 l 292 921 l 292 536 l 429 536 m 478 49 q 626 104 578 49 q 674 269 674 160 q 618 430 674 374 q 460 486 563 486 l 292 486 l 292 49 l 478 49 z "},"C":{"ha":860,"x_min":65,"x_max":797,"o":"m 511 -14 q 178 118 292 -14 q 65 486 65 250 q 181 853 65 721 q 510 986 296 986 q 797 890 692 986 l 785 721 l 751 721 q 725 876 735 769 q 644 919 692 903 q 543 935 597 935 q 283 813 369 935 q 196 486 196 690 q 277 158 196 279 q 533 38 358 38 q 653 57 586 38 q 776 113 721 76 l 794 75 q 672 9 746 32 q 511 -14 597 -14 z "},"Ć":{"ha":860,"x_min":65,"x_max":797,"o":"m 411 1124 l 569 1271 q 632 1303 601 1303 q 664 1292 653 1303 q 675 1265 675 1281 q 631 1206 675 1233 l 433 1092 l 411 1124 m 511 -14 q 178 118 292 -14 q 65 486 65 250 q 181 853 65 721 q 510 986 296 986 q 797 890 692 986 l 785 721 l 751 721 q 725 876 735 769 q 644 919 692 903 q 543 935 597 935 q 283 813 369 935 q 196 486 196 690 q 277 158 196 279 q 533 38 358 38 q 653 57 586 38 q 776 113 721 76 l 794 75 q 672 9 746 32 q 511 -14 597 -14 z "},"Č":{"ha":860,"x_min":65,"x_max":797,"o":"m 503 1092 q 419 1182 474 1132 q 321 1263 365 1232 l 372 1307 q 458 1234 414 1276 q 529 1156 503 1192 l 536 1156 q 606 1234 563 1192 q 692 1307 650 1276 l 744 1263 q 646 1183 700 1233 q 563 1092 592 1133 l 503 1092 m 511 -14 q 178 118 292 -14 q 65 486 65 250 q 181 853 65 721 q 510 986 296 986 q 797 890 692 986 l 785 721 l 751 721 q 725 876 735 769 q 644 919 692 903 q 543 935 597 935 q 283 813 369 935 q 196 486 196 690 q 277 158 196 279 q 533 38 358 38 q 653 57 586 38 q 776 113 721 76 l 794 75 q 672 9 746 32 q 511 -14 597 -14 z "},"Ç":{"ha":860,"x_min":65,"x_max":797,"o":"m 794 75 q 675 10 746 33 q 519 -14 604 -12 l 482 -94 q 591 -117 553 -94 q 629 -187 629 -140 q 583 -277 629 -246 q 463 -308 536 -308 q 346 -283 396 -308 l 368 -243 q 456 -260 408 -260 q 531 -242 503 -260 q 560 -187 560 -224 q 535 -149 560 -161 q 478 -136 511 -136 q 443 -139 463 -136 l 413 -100 l 457 -11 q 165 135 264 4 q 65 486 65 265 q 181 853 65 721 q 510 986 296 986 q 797 890 692 986 l 785 721 l 751 721 q 725 876 735 769 q 644 919 692 903 q 543 935 597 935 q 283 813 369 935 q 196 486 196 690 q 277 158 196 279 q 533 38 358 38 q 653 57 586 38 q 776 113 721 76 l 794 75 z "},"Ĉ":{"ha":860,"x_min":65,"x_max":797,"o":"m 310 1128 q 408 1208 354 1158 q 492 1297 463 1257 l 551 1297 q 635 1207 581 1257 q 733 1128 689 1157 l 681 1083 q 595 1156 639 1114 q 525 1235 551 1199 l 518 1235 q 447 1156 492 1199 q 361 1083 403 1114 l 310 1128 m 511 -14 q 178 118 292 -14 q 65 486 65 250 q 181 853 65 721 q 510 986 296 986 q 797 890 692 986 l 785 721 l 751 721 q 725 876 735 769 q 644 919 692 903 q 543 935 597 935 q 283 813 369 935 q 196 486 196 690 q 277 158 196 279 q 533 38 358 38 q 653 57 586 38 q 776 113 721 76 l 794 75 q 672 9 746 32 q 511 -14 597 -14 z "},"Ċ":{"ha":860,"x_min":65,"x_max":797,"o":"m 533 1090 q 488 1108 504 1090 q 471 1153 471 1125 q 488 1200 471 1182 q 533 1218 504 1218 q 578 1200 561 1218 q 594 1153 594 1182 q 577 1108 594 1125 q 533 1090 560 1090 m 511 -14 q 178 118 292 -14 q 65 486 65 250 q 181 853 65 721 q 510 986 296 986 q 797 890 692 986 l 785 721 l 751 721 q 725 876 735 769 q 644 919 692 903 q 543 935 597 935 q 283 813 369 935 q 196 486 196 690 q 277 158 196 279 q 533 38 358 38 q 653 57 586 38 q 776 113 721 76 l 794 75 q 672 9 746 32 q 511 -14 597 -14 z "},"D":{"ha":929,"x_min":56,"x_max":876,"o":"m 56 17 q 165 42 110 36 l 165 929 q 56 956 113 938 l 56 972 l 472 972 q 780 849 683 972 q 876 486 876 726 q 779 124 876 247 q 471 0 682 0 l 56 0 l 56 17 m 468 49 q 683 162 619 49 q 746 486 746 275 q 683 808 746 696 q 471 921 619 921 l 293 921 l 293 49 l 468 49 z "},"Ð":{"ha":929,"x_min":56,"x_max":876,"o":"m 472 972 q 780 849 683 972 q 876 486 876 726 q 779 124 876 247 q 471 0 682 0 l 56 0 l 56 17 q 165 42 110 36 l 165 438 l 65 438 l 65 486 l 165 486 l 165 929 q 56 956 113 938 l 56 972 l 472 972 m 468 49 q 683 162 619 49 q 746 486 746 275 q 683 808 746 696 q 471 921 619 921 l 293 921 l 293 486 l 526 486 l 526 438 l 293 438 l 293 49 l 468 49 z "},"Ď":{"ha":929,"x_min":56,"x_max":876,"o":"m 433 1092 q 350 1182 404 1132 q 251 1263 296 1232 l 303 1307 q 389 1234 344 1276 q 460 1156 433 1192 l 467 1156 q 537 1234 493 1192 q 622 1307 581 1276 l 675 1263 q 576 1183 631 1233 q 493 1092 522 1133 l 433 1092 m 56 17 q 165 42 110 36 l 165 929 q 56 956 113 938 l 56 972 l 472 972 q 780 849 683 972 q 876 486 876 726 q 779 124 876 247 q 471 0 682 0 l 56 0 l 56 17 m 468 49 q 683 162 619 49 q 746 486 746 275 q 683 808 746 696 q 471 921 619 921 l 293 921 l 293 49 l 468 49 z "},"Đ":{"ha":929,"x_min":56,"x_max":876,"o":"m 472 972 q 780 849 683 972 q 876 486 876 726 q 779 124 876 247 q 471 0 682 0 l 56 0 l 56 17 q 165 42 110 36 l 165 438 l 65 438 l 65 486 l 165 486 l 165 929 q 56 956 113 938 l 56 972 l 472 972 m 468 49 q 683 162 619 49 q 746 486 746 275 q 683 808 746 696 q 471 921 619 921 l 293 921 l 293 486 l 526 486 l 526 438 l 293 438 l 293 49 l 468 49 z "},"Ḍ":{"ha":929,"x_min":56,"x_max":876,"o":"m 56 17 q 165 42 110 36 l 165 929 q 56 956 113 938 l 56 972 l 472 972 q 780 849 683 972 q 876 486 876 726 q 779 124 876 247 q 471 0 682 0 l 56 0 l 56 17 m 468 49 q 683 162 619 49 q 746 486 746 275 q 683 808 746 696 q 471 921 619 921 l 293 921 l 293 49 l 468 49 m 450 -210 q 405 -192 422 -210 q 388 -147 388 -175 q 405 -100 388 -118 q 450 -82 422 -82 q 495 -100 478 -82 q 513 -147 513 -118 q 495 -192 513 -175 q 450 -210 478 -210 z "},"Ḏ":{"ha":929,"x_min":56,"x_max":876,"o":"m 56 17 q 165 42 110 36 l 165 929 q 56 956 113 938 l 56 972 l 472 972 q 780 849 683 972 q 876 486 876 726 q 779 124 876 247 q 471 0 682 0 l 56 0 l 56 17 m 468 49 q 683 162 619 49 q 746 486 746 275 q 683 808 746 696 q 471 921 619 921 l 293 921 l 293 49 l 468 49 m 197 -96 l 660 -96 l 660 -144 l 197 -144 l 197 -96 z "},"E":{"ha":851,"x_min":56,"x_max":785,"o":"m 785 200 l 765 0 l 56 0 l 56 17 q 171 43 113 38 l 171 929 q 56 956 121 935 l 56 972 l 765 972 l 765 769 l 736 769 q 713 840 725 789 q 699 921 701 892 l 300 921 l 300 503 l 589 503 q 599 562 592 528 q 615 618 606 596 l 638 618 l 638 338 l 615 338 q 599 395 606 361 q 589 453 592 429 l 300 453 l 300 49 l 703 49 q 722 128 704 78 q 754 200 740 178 l 785 200 z "},"É":{"ha":851,"x_min":56,"x_max":785,"o":"m 344 1092 l 322 1124 l 481 1271 q 543 1303 513 1303 q 575 1292 564 1303 q 586 1265 586 1281 q 542 1206 586 1233 l 344 1092 m 785 200 l 765 0 l 56 0 l 56 17 q 171 43 113 38 l 171 929 q 56 956 121 935 l 56 972 l 765 972 l 765 769 l 736 769 q 713 840 725 789 q 699 921 701 892 l 300 921 l 300 503 l 589 503 q 599 562 592 528 q 615 618 606 596 l 638 618 l 638 338 l 615 338 q 599 395 606 361 q 589 453 592 429 l 300 453 l 300 49 l 703 49 q 722 128 704 78 q 754 200 740 178 l 785 200 z "},"Ĕ":{"ha":851,"x_min":56,"x_max":785,"o":"m 475 1079 q 326 1122 383 1079 q 258 1251 269 1165 l 336 1251 q 382 1156 343 1181 q 475 1131 421 1131 q 567 1156 529 1131 q 613 1251 606 1181 l 690 1251 q 623 1122 681 1165 q 475 1079 565 1079 m 785 200 l 765 0 l 56 0 l 56 17 q 171 43 113 38 l 171 929 q 56 956 121 935 l 56 972 l 765 972 l 765 769 l 736 769 q 713 840 725 789 q 699 921 701 892 l 300 921 l 300 503 l 589 503 q 599 562 592 528 q 615 618 606 596 l 638 618 l 638 338 l 615 338 q 599 395 606 361 q 589 453 592 429 l 300 453 l 300 49 l 703 49 q 722 128 704 78 q 754 200 740 178 l 785 200 z "},"Ě":{"ha":851,"x_min":56,"x_max":785,"o":"m 442 1092 q 358 1182 413 1132 q 260 1263 304 1232 l 311 1307 q 397 1234 353 1276 q 468 1156 442 1192 l 475 1156 q 545 1234 501 1192 q 631 1307 589 1276 l 683 1263 q 585 1183 639 1233 q 501 1092 531 1133 l 442 1092 m 785 200 l 765 0 l 56 0 l 56 17 q 171 43 113 38 l 171 929 q 56 956 121 935 l 56 972 l 765 972 l 765 769 l 736 769 q 713 840 725 789 q 699 921 701 892 l 300 921 l 300 503 l 589 503 q 599 562 592 528 q 615 618 606 596 l 638 618 l 638 338 l 615 338 q 599 395 606 361 q 589 453 592 429 l 300 453 l 300 49 l 703 49 q 722 128 704 78 q 754 200 740 178 l 785 200 z "},"Ê":{"ha":851,"x_min":56,"x_max":785,"o":"m 469 1235 q 399 1156 443 1199 q 313 1083 354 1114 l 261 1128 q 360 1208 306 1158 q 443 1297 414 1257 l 503 1297 q 586 1207 532 1257 q 685 1128 640 1157 l 632 1083 q 547 1156 590 1114 q 476 1235 503 1199 l 469 1235 m 785 200 l 765 0 l 56 0 l 56 17 q 171 43 113 38 l 171 929 q 56 956 121 935 l 56 972 l 765 972 l 765 769 l 736 769 q 713 840 725 789 q 699 921 701 892 l 300 921 l 300 503 l 589 503 q 599 562 592 528 q 615 618 606 596 l 638 618 l 638 338 l 615 338 q 599 395 606 361 q 589 453 592 429 l 300 453 l 300 49 l 703 49 q 722 128 704 78 q 754 200 740 178 l 785 200 z "},"Ế":{"ha":851,"x_min":56,"x_max":836,"o":"m 801 1435 q 826 1426 817 1435 q 836 1403 836 1417 q 821 1365 836 1385 q 774 1329 806 1346 l 628 1250 l 607 1279 l 719 1389 q 801 1435 764 1435 m 460 1235 q 389 1156 433 1199 q 304 1083 344 1114 l 251 1128 q 349 1207 294 1157 q 433 1297 403 1257 l 492 1297 q 576 1208 521 1257 q 674 1128 631 1158 l 622 1083 q 537 1156 581 1114 q 465 1235 493 1199 l 460 1235 m 703 49 q 722 128 704 78 q 754 200 740 178 l 785 200 l 765 0 l 56 0 l 56 17 q 171 43 113 38 l 171 929 q 56 956 121 935 l 56 972 l 765 972 l 765 769 l 736 769 q 713 840 725 789 q 699 921 701 892 l 300 921 l 300 503 l 589 503 q 599 562 592 528 q 615 618 606 596 l 638 618 l 638 338 l 615 338 q 599 395 606 361 q 589 453 592 429 l 300 453 l 300 49 l 703 49 z "},"Ệ":{"ha":851,"x_min":56,"x_max":785,"o":"m 460 1235 q 389 1156 433 1199 q 303 1083 344 1114 l 251 1128 q 350 1208 296 1158 q 433 1297 404 1257 l 493 1297 q 576 1207 522 1257 q 675 1128 631 1157 l 622 1083 q 537 1156 581 1114 q 467 1235 493 1199 l 460 1235 m 785 200 l 765 0 l 56 0 l 56 17 q 171 43 113 38 l 171 929 q 56 956 121 935 l 56 972 l 765 972 l 765 769 l 736 769 q 713 840 725 789 q 699 921 701 892 l 300 921 l 300 503 l 589 503 q 599 562 592 528 q 615 618 606 596 l 638 618 l 638 338 l 615 338 q 599 395 606 361 q 589 453 592 429 l 300 453 l 300 49 l 703 49 q 722 128 704 78 q 754 200 740 178 l 785 200 m 465 -82 q 510 -100 493 -82 q 528 -147 528 -118 q 510 -192 528 -175 q 465 -210 493 -210 q 420 -192 438 -210 q 403 -147 403 -175 q 420 -100 403 -118 q 465 -82 438 -82 z "},"Ề":{"ha":851,"x_min":56,"x_max":785,"o":"m 176 1321 q 120 1363 140 1340 q 100 1403 100 1385 q 110 1426 100 1417 q 135 1435 119 1435 q 229 1378 172 1435 l 329 1279 l 307 1250 l 176 1321 m 251 1128 q 349 1207 294 1157 q 433 1297 403 1257 l 492 1297 q 576 1208 521 1257 q 674 1128 631 1158 l 622 1083 q 537 1156 581 1114 q 465 1235 493 1199 l 460 1235 q 389 1156 433 1199 q 304 1083 344 1114 l 251 1128 m 785 200 l 765 0 l 56 0 l 56 17 q 171 43 113 38 l 171 929 q 56 956 121 935 l 56 972 l 765 972 l 765 769 l 736 769 q 713 840 725 789 q 699 921 701 892 l 300 921 l 300 503 l 589 503 q 599 562 592 528 q 615 618 606 596 l 638 618 l 638 338 l 615 338 q 599 395 606 361 q 589 453 592 429 l 300 453 l 300 49 l 703 49 q 722 128 704 78 q 754 200 740 178 l 785 200 z "},"Ể":{"ha":851,"x_min":56,"x_max":785,"o":"m 635 1451 q 565 1433 600 1451 l 557 1471 q 649 1490 601 1490 q 733 1467 699 1490 q 768 1399 768 1444 q 667 1311 768 1319 l 654 1238 l 606 1238 l 600 1342 l 629 1342 q 685 1357 665 1342 q 704 1400 704 1372 q 687 1438 704 1424 q 635 1451 669 1451 m 460 1235 q 389 1156 433 1199 q 304 1083 344 1114 l 251 1128 q 349 1207 294 1157 q 433 1297 403 1257 l 492 1297 q 576 1208 521 1257 q 674 1128 631 1158 l 622 1083 q 537 1156 581 1114 q 465 1235 493 1199 l 460 1235 m 785 200 l 765 0 l 56 0 l 56 17 q 171 43 113 38 l 171 929 q 56 956 121 935 l 56 972 l 765 972 l 765 769 l 736 769 q 713 840 725 789 q 699 921 701 892 l 300 921 l 300 503 l 589 503 q 599 562 592 528 q 615 618 606 596 l 638 618 l 638 338 l 615 338 q 599 395 606 361 q 589 453 592 429 l 300 453 l 300 49 l 703 49 q 722 128 704 78 q 754 200 740 178 l 785 200 z "},"Ễ":{"ha":851,"x_min":56,"x_max":785,"o":"m 365 1417 q 313 1395 335 1417 q 282 1338 290 1374 l 239 1338 q 282 1442 249 1408 q 368 1476 315 1476 q 422 1465 396 1476 q 481 1433 447 1454 q 526 1408 507 1417 q 561 1400 544 1400 q 615 1420 592 1400 q 647 1483 638 1440 l 689 1483 q 648 1377 681 1415 q 558 1339 615 1339 q 517 1348 538 1339 q 476 1367 496 1357 q 451 1381 457 1378 q 401 1408 421 1399 q 365 1417 382 1417 m 492 1297 q 576 1208 521 1257 q 674 1128 631 1158 l 622 1083 q 537 1156 581 1114 q 465 1235 493 1199 l 460 1235 q 389 1156 433 1199 q 304 1083 344 1114 l 251 1128 q 349 1207 294 1157 q 433 1297 403 1257 l 492 1297 m 785 200 l 765 0 l 56 0 l 56 17 q 171 43 113 38 l 171 929 q 56 956 121 935 l 56 972 l 765 972 l 765 769 l 736 769 q 713 840 725 789 q 699 921 701 892 l 300 921 l 300 503 l 589 503 q 599 562 592 528 q 615 618 606 596 l 638 618 l 638 338 l 615 338 q 599 395 606 361 q 589 453 592 429 l 300 453 l 300 49 l 703 49 q 722 128 704 78 q 754 200 740 178 l 785 200 z "},"Ë":{"ha":851,"x_min":56,"x_max":785,"o":"m 322 1090 q 278 1108 296 1090 q 261 1153 261 1125 q 278 1200 261 1182 q 322 1218 294 1218 q 367 1200 350 1218 q 385 1153 385 1182 q 367 1108 385 1125 q 322 1090 350 1090 m 628 1090 q 583 1108 600 1090 q 567 1153 567 1125 q 583 1200 567 1182 q 628 1218 600 1218 q 673 1200 656 1218 q 690 1153 690 1182 q 673 1108 690 1125 q 628 1090 656 1090 m 785 200 l 765 0 l 56 0 l 56 17 q 171 43 113 38 l 171 929 q 56 956 121 935 l 56 972 l 765 972 l 765 769 l 736 769 q 713 840 725 789 q 699 921 701 892 l 300 921 l 300 503 l 589 503 q 599 562 592 528 q 615 618 606 596 l 638 618 l 638 338 l 615 338 q 599 395 606 361 q 589 453 592 429 l 300 453 l 300 49 l 703 49 q 722 128 704 78 q 754 200 740 178 l 785 200 z "},"Ė":{"ha":851,"x_min":56,"x_max":785,"o":"m 482 1090 q 436 1108 453 1090 q 419 1153 419 1125 q 436 1200 419 1182 q 482 1218 453 1218 q 526 1200 510 1218 q 543 1153 543 1182 q 526 1108 543 1125 q 482 1090 508 1090 m 785 200 l 765 0 l 56 0 l 56 17 q 171 43 113 38 l 171 929 q 56 956 121 935 l 56 972 l 765 972 l 765 769 l 736 769 q 713 840 725 789 q 699 921 701 892 l 300 921 l 300 503 l 589 503 q 599 562 592 528 q 615 618 606 596 l 638 618 l 638 338 l 615 338 q 599 395 606 361 q 589 453 592 429 l 300 453 l 300 49 l 703 49 q 722 128 704 78 q 754 200 740 178 l 785 200 z "},"Ẹ":{"ha":851,"x_min":56,"x_max":785,"o":"m 785 200 l 765 0 l 56 0 l 56 17 q 171 43 113 38 l 171 929 q 56 956 121 935 l 56 972 l 765 972 l 765 769 l 736 769 q 713 840 725 789 q 699 921 701 892 l 300 921 l 300 503 l 589 503 q 599 562 592 528 q 615 618 606 596 l 638 618 l 638 338 l 615 338 q 599 395 606 361 q 589 453 592 429 l 300 453 l 300 49 l 703 49 q 722 128 704 78 q 754 200 740 178 l 785 200 m 436 -82 q 481 -100 464 -82 q 499 -147 499 -118 q 481 -192 499 -175 q 436 -210 464 -210 q 391 -192 408 -210 q 374 -147 374 -175 q 391 -100 374 -118 q 436 -82 408 -82 z "},"È":{"ha":851,"x_min":56,"x_max":785,"o":"m 385 1206 q 338 1265 338 1233 q 349 1292 338 1281 q 382 1303 361 1303 q 443 1272 413 1303 l 604 1124 l 582 1092 l 385 1206 m 785 200 l 765 0 l 56 0 l 56 17 q 171 43 113 38 l 171 929 q 56 956 121 935 l 56 972 l 765 972 l 765 769 l 736 769 q 713 840 725 789 q 699 921 701 892 l 300 921 l 300 503 l 589 503 q 599 562 592 528 q 615 618 606 596 l 638 618 l 638 338 l 615 338 q 599 395 606 361 q 589 453 592 429 l 300 453 l 300 49 l 703 49 q 722 128 704 78 q 754 200 740 178 l 785 200 z "},"Ẻ":{"ha":851,"x_min":56,"x_max":785,"o":"m 471 1343 q 390 1321 431 1343 l 381 1363 q 488 1386 428 1386 q 584 1358 544 1386 q 624 1276 624 1331 q 593 1203 624 1229 q 507 1171 563 1176 l 493 1082 l 439 1082 l 432 1207 l 465 1207 q 530 1226 507 1207 q 553 1279 553 1246 q 531 1325 553 1307 q 471 1343 510 1343 m 785 200 l 765 0 l 56 0 l 56 17 q 171 43 113 38 l 171 929 q 56 956 121 935 l 56 972 l 765 972 l 765 769 l 736 769 q 713 840 725 789 q 699 921 701 892 l 300 921 l 300 503 l 589 503 q 599 562 592 528 q 615 618 606 596 l 638 618 l 638 338 l 615 338 q 599 395 606 361 q 589 453 592 429 l 300 453 l 300 49 l 703 49 q 722 128 704 78 q 754 200 740 178 l 785 200 z "},"Ē":{"ha":851,"x_min":56,"x_max":785,"o":"m 697 1089 l 235 1089 l 235 1138 l 697 1138 l 697 1089 m 785 200 l 765 0 l 56 0 l 56 17 q 171 43 113 38 l 171 929 q 56 956 121 935 l 56 972 l 765 972 l 765 769 l 736 769 q 713 840 725 789 q 699 921 701 892 l 300 921 l 300 503 l 589 503 q 599 562 592 528 q 615 618 606 596 l 638 618 l 638 338 l 615 338 q 599 395 606 361 q 589 453 592 429 l 300 453 l 300 49 l 703 49 q 722 128 704 78 q 754 200 740 178 l 785 200 z "},"Ę":{"ha":851,"x_min":56,"x_max":801,"o":"m 726 -199 q 801 -179 764 -199 l 801 -236 q 685 -260 750 -260 q 581 -227 618 -260 q 543 -149 543 -194 q 574 -61 543 -101 q 658 0 606 -21 l 56 0 l 56 17 q 171 43 113 38 l 171 929 q 56 956 121 935 l 56 972 l 765 972 l 765 769 l 736 769 q 713 840 725 789 q 699 921 701 892 l 300 921 l 300 503 l 589 503 q 599 562 592 528 q 615 618 606 596 l 638 618 l 638 338 l 615 338 q 599 395 606 361 q 589 453 592 429 l 300 453 l 300 49 l 703 49 q 722 128 704 78 q 754 200 740 178 l 785 200 l 765 0 l 728 0 q 665 -57 690 -22 q 640 -128 640 -92 q 665 -181 640 -162 q 726 -199 689 -199 z "},"Ẽ":{"ha":851,"x_min":56,"x_max":785,"o":"m 353 1169 q 297 1148 321 1169 q 265 1090 274 1126 l 219 1090 q 265 1195 229 1161 q 356 1229 300 1229 q 412 1218 385 1229 q 475 1186 439 1207 q 521 1161 501 1169 q 558 1153 540 1153 q 615 1173 590 1153 q 649 1236 639 1193 l 693 1236 q 649 1130 683 1168 q 556 1092 615 1092 q 509 1101 532 1092 q 443 1133 486 1111 q 392 1160 413 1151 q 353 1169 371 1169 m 785 200 l 765 0 l 56 0 l 56 17 q 171 43 113 38 l 171 929 q 56 956 121 935 l 56 972 l 765 972 l 765 769 l 736 769 q 713 840 725 789 q 699 921 701 892 l 300 921 l 300 503 l 589 503 q 599 562 592 528 q 615 618 606 596 l 638 618 l 638 338 l 615 338 q 599 395 606 361 q 589 453 592 429 l 300 453 l 300 49 l 703 49 q 722 128 704 78 q 754 200 740 178 l 785 200 z "},"F":{"ha":792,"x_min":56,"x_max":756,"o":"m 756 972 l 756 769 l 725 769 q 702 840 714 789 q 688 921 690 892 l 300 921 l 300 503 l 589 503 q 599 562 592 528 q 615 618 606 596 l 638 618 l 638 338 l 615 338 q 599 395 606 361 q 589 453 592 429 l 300 453 l 300 42 q 417 15 372 31 l 417 0 l 56 0 l 56 17 q 171 42 114 35 l 171 929 q 56 956 100 940 l 56 972 l 756 972 z "},"G":{"ha":932,"x_min":51,"x_max":917,"o":"m 500 -14 q 167 118 282 -14 q 51 486 51 250 q 106 753 51 640 q 263 926 160 865 q 508 986 367 986 q 699 960 608 986 q 836 890 789 933 l 824 721 l 790 721 q 764 876 772 775 q 667 918 733 901 q 542 935 600 935 q 274 812 367 935 q 182 486 182 689 q 265 158 182 279 q 522 38 349 38 q 610 47 560 38 q 696 76 661 57 l 696 429 q 586 454 631 442 l 586 471 l 917 471 l 917 457 q 819 426 872 433 l 819 68 q 680 8 768 29 q 500 -14 592 -14 z "},"Ğ":{"ha":932,"x_min":51,"x_max":917,"o":"m 510 1079 q 361 1122 418 1079 q 293 1251 304 1165 l 371 1251 q 417 1156 378 1181 q 510 1131 456 1131 q 602 1156 564 1131 q 647 1251 640 1181 l 725 1251 q 658 1122 715 1165 q 510 1079 600 1079 m 500 -14 q 167 118 282 -14 q 51 486 51 250 q 106 753 51 640 q 263 926 160 865 q 508 986 367 986 q 699 960 608 986 q 836 890 789 933 l 824 721 l 790 721 q 764 876 772 775 q 667 918 733 901 q 542 935 600 935 q 274 812 367 935 q 182 486 182 689 q 265 158 182 279 q 522 38 349 38 q 610 47 560 38 q 696 76 661 57 l 696 429 q 586 454 631 442 l 586 471 l 917 471 l 917 457 q 819 426 872 433 l 819 68 q 680 8 768 29 q 500 -14 592 -14 z "},"Ǧ":{"ha":932,"x_min":51,"x_max":917,"o":"m 485 1107 q 401 1197 456 1147 q 303 1278 347 1247 l 354 1322 q 440 1249 396 1292 q 511 1171 485 1207 l 518 1171 q 588 1249 544 1207 q 674 1322 632 1292 l 726 1278 q 628 1199 682 1249 q 544 1107 574 1149 l 485 1107 m 500 -14 q 167 118 282 -14 q 51 486 51 250 q 106 753 51 640 q 263 926 160 865 q 508 986 367 986 q 699 960 608 986 q 836 890 789 933 l 824 721 l 790 721 q 764 876 772 775 q 667 918 733 901 q 542 935 600 935 q 274 812 367 935 q 182 486 182 689 q 265 158 182 279 q 522 38 349 38 q 610 47 560 38 q 696 76 661 57 l 696 429 q 586 454 631 442 l 586 471 l 917 471 l 917 457 q 819 426 872 433 l 819 68 q 680 8 768 29 q 500 -14 592 -14 z "},"Ĝ":{"ha":932,"x_min":51,"x_max":917,"o":"m 318 1128 q 417 1208 363 1158 q 500 1297 471 1257 l 560 1297 q 643 1207 589 1257 q 742 1128 697 1157 l 689 1083 q 603 1156 647 1114 q 533 1235 560 1199 l 526 1235 q 456 1156 500 1199 q 369 1083 411 1114 l 318 1128 m 500 -14 q 167 118 282 -14 q 51 486 51 250 q 106 753 51 640 q 263 926 160 865 q 508 986 367 986 q 699 960 608 986 q 836 890 789 933 l 824 721 l 790 721 q 764 876 772 775 q 667 918 733 901 q 542 935 600 935 q 274 812 367 935 q 182 486 182 689 q 265 158 182 279 q 522 38 349 38 q 610 47 560 38 q 696 76 661 57 l 696 429 q 586 454 631 442 l 586 471 l 917 471 l 917 457 q 819 426 872 433 l 819 68 q 680 8 768 29 q 500 -14 592 -14 z "},"Ģ":{"ha":932,"x_min":51,"x_max":917,"o":"m 500 -14 q 167 118 282 -14 q 51 486 51 250 q 106 753 51 640 q 263 926 160 865 q 508 986 367 986 q 699 960 608 986 q 836 890 789 933 l 824 721 l 790 721 q 764 876 772 775 q 667 918 733 901 q 542 935 600 935 q 274 812 367 935 q 182 486 182 689 q 265 158 182 279 q 522 38 349 38 q 610 47 560 38 q 696 76 661 57 l 696 429 q 586 454 631 442 l 586 471 l 917 471 l 917 457 q 819 426 872 433 l 819 68 q 680 8 768 29 q 500 -14 592 -14 m 447 -385 q 492 -313 474 -354 q 515 -231 511 -272 q 501 -232 511 -232 q 453 -213 472 -232 q 433 -164 433 -194 q 456 -114 433 -132 q 508 -96 478 -96 q 572 -121 551 -96 q 592 -187 592 -146 q 563 -312 592 -246 q 492 -419 535 -379 l 447 -385 z "},"Ġ":{"ha":932,"x_min":51,"x_max":917,"o":"m 525 1090 q 479 1108 496 1090 q 463 1153 463 1125 q 479 1200 463 1182 q 525 1218 496 1218 q 569 1200 553 1218 q 586 1153 586 1182 q 569 1108 586 1125 q 525 1090 551 1090 m 500 -14 q 167 118 282 -14 q 51 486 51 250 q 106 753 51 640 q 263 926 160 865 q 508 986 367 986 q 699 960 608 986 q 836 890 789 933 l 824 721 l 790 721 q 764 876 772 775 q 667 918 733 901 q 542 935 600 935 q 274 812 367 935 q 182 486 182 689 q 265 158 182 279 q 522 38 349 38 q 610 47 560 38 q 696 76 661 57 l 696 429 q 586 454 631 442 l 586 471 l 917 471 l 917 457 q 819 426 872 433 l 819 68 q 680 8 768 29 q 500 -14 592 -14 z "},"Ḡ":{"ha":932,"x_min":51,"x_max":917,"o":"m 268 1138 l 731 1138 l 731 1089 l 268 1089 l 268 1138 m 500 -14 q 167 118 282 -14 q 51 486 51 250 q 106 753 51 640 q 263 926 160 865 q 508 986 367 986 q 699 960 608 986 q 836 890 789 933 l 824 721 l 790 721 q 764 876 772 775 q 667 918 733 901 q 542 935 600 935 q 274 812 367 935 q 182 486 182 689 q 265 158 182 279 q 522 38 349 38 q 610 47 560 38 q 696 76 661 57 l 696 429 q 586 454 631 442 l 586 471 l 917 471 l 917 457 q 819 426 872 433 l 819 68 q 680 8 768 29 q 500 -14 592 -14 z "},"H":{"ha":1099,"x_min":56,"x_max":1043,"o":"m 1043 954 q 931 928 982 933 l 931 42 q 1043 15 994 32 l 1043 0 l 694 0 l 694 14 q 751 33 731 28 q 803 42 772 39 l 803 468 l 294 468 l 294 42 q 403 15 360 29 l 403 0 l 56 0 l 56 17 q 165 42 110 36 l 165 929 q 56 956 106 939 l 56 972 l 403 972 l 403 956 q 345 937 365 942 q 294 929 325 932 l 294 518 l 803 518 l 803 929 q 694 956 757 936 l 694 972 l 1043 972 l 1043 954 z "},"Ħ":{"ha":1099,"x_min":56,"x_max":1043,"o":"m 1043 954 q 931 928 982 933 l 931 750 l 1015 750 l 1015 700 l 931 700 l 931 42 q 1043 15 994 32 l 1043 0 l 694 0 l 694 14 q 751 33 731 28 q 803 42 772 39 l 803 468 l 294 468 l 294 42 q 403 15 360 29 l 403 0 l 56 0 l 56 17 q 165 42 110 36 l 165 700 l 82 700 l 82 750 l 165 750 l 165 929 q 56 956 106 939 l 56 972 l 403 972 l 403 956 q 345 937 365 942 q 294 929 325 932 l 294 750 l 803 750 l 803 929 q 694 956 757 936 l 694 972 l 1043 972 l 1043 954 m 803 700 l 294 700 l 294 518 l 803 518 l 803 700 z "},"Ḫ":{"ha":1099,"x_min":56,"x_max":1043,"o":"m 1043 954 q 931 928 982 933 l 931 42 q 1043 15 994 32 l 1043 0 l 694 0 l 694 14 q 751 33 731 28 q 803 42 772 39 l 803 468 l 294 468 l 294 42 q 403 15 360 29 l 403 0 l 56 0 l 56 17 q 165 42 110 36 l 165 929 q 56 956 106 939 l 56 972 l 403 972 l 403 956 q 345 937 365 942 q 294 929 325 932 l 294 518 l 803 518 l 803 929 q 694 956 757 936 l 694 972 l 1043 972 l 1043 954 m 549 -192 q 641 -166 603 -192 q 686 -69 679 -140 l 764 -69 q 697 -199 754 -156 q 549 -242 639 -242 q 400 -199 457 -242 q 332 -69 343 -156 l 410 -69 q 549 -192 422 -192 z "},"Ĥ":{"ha":1099,"x_min":56,"x_max":1043,"o":"m 546 1235 q 475 1156 519 1199 q 389 1083 431 1114 l 338 1128 q 436 1208 382 1158 q 519 1297 490 1257 l 579 1297 q 663 1207 608 1257 q 761 1128 717 1157 l 708 1083 q 623 1156 667 1114 q 553 1235 579 1199 l 546 1235 m 1043 954 q 931 928 982 933 l 931 42 q 1043 15 994 32 l 1043 0 l 694 0 l 694 14 q 751 33 731 28 q 803 42 772 39 l 803 468 l 294 468 l 294 42 q 403 15 360 29 l 403 0 l 56 0 l 56 17 q 165 42 110 36 l 165 929 q 56 956 106 939 l 56 972 l 403 972 l 403 956 q 345 937 365 942 q 294 929 325 932 l 294 518 l 803 518 l 803 929 q 694 956 757 936 l 694 972 l 1043 972 l 1043 954 z "},"Ḥ":{"ha":1099,"x_min":56,"x_max":1043,"o":"m 1043 954 q 931 928 982 933 l 931 42 q 1043 15 994 32 l 1043 0 l 694 0 l 694 14 q 751 33 731 28 q 803 42 772 39 l 803 468 l 294 468 l 294 42 q 403 15 360 29 l 403 0 l 56 0 l 56 17 q 165 42 110 36 l 165 929 q 56 956 106 939 l 56 972 l 403 972 l 403 956 q 345 937 365 942 q 294 929 325 932 l 294 518 l 803 518 l 803 929 q 694 956 757 936 l 694 972 l 1043 972 l 1043 954 m 543 -82 q 588 -100 571 -82 q 606 -147 606 -118 q 588 -192 606 -175 q 543 -210 571 -210 q 498 -192 515 -210 q 481 -147 481 -175 q 498 -100 481 -118 q 543 -82 515 -82 z "},"I":{"ha":474,"x_min":60,"x_max":414,"o":"m 60 17 q 172 42 119 35 l 172 929 q 60 956 114 938 l 60 972 l 414 972 l 414 954 q 300 929 367 939 l 300 42 q 414 15 357 33 l 414 0 l 60 0 l 60 17 z "},"Ĳ":{"ha":1125,"x_min":60,"x_max":1068,"o":"m 60 17 q 172 42 119 35 l 172 929 q 60 956 114 938 l 60 972 l 414 972 l 414 954 q 300 929 367 939 l 300 42 q 414 15 357 33 l 414 0 l 60 0 l 60 17 m 711 -14 q 497 54 581 -14 l 518 88 q 674 46 589 46 q 829 199 829 46 l 829 928 q 719 953 771 936 l 719 972 l 1068 972 l 1068 954 q 958 928 1008 933 l 958 199 q 891 41 958 96 q 711 -14 824 -14 z "},"Í":{"ha":474,"x_min":60,"x_max":414,"o":"m 101 1124 l 260 1271 q 322 1303 292 1303 q 354 1292 343 1303 q 365 1265 365 1281 q 321 1206 365 1233 l 124 1092 l 101 1124 m 60 17 q 172 42 119 35 l 172 929 q 60 956 114 938 l 60 972 l 414 972 l 414 954 q 300 929 367 939 l 300 42 q 414 15 357 33 l 414 0 l 60 0 l 60 17 z "},"Ĭ":{"ha":474,"x_min":19,"x_max":451,"o":"m 236 1079 q 88 1122 144 1079 q 19 1251 31 1165 l 97 1251 q 143 1156 104 1181 q 236 1131 182 1131 q 328 1156 290 1131 q 374 1251 367 1181 l 451 1251 q 384 1122 442 1165 q 236 1079 326 1079 m 60 17 q 172 42 119 35 l 172 929 q 60 956 114 938 l 60 972 l 414 972 l 414 954 q 300 929 367 939 l 300 42 q 414 15 357 33 l 414 0 l 60 0 l 60 17 z "},"Ǐ":{"ha":474,"x_min":24,"x_max":447,"o":"m 206 1092 q 122 1182 176 1132 q 24 1263 68 1232 l 75 1307 q 161 1234 117 1276 q 232 1156 206 1192 l 239 1156 q 309 1234 265 1192 q 394 1307 353 1276 l 447 1263 q 349 1183 403 1233 q 265 1092 294 1133 l 206 1092 m 60 17 q 172 42 119 35 l 172 929 q 60 956 114 938 l 60 972 l 414 972 l 414 954 q 300 929 367 939 l 300 42 q 414 15 357 33 l 414 0 l 60 0 l 60 17 z "},"Î":{"ha":474,"x_min":24,"x_max":447,"o":"m 24 1128 q 122 1208 68 1158 q 206 1297 176 1257 l 265 1297 q 349 1207 294 1257 q 447 1128 403 1157 l 394 1083 q 309 1156 353 1114 q 239 1235 265 1199 l 232 1235 q 161 1156 206 1199 q 75 1083 117 1114 l 24 1128 m 60 17 q 172 42 119 35 l 172 929 q 60 956 114 938 l 60 972 l 414 972 l 414 954 q 300 929 367 939 l 300 42 q 414 15 357 33 l 414 0 l 60 0 l 60 17 z "},"Ï":{"ha":474,"x_min":21,"x_max":450,"o":"m 82 1090 q 38 1108 56 1090 q 21 1153 21 1125 q 38 1200 21 1182 q 82 1218 54 1218 q 127 1200 110 1218 q 144 1153 144 1182 q 127 1108 144 1125 q 82 1090 110 1090 m 388 1090 q 343 1108 360 1090 q 326 1153 326 1125 q 343 1200 326 1182 q 388 1218 360 1218 q 433 1200 415 1218 q 450 1153 450 1182 q 433 1108 450 1125 q 388 1090 415 1090 m 60 17 q 172 42 119 35 l 172 929 q 60 956 114 938 l 60 972 l 414 972 l 414 954 q 300 929 367 939 l 300 42 q 414 15 357 33 l 414 0 l 60 0 l 60 17 z "},"İ":{"ha":474,"x_min":60,"x_max":414,"o":"m 235 1090 q 189 1108 206 1090 q 172 1153 172 1125 q 189 1200 172 1182 q 235 1218 206 1218 q 279 1200 263 1218 q 296 1153 296 1182 q 278 1108 296 1125 q 235 1090 261 1090 m 60 17 q 172 42 119 35 l 172 929 q 60 956 114 938 l 60 972 l 414 972 l 414 954 q 300 929 367 939 l 300 42 q 414 15 357 33 l 414 0 l 60 0 l 60 17 z "},"Ị":{"ha":474,"x_min":60,"x_max":414,"o":"m 60 17 q 172 42 119 35 l 172 929 q 60 956 114 938 l 60 972 l 414 972 l 414 954 q 300 929 367 939 l 300 42 q 414 15 357 33 l 414 0 l 60 0 l 60 17 m 235 -210 q 190 -192 207 -210 q 172 -147 172 -175 q 190 -100 172 -118 q 235 -82 207 -82 q 280 -100 263 -82 q 297 -147 297 -118 q 280 -192 297 -175 q 235 -210 263 -210 z "},"Ì":{"ha":474,"x_min":60,"x_max":414,"o":"m 149 1206 q 101 1265 101 1233 q 113 1292 101 1281 q 146 1303 125 1303 q 207 1272 176 1303 l 368 1124 l 346 1092 l 149 1206 m 60 17 q 172 42 119 35 l 172 929 q 60 956 114 938 l 60 972 l 414 972 l 414 954 q 300 929 367 939 l 300 42 q 414 15 357 33 l 414 0 l 60 0 l 60 17 z "},"Ỉ":{"ha":474,"x_min":60,"x_max":414,"o":"m 207 1207 l 240 1207 q 305 1226 282 1207 q 328 1279 328 1246 q 306 1325 328 1307 q 246 1343 285 1343 q 165 1321 206 1343 l 156 1363 q 263 1386 203 1386 q 359 1358 319 1386 q 399 1276 399 1331 q 368 1203 399 1229 q 282 1171 338 1176 l 268 1082 l 214 1082 l 207 1207 m 60 17 q 172 42 119 35 l 172 929 q 60 956 114 938 l 60 972 l 414 972 l 414 954 q 300 929 367 939 l 300 42 q 414 15 357 33 l 414 0 l 60 0 l 60 17 z "},"Ī":{"ha":474,"x_min":-8,"x_max":482,"o":"m -8 1139 l 482 1139 l 482 1090 l -8 1090 l -8 1139 m 60 17 q 172 42 119 35 l 172 929 q 60 956 114 938 l 60 972 l 414 972 l 414 954 q 300 929 367 939 l 300 42 q 414 15 357 33 l 414 0 l 60 0 l 60 17 z "},"Į":{"ha":474,"x_min":60,"x_max":454,"o":"m 379 -199 q 454 -179 417 -199 l 454 -236 q 338 -260 403 -260 q 233 -227 271 -260 q 196 -149 196 -194 q 227 -61 196 -101 q 311 0 258 -21 l 60 0 l 60 17 q 172 42 119 35 l 172 929 q 60 956 114 938 l 60 972 l 414 972 l 414 954 q 300 929 367 939 l 300 42 q 414 15 357 33 l 414 0 l 381 0 q 318 -57 343 -22 q 293 -128 293 -92 q 317 -181 293 -162 q 379 -199 342 -199 z "},"Ĩ":{"ha":474,"x_min":-1,"x_max":472,"o":"m -1 1092 q 44 1197 8 1163 q 135 1231 79 1231 q 191 1219 164 1231 q 254 1188 218 1208 q 300 1163 281 1171 q 338 1154 319 1154 q 394 1174 369 1154 q 428 1238 418 1194 l 472 1238 q 428 1131 463 1169 q 335 1093 394 1093 q 288 1103 311 1093 q 222 1135 265 1113 q 171 1162 192 1153 q 132 1171 150 1171 q 76 1149 100 1171 q 44 1092 53 1128 l -1 1092 m 60 17 q 172 42 119 35 l 172 929 q 60 956 114 938 l 60 972 l 414 972 l 414 954 q 300 929 367 939 l 300 42 q 414 15 357 33 l 414 0 l 60 0 l 60 17 z "},"J":{"ha":657,"x_min":29,"x_max":600,"o":"m 243 -14 q 29 54 113 -14 l 50 88 q 206 46 121 46 q 361 199 361 46 l 361 928 q 251 953 303 936 l 251 972 l 600 972 l 600 954 q 490 928 540 933 l 490 199 q 423 41 490 96 q 243 -14 356 -14 z "},"Ĵ":{"ha":657,"x_min":29,"x_max":638,"o":"m 214 1128 q 313 1208 258 1158 q 396 1297 367 1257 l 456 1297 q 539 1207 485 1257 q 638 1128 593 1157 l 585 1083 q 499 1156 543 1114 q 429 1235 456 1199 l 422 1235 q 351 1156 396 1199 q 265 1083 307 1114 l 214 1128 m 243 -14 q 29 54 113 -14 l 50 88 q 206 46 121 46 q 361 199 361 46 l 361 928 q 251 953 303 936 l 251 972 l 600 972 l 600 954 q 490 928 540 933 l 490 199 q 423 41 490 96 q 243 -14 356 -14 z "},"K":{"ha":1022,"x_min":56,"x_max":1008,"o":"m 56 17 q 113 32 81 25 q 167 42 144 39 l 167 929 q 56 956 100 939 l 56 972 l 408 972 l 408 954 q 296 929 358 938 l 296 453 l 715 910 q 724 924 724 918 q 690 942 724 935 q 622 950 656 949 l 622 972 l 901 972 l 901 950 q 869 944 889 947 q 833 937 849 942 q 807 919 818 932 l 481 568 l 893 42 q 1008 15 963 29 l 1008 0 l 786 0 l 404 488 l 296 368 l 296 42 q 408 15 351 33 l 408 0 l 56 0 l 56 17 z "},"Ķ":{"ha":1022,"x_min":56,"x_max":1008,"o":"m 56 17 q 113 32 81 25 q 167 42 144 39 l 167 929 q 56 956 100 939 l 56 972 l 408 972 l 408 954 q 296 929 358 938 l 296 453 l 715 910 q 724 924 724 918 q 690 942 724 935 q 622 950 656 949 l 622 972 l 901 972 l 901 950 q 869 944 889 947 q 833 937 849 942 q 807 919 818 932 l 481 568 l 893 42 q 1008 15 963 29 l 1008 0 l 786 0 l 404 488 l 296 368 l 296 42 q 408 15 351 33 l 408 0 l 56 0 l 56 17 m 478 -385 q 523 -313 504 -354 q 546 -231 542 -272 q 532 -232 542 -232 q 483 -213 503 -232 q 464 -164 464 -194 q 486 -114 464 -132 q 539 -96 508 -96 q 602 -121 582 -96 q 622 -187 622 -146 q 594 -312 622 -246 q 522 -419 565 -379 l 478 -385 z "},"L":{"ha":832,"x_min":56,"x_max":774,"o":"m 56 17 q 172 42 113 35 l 172 929 q 60 956 108 939 l 60 972 l 413 972 l 413 954 q 301 929 363 939 l 301 49 l 692 49 q 712 128 693 78 q 744 200 731 179 l 774 200 l 754 0 l 56 0 l 56 17 z "},"Ĺ":{"ha":832,"x_min":56,"x_max":774,"o":"m 168 1124 l 326 1271 q 389 1303 358 1303 q 421 1292 410 1303 q 432 1265 432 1281 q 388 1206 432 1233 l 190 1092 l 168 1124 m 56 17 q 172 42 113 35 l 172 929 q 60 956 108 939 l 60 972 l 413 972 l 413 954 q 301 929 363 939 l 301 49 l 692 49 q 712 128 693 78 q 744 200 731 179 l 774 200 l 754 0 l 56 0 l 56 17 z "},"Ľ":{"ha":832,"x_min":56,"x_max":774,"o":"m 564 689 q 610 761 590 719 q 633 843 629 803 l 619 842 q 570 859 592 842 q 549 911 549 876 q 569 965 549 943 q 625 986 589 986 q 691 958 671 986 q 711 888 711 931 q 681 763 711 831 q 608 654 651 696 l 564 689 m 56 17 q 172 42 113 35 l 172 929 q 60 956 108 939 l 60 972 l 413 972 l 413 954 q 301 929 363 939 l 301 49 l 692 49 q 712 128 693 78 q 744 200 731 179 l 774 200 l 754 0 l 56 0 l 56 17 z "},"Ļ":{"ha":832,"x_min":56,"x_max":774,"o":"m 56 17 q 172 42 113 35 l 172 929 q 60 956 108 939 l 60 972 l 413 972 l 413 954 q 301 929 363 939 l 301 49 l 692 49 q 712 128 693 78 q 744 200 731 179 l 774 200 l 754 0 l 56 0 l 56 17 m 378 -385 q 423 -313 404 -354 q 446 -231 442 -272 q 432 -232 442 -232 q 383 -213 403 -232 q 364 -164 364 -194 q 386 -114 364 -132 q 439 -96 408 -96 q 502 -121 482 -96 q 522 -187 522 -146 q 494 -312 522 -246 q 422 -419 465 -379 l 378 -385 z "},"Ŀ":{"ha":832,"x_min":56,"x_max":774,"o":"m 56 17 q 172 42 113 35 l 172 929 q 60 956 108 939 l 60 972 l 413 972 l 413 954 q 301 929 363 939 l 301 49 l 692 49 q 712 128 693 78 q 744 200 731 179 l 774 200 l 754 0 l 56 0 l 56 17 m 551 460 q 506 477 524 460 q 489 524 489 494 q 506 569 489 551 q 551 586 524 586 q 597 569 579 586 q 614 524 614 551 q 597 477 614 494 q 551 460 579 460 z "},"Ḷ":{"ha":832,"x_min":56,"x_max":774,"o":"m 56 17 q 172 42 113 35 l 172 929 q 60 956 108 939 l 60 972 l 413 972 l 413 954 q 301 929 363 939 l 301 49 l 692 49 q 712 128 693 78 q 744 200 731 179 l 774 200 l 754 0 l 56 0 l 56 17 m 451 -200 q 406 -183 422 -200 q 389 -136 389 -165 q 406 -91 389 -108 q 451 -74 422 -74 q 495 -91 478 -74 q 513 -136 513 -108 q 496 -183 513 -165 q 451 -200 479 -200 z "},"Ḹ":{"ha":832,"x_min":4,"x_max":774,"o":"m 4 1138 l 467 1138 l 467 1090 l 4 1090 l 4 1138 m 56 17 q 172 42 113 35 l 172 929 q 60 956 108 939 l 60 972 l 413 972 l 413 954 q 301 929 363 939 l 301 49 l 692 49 q 712 128 693 78 q 744 200 731 179 l 774 200 l 754 0 l 56 0 l 56 17 m 449 -200 q 404 -183 421 -200 q 388 -136 388 -165 q 405 -91 388 -108 q 449 -74 422 -74 q 494 -91 476 -74 q 511 -136 511 -108 q 494 -183 511 -165 q 449 -200 476 -200 z "},"Ḻ":{"ha":832,"x_min":56,"x_max":774,"o":"m 56 17 q 172 42 113 35 l 172 929 q 60 956 108 939 l 60 972 l 413 972 l 413 954 q 301 929 363 939 l 301 49 l 692 49 q 712 128 693 78 q 744 200 731 179 l 774 200 l 754 0 l 56 0 l 56 17 m 194 -96 l 657 -96 l 657 -144 l 194 -144 l 194 -96 z "},"Ł":{"ha":832,"x_min":51,"x_max":774,"o":"m 774 200 l 754 0 l 56 0 l 56 17 q 172 42 113 35 l 172 379 l 51 336 l 51 403 l 172 446 l 172 929 q 60 956 108 939 l 60 972 l 413 972 l 413 954 q 301 929 363 939 l 301 493 l 592 597 l 592 531 l 301 426 l 301 49 l 692 49 q 712 128 693 78 q 744 200 731 179 l 774 200 z "},"M":{"ha":1268,"x_min":56,"x_max":1213,"o":"m 56 15 q 167 40 107 31 l 167 929 q 56 956 100 939 l 56 972 l 315 972 l 626 217 l 956 972 l 1213 972 l 1213 956 q 1101 928 1161 939 l 1101 40 q 1213 15 1161 31 l 1213 0 l 861 0 l 861 15 q 972 42 908 31 l 972 875 l 636 107 l 561 107 l 231 883 l 231 42 q 342 15 294 31 l 342 0 l 56 0 l 56 15 z "},"Ṃ":{"ha":1268,"x_min":56,"x_max":1213,"o":"m 56 15 q 167 40 107 31 l 167 929 q 56 956 100 939 l 56 972 l 315 972 l 626 217 l 956 972 l 1213 972 l 1213 956 q 1101 928 1161 939 l 1101 40 q 1213 15 1161 31 l 1213 0 l 861 0 l 861 15 q 972 42 908 31 l 972 875 l 636 107 l 561 107 l 231 883 l 231 42 q 342 15 294 31 l 342 0 l 56 0 l 56 15 m 632 -210 q 587 -192 604 -210 q 569 -147 569 -175 q 587 -100 569 -118 q 632 -82 604 -82 q 677 -100 660 -82 q 694 -147 694 -118 q 677 -192 694 -175 q 632 -210 660 -210 z "},"N":{"ha":1081,"x_min":56,"x_max":1025,"o":"m 56 15 q 167 40 107 31 l 167 929 q 56 956 100 939 l 56 972 l 308 972 l 850 163 l 850 931 q 739 956 793 939 l 739 972 l 1025 972 l 1025 956 q 913 929 976 940 l 913 0 l 839 0 l 231 901 l 231 42 q 342 15 294 31 l 342 0 l 56 0 l 56 15 z "},"Ń":{"ha":1081,"x_min":56,"x_max":1025,"o":"m 456 1124 l 614 1271 q 676 1303 646 1303 q 708 1292 697 1303 q 719 1265 719 1281 q 675 1206 719 1233 l 478 1092 l 456 1124 m 56 15 q 167 40 107 31 l 167 929 q 56 956 100 939 l 56 972 l 308 972 l 850 163 l 850 931 q 739 956 793 939 l 739 972 l 1025 972 l 1025 956 q 913 929 976 940 l 913 0 l 839 0 l 231 901 l 231 42 q 342 15 294 31 l 342 0 l 56 0 l 56 15 z "},"Ň":{"ha":1081,"x_min":56,"x_max":1025,"o":"m 508 1092 q 425 1182 479 1132 q 326 1263 371 1232 l 378 1307 q 464 1234 419 1276 q 535 1156 508 1192 l 542 1156 q 612 1234 568 1192 q 697 1307 656 1276 l 750 1263 q 651 1183 706 1233 q 568 1092 597 1133 l 508 1092 m 56 15 q 167 40 107 31 l 167 929 q 56 956 100 939 l 56 972 l 308 972 l 850 163 l 850 931 q 739 956 793 939 l 739 972 l 1025 972 l 1025 956 q 913 929 976 940 l 913 0 l 839 0 l 231 901 l 231 42 q 342 15 294 31 l 342 0 l 56 0 l 56 15 z "},"Ņ":{"ha":1081,"x_min":56,"x_max":1025,"o":"m 56 15 q 167 40 107 31 l 167 929 q 56 956 100 939 l 56 972 l 308 972 l 850 163 l 850 931 q 739 956 793 939 l 739 972 l 1025 972 l 1025 956 q 913 929 976 940 l 913 0 l 839 0 l 231 901 l 231 42 q 342 15 294 31 l 342 0 l 56 0 l 56 15 m 478 -385 q 523 -313 504 -354 q 546 -231 542 -272 q 532 -232 542 -232 q 483 -213 503 -232 q 464 -164 464 -194 q 486 -114 464 -132 q 539 -96 508 -96 q 602 -121 582 -96 q 622 -187 622 -146 q 594 -312 622 -246 q 522 -419 565 -379 l 478 -385 z "},"Ṅ":{"ha":1081,"x_min":56,"x_max":1025,"o":"m 544 1090 q 499 1108 515 1090 q 482 1153 482 1125 q 499 1200 482 1182 q 544 1218 515 1218 q 589 1200 572 1218 q 606 1153 606 1182 q 588 1108 606 1125 q 544 1090 571 1090 m 56 15 q 167 40 107 31 l 167 929 q 56 956 100 939 l 56 972 l 308 972 l 850 163 l 850 931 q 739 956 793 939 l 739 972 l 1025 972 l 1025 956 q 913 929 976 940 l 913 0 l 839 0 l 231 901 l 231 42 q 342 15 294 31 l 342 0 l 56 0 l 56 15 z "},"Ṇ":{"ha":1081,"x_min":56,"x_max":1025,"o":"m 56 15 q 167 40 107 31 l 167 929 q 56 956 100 939 l 56 972 l 308 972 l 850 163 l 850 931 q 739 956 793 939 l 739 972 l 1025 972 l 1025 956 q 913 929 976 940 l 913 0 l 839 0 l 231 901 l 231 42 q 342 15 294 31 l 342 0 l 56 0 l 56 15 m 526 -210 q 481 -192 499 -210 q 464 -147 464 -175 q 481 -100 464 -118 q 526 -82 499 -82 q 572 -100 554 -82 q 589 -147 589 -118 q 572 -192 589 -175 q 526 -210 554 -210 z "},"Ŋ":{"ha":1081,"x_min":56,"x_max":1025,"o":"m 707 -346 q 532 -299 615 -346 l 543 -264 q 683 -290 604 -290 q 806 -256 760 -290 q 851 -147 851 -222 l 851 -6 l 231 901 l 231 42 q 342 15 294 31 l 342 0 l 56 0 l 56 15 q 167 40 107 31 l 167 929 q 56 956 100 939 l 56 972 l 308 972 l 850 163 l 850 931 q 739 956 793 939 l 739 972 l 1025 972 l 1025 956 q 913 929 976 940 l 913 -150 q 858 -295 913 -244 q 707 -346 804 -346 z "},"Ṉ":{"ha":1081,"x_min":56,"x_max":1025,"o":"m 56 15 q 167 40 107 31 l 167 929 q 56 956 100 939 l 56 972 l 308 972 l 850 163 l 850 931 q 739 956 793 939 l 739 972 l 1025 972 l 1025 956 q 913 929 976 940 l 913 0 l 839 0 l 231 901 l 231 42 q 342 15 294 31 l 342 0 l 56 0 l 56 15 m 311 -96 l 774 -96 l 774 -144 l 311 -144 l 311 -96 z "},"Ñ":{"ha":1081,"x_min":56,"x_max":1025,"o":"m 308 1092 q 353 1197 318 1163 q 444 1231 389 1231 q 501 1219 474 1231 q 564 1188 528 1208 q 610 1163 590 1171 q 647 1154 629 1154 q 703 1174 679 1154 q 738 1238 728 1194 l 782 1238 q 738 1131 772 1169 q 644 1093 704 1093 q 598 1103 621 1093 q 532 1135 575 1113 q 481 1162 501 1153 q 442 1171 460 1171 q 386 1149 410 1171 q 354 1092 363 1128 l 308 1092 m 56 15 q 167 40 107 31 l 167 929 q 56 956 100 939 l 56 972 l 308 972 l 850 163 l 850 931 q 739 956 793 939 l 739 972 l 1025 972 l 1025 956 q 913 929 976 940 l 913 0 l 839 0 l 231 901 l 231 42 q 342 15 294 31 l 342 0 l 56 0 l 56 15 z "},"O":{"ha":993,"x_min":51,"x_max":942,"o":"m 496 -14 q 166 118 281 -14 q 51 486 51 250 q 166 853 51 721 q 496 986 281 986 q 826 853 710 986 q 942 486 942 721 q 826 119 942 251 q 496 -14 710 -14 m 496 38 q 732 160 651 38 q 813 486 813 283 q 732 812 813 689 q 496 935 651 935 q 260 812 340 935 q 181 486 181 689 q 260 160 181 282 q 496 38 340 38 z "},"Ó":{"ha":993,"x_min":51,"x_max":942,"o":"m 368 1124 l 526 1271 q 589 1303 558 1303 q 621 1292 610 1303 q 632 1265 632 1281 q 588 1206 632 1233 l 390 1092 l 368 1124 m 496 -14 q 166 118 281 -14 q 51 486 51 250 q 166 853 51 721 q 496 986 281 986 q 826 853 710 986 q 942 486 942 721 q 826 119 942 251 q 496 -14 710 -14 m 496 38 q 732 160 651 38 q 813 486 813 283 q 732 812 813 689 q 496 935 651 935 q 260 812 340 935 q 181 486 181 689 q 260 160 181 282 q 496 38 340 38 z "},"Ŏ":{"ha":993,"x_min":51,"x_max":942,"o":"m 496 1076 q 347 1119 404 1076 q 279 1249 290 1163 l 357 1249 q 403 1153 364 1178 q 496 1128 442 1128 q 588 1153 550 1128 q 633 1249 626 1178 l 711 1249 q 644 1119 701 1163 q 496 1076 586 1076 m 496 -14 q 166 118 281 -14 q 51 486 51 250 q 166 853 51 721 q 496 986 281 986 q 826 853 710 986 q 942 486 942 721 q 826 119 942 251 q 496 -14 710 -14 m 496 38 q 732 160 651 38 q 813 486 813 283 q 732 812 813 689 q 496 935 651 935 q 260 812 340 935 q 181 486 181 689 q 260 160 181 282 q 496 38 340 38 z "},"Ǒ":{"ha":993,"x_min":51,"x_max":942,"o":"m 467 1092 q 383 1182 438 1132 q 285 1263 329 1232 l 336 1307 q 422 1234 378 1276 q 493 1156 467 1192 l 500 1156 q 570 1234 526 1192 q 656 1307 614 1276 l 708 1263 q 610 1183 664 1233 q 526 1092 556 1133 l 467 1092 m 496 -14 q 166 118 281 -14 q 51 486 51 250 q 166 853 51 721 q 496 986 281 986 q 826 853 710 986 q 942 486 942 721 q 826 119 942 251 q 496 -14 710 -14 m 496 38 q 732 160 651 38 q 813 486 813 283 q 732 812 813 689 q 496 935 651 935 q 260 812 340 935 q 181 486 181 689 q 260 160 181 282 q 496 38 340 38 z "},"Ô":{"ha":993,"x_min":51,"x_max":942,"o":"m 283 1128 q 382 1208 328 1158 q 465 1297 436 1257 l 525 1297 q 608 1207 554 1257 q 707 1128 663 1157 l 654 1083 q 569 1156 613 1114 q 499 1235 525 1199 l 492 1235 q 421 1156 465 1199 q 335 1083 376 1114 l 283 1128 m 496 -14 q 166 118 281 -14 q 51 486 51 250 q 166 853 51 721 q 496 986 281 986 q 826 853 710 986 q 942 486 942 721 q 826 119 942 251 q 496 -14 710 -14 m 496 38 q 732 160 651 38 q 813 486 813 283 q 732 812 813 689 q 496 935 651 935 q 260 812 340 935 q 181 486 181 689 q 260 160 181 282 q 496 38 340 38 z "},"Ố":{"ha":993,"x_min":51,"x_max":942,"o":"m 639 1279 l 751 1389 q 833 1435 796 1435 q 858 1426 849 1435 q 868 1403 868 1417 q 853 1365 868 1385 q 806 1329 838 1346 l 660 1250 l 639 1279 m 283 1128 q 381 1207 326 1157 q 465 1297 435 1257 l 524 1297 q 608 1208 553 1257 q 706 1128 663 1158 l 654 1083 q 569 1156 613 1114 q 497 1235 525 1199 l 492 1235 q 421 1156 465 1199 q 336 1083 376 1114 l 283 1128 m 496 -14 q 166 118 281 -14 q 51 486 51 250 q 166 853 51 721 q 496 986 281 986 q 826 853 710 986 q 942 486 942 721 q 826 119 942 251 q 496 -14 710 -14 m 496 38 q 732 160 651 38 q 813 486 813 283 q 732 812 813 689 q 496 935 651 935 q 260 812 340 935 q 181 486 181 689 q 260 160 181 282 q 496 38 340 38 z "},"Ộ":{"ha":993,"x_min":51,"x_max":942,"o":"m 283 1128 q 382 1208 328 1158 q 465 1297 436 1257 l 525 1297 q 608 1207 554 1257 q 707 1128 663 1157 l 654 1083 q 569 1156 613 1114 q 499 1235 525 1199 l 492 1235 q 421 1156 465 1199 q 335 1083 376 1114 l 283 1128 m 496 -14 q 166 118 281 -14 q 51 486 51 250 q 166 853 51 721 q 496 986 281 986 q 826 853 710 986 q 942 486 942 721 q 826 119 942 251 q 496 -14 710 -14 m 496 38 q 732 160 651 38 q 813 486 813 283 q 732 812 813 689 q 496 935 651 935 q 260 812 340 935 q 181 486 181 689 q 260 160 181 282 q 496 38 340 38 m 494 -210 q 449 -192 467 -210 q 432 -147 432 -175 q 449 -100 432 -118 q 494 -82 467 -82 q 540 -100 522 -82 q 557 -147 557 -118 q 540 -192 557 -175 q 494 -210 522 -210 z "},"Ồ":{"ha":993,"x_min":51,"x_max":942,"o":"m 208 1321 q 152 1363 172 1340 q 132 1403 132 1385 q 142 1426 132 1417 q 167 1435 151 1435 q 261 1378 204 1435 l 361 1279 l 339 1250 l 208 1321 m 283 1128 q 381 1207 326 1157 q 465 1297 435 1257 l 524 1297 q 608 1208 553 1257 q 706 1128 663 1158 l 654 1083 q 569 1156 613 1114 q 497 1235 525 1199 l 492 1235 q 421 1156 465 1199 q 336 1083 376 1114 l 283 1128 m 496 -14 q 166 118 281 -14 q 51 486 51 250 q 166 853 51 721 q 496 986 281 986 q 826 853 710 986 q 942 486 942 721 q 826 119 942 251 q 496 -14 710 -14 m 496 38 q 732 160 651 38 q 813 486 813 283 q 732 812 813 689 q 496 935 651 935 q 260 812 340 935 q 181 486 181 689 q 260 160 181 282 q 496 38 340 38 z "},"Ổ":{"ha":993,"x_min":51,"x_max":942,"o":"m 632 1349 l 661 1349 q 717 1364 697 1349 q 736 1407 736 1379 q 719 1444 736 1431 q 667 1458 701 1458 q 597 1440 632 1458 l 589 1478 q 681 1497 633 1497 q 765 1474 731 1497 q 800 1406 800 1451 q 699 1318 800 1326 l 686 1244 l 638 1244 l 632 1349 m 283 1135 q 381 1214 326 1164 q 465 1304 435 1264 l 524 1304 q 608 1215 553 1264 q 706 1135 663 1165 l 654 1090 q 569 1163 613 1121 q 497 1242 525 1206 l 492 1242 q 421 1163 465 1206 q 336 1090 376 1121 l 283 1135 m 496 -14 q 166 118 281 -14 q 51 486 51 250 q 166 853 51 721 q 496 986 281 986 q 826 853 710 986 q 942 486 942 721 q 826 119 942 251 q 496 -14 710 -14 m 496 38 q 732 160 651 38 q 813 486 813 283 q 732 812 813 689 q 496 935 651 935 q 260 812 340 935 q 181 486 181 689 q 260 160 181 282 q 496 38 340 38 z "},"Ỗ":{"ha":993,"x_min":51,"x_max":942,"o":"m 271 1338 q 314 1442 281 1408 q 400 1476 347 1476 q 453 1465 428 1476 q 513 1433 479 1454 q 558 1408 539 1417 q 593 1400 576 1400 q 647 1420 624 1400 q 679 1483 669 1440 l 721 1483 q 680 1377 713 1415 q 590 1339 647 1339 q 549 1348 569 1339 q 508 1367 528 1357 q 483 1381 489 1378 q 433 1408 453 1399 q 397 1417 414 1417 q 344 1395 367 1417 q 314 1338 322 1374 l 271 1338 m 283 1128 q 381 1207 326 1157 q 465 1297 435 1257 l 524 1297 q 608 1208 553 1257 q 706 1128 663 1158 l 654 1083 q 569 1156 613 1114 q 497 1235 525 1199 l 492 1235 q 421 1156 465 1199 q 336 1083 376 1114 l 283 1128 m 496 -14 q 166 118 281 -14 q 51 486 51 250 q 166 853 51 721 q 496 986 281 986 q 826 853 710 986 q 942 486 942 721 q 826 119 942 251 q 496 -14 710 -14 m 496 38 q 732 160 651 38 q 813 486 813 283 q 732 812 813 689 q 496 935 651 935 q 260 812 340 935 q 181 486 181 689 q 260 160 181 282 q 496 38 340 38 z "},"Ö":{"ha":993,"x_min":51,"x_max":942,"o":"m 342 1090 q 298 1108 315 1090 q 281 1153 281 1125 q 297 1200 281 1182 q 342 1218 314 1218 q 387 1200 369 1218 q 404 1153 404 1182 q 387 1108 404 1125 q 342 1090 369 1090 m 647 1090 q 603 1108 619 1090 q 586 1153 586 1125 q 603 1200 586 1182 q 647 1218 619 1218 q 692 1200 675 1218 q 710 1153 710 1182 q 692 1108 710 1125 q 647 1090 675 1090 m 496 -14 q 166 118 281 -14 q 51 486 51 250 q 166 853 51 721 q 496 986 281 986 q 826 853 710 986 q 942 486 942 721 q 826 119 942 251 q 496 -14 710 -14 m 496 38 q 732 160 651 38 q 813 486 813 283 q 732 812 813 689 q 496 935 651 935 q 260 812 340 935 q 181 486 181 689 q 260 160 181 282 q 496 38 340 38 z "},"Ọ":{"ha":993,"x_min":51,"x_max":942,"o":"m 496 -14 q 166 118 281 -14 q 51 486 51 250 q 166 853 51 721 q 496 986 281 986 q 826 853 710 986 q 942 486 942 721 q 826 119 942 251 q 496 -14 710 -14 m 496 38 q 732 160 651 38 q 813 486 813 283 q 732 812 813 689 q 496 935 651 935 q 260 812 340 935 q 181 486 181 689 q 260 160 181 282 q 496 38 340 38 m 494 -210 q 449 -192 467 -210 q 432 -147 432 -175 q 449 -100 432 -118 q 494 -82 467 -82 q 540 -100 522 -82 q 557 -147 557 -118 q 540 -192 557 -175 q 494 -210 522 -210 z "},"Ò":{"ha":993,"x_min":51,"x_max":942,"o":"m 403 1206 q 356 1265 356 1233 q 367 1292 356 1281 q 400 1303 379 1303 q 461 1272 431 1303 l 622 1124 l 600 1092 l 403 1206 m 496 -14 q 166 118 281 -14 q 51 486 51 250 q 166 853 51 721 q 496 986 281 986 q 826 853 710 986 q 942 486 942 721 q 826 119 942 251 q 496 -14 710 -14 m 496 38 q 732 160 651 38 q 813 486 813 283 q 732 812 813 689 q 496 935 651 935 q 260 812 340 935 q 181 486 181 689 q 260 160 181 282 q 496 38 340 38 z "},"Ỏ":{"ha":993,"x_min":51,"x_max":942,"o":"m 458 1207 l 492 1207 q 556 1226 533 1207 q 579 1279 579 1246 q 558 1325 579 1307 q 497 1343 536 1343 q 417 1321 457 1343 l 407 1363 q 514 1386 454 1386 q 610 1358 571 1386 q 650 1276 650 1331 q 619 1203 650 1229 q 533 1171 589 1176 l 519 1082 l 465 1082 l 458 1207 m 496 -14 q 166 118 281 -14 q 51 486 51 250 q 166 853 51 721 q 496 986 281 986 q 826 853 710 986 q 942 486 942 721 q 826 119 942 251 q 496 -14 710 -14 m 496 38 q 732 160 651 38 q 813 486 813 283 q 732 812 813 689 q 496 935 651 935 q 260 812 340 935 q 181 486 181 689 q 260 160 181 282 q 496 38 340 38 z "},"Ơ":{"ha":1025,"x_min":51,"x_max":1035,"o":"m 1035 925 q 1002 822 1035 878 q 904 718 969 767 q 942 486 942 618 q 826 119 942 251 q 496 -14 710 -14 q 166 118 281 -14 q 51 486 51 250 q 166 853 51 721 q 496 986 281 986 q 733 928 635 986 q 885 764 832 871 q 938 824 915 790 q 965 893 961 858 q 939 886 956 886 q 892 904 910 886 q 875 953 875 922 q 893 1002 875 982 q 950 1022 911 1022 q 1035 925 1035 1022 m 496 38 q 732 160 651 38 q 813 486 813 283 q 732 812 813 689 q 496 935 651 935 q 260 812 340 935 q 181 486 181 689 q 260 160 181 282 q 496 38 340 38 z "},"Ớ":{"ha":1025,"x_min":51,"x_max":1035,"o":"m 392 1090 l 369 1122 l 528 1269 q 590 1301 560 1301 q 622 1290 611 1301 q 633 1264 633 1279 q 589 1204 633 1232 l 392 1090 m 1035 925 q 1002 822 1035 878 q 904 718 969 767 q 942 486 942 618 q 826 119 942 251 q 496 -14 710 -14 q 166 118 281 -14 q 51 486 51 250 q 166 853 51 721 q 496 986 281 986 q 733 928 635 986 q 885 764 832 871 q 938 824 915 790 q 965 893 961 858 q 939 886 956 886 q 892 904 910 886 q 875 953 875 922 q 893 1002 875 982 q 950 1022 911 1022 q 1035 925 1035 1022 m 496 38 q 732 160 651 38 q 813 486 813 283 q 732 812 813 689 q 496 935 651 935 q 260 812 340 935 q 181 486 181 689 q 260 160 181 282 q 496 38 340 38 z "},"Ợ":{"ha":1025,"x_min":51,"x_max":1035,"o":"m 1035 925 q 1002 822 1035 878 q 904 718 969 767 q 942 486 942 618 q 826 119 942 251 q 496 -14 710 -14 q 166 118 281 -14 q 51 486 51 250 q 166 853 51 721 q 496 986 281 986 q 733 928 635 986 q 885 764 832 871 q 938 824 915 790 q 965 893 961 858 q 939 886 956 886 q 892 904 910 886 q 875 953 875 922 q 893 1002 875 982 q 950 1022 911 1022 q 1035 925 1035 1022 m 496 38 q 732 160 651 38 q 813 486 813 283 q 732 812 813 689 q 496 935 651 935 q 260 812 340 935 q 181 486 181 689 q 260 160 181 282 q 496 38 340 38 m 494 -82 q 540 -100 522 -82 q 557 -147 557 -118 q 540 -192 557 -175 q 494 -210 522 -210 q 449 -192 467 -210 q 432 -147 432 -175 q 449 -100 432 -118 q 494 -82 467 -82 z "},"Ờ":{"ha":1025,"x_min":51,"x_max":1035,"o":"m 404 1204 q 357 1264 357 1232 q 369 1290 357 1279 q 401 1301 381 1301 q 463 1271 432 1301 l 624 1122 l 601 1090 l 404 1204 m 1035 925 q 1002 822 1035 878 q 904 718 969 767 q 942 486 942 618 q 826 119 942 251 q 496 -14 710 -14 q 166 118 281 -14 q 51 486 51 250 q 166 853 51 721 q 496 986 281 986 q 733 928 635 986 q 885 764 832 871 q 938 824 915 790 q 965 893 961 858 q 939 886 956 886 q 892 904 910 886 q 875 953 875 922 q 893 1002 875 982 q 950 1022 911 1022 q 1035 925 1035 1022 m 496 38 q 732 160 651 38 q 813 486 813 283 q 732 812 813 689 q 496 935 651 935 q 260 812 340 935 q 181 486 181 689 q 260 160 181 282 q 496 38 340 38 z "},"Ở":{"ha":1025,"x_min":51,"x_max":1035,"o":"m 496 1342 q 415 1319 456 1342 l 406 1361 q 513 1385 453 1385 q 609 1357 569 1385 q 649 1275 649 1329 q 618 1201 649 1228 q 532 1169 588 1175 l 518 1081 l 464 1081 l 457 1206 l 490 1206 q 555 1225 532 1206 q 578 1278 578 1244 q 556 1324 578 1306 q 496 1342 535 1342 m 1035 925 q 1002 822 1035 878 q 904 718 969 767 q 942 486 942 618 q 826 119 942 251 q 496 -14 710 -14 q 166 118 281 -14 q 51 486 51 250 q 166 853 51 721 q 496 986 281 986 q 733 928 635 986 q 885 764 832 871 q 938 824 915 790 q 965 893 961 858 q 939 886 956 886 q 892 904 910 886 q 875 953 875 922 q 893 1002 875 982 q 950 1022 911 1022 q 1035 925 1035 1022 m 496 38 q 732 160 651 38 q 813 486 813 283 q 732 812 813 689 q 496 935 651 935 q 260 812 340 935 q 181 486 181 689 q 260 160 181 282 q 496 38 340 38 z "},"Ỡ":{"ha":1025,"x_min":51,"x_max":1035,"o":"m 393 1171 q 338 1149 361 1171 q 306 1092 314 1128 l 260 1092 q 305 1197 269 1163 q 396 1231 340 1231 q 452 1219 425 1231 q 515 1188 479 1208 q 561 1163 542 1171 q 599 1154 581 1154 q 655 1174 631 1154 q 689 1238 679 1194 l 733 1238 q 690 1131 724 1169 q 596 1093 656 1093 q 549 1103 572 1093 q 483 1135 526 1113 q 432 1162 453 1153 q 393 1171 411 1171 m 1035 925 q 1002 822 1035 878 q 904 718 969 767 q 942 486 942 618 q 826 119 942 251 q 496 -14 710 -14 q 166 118 281 -14 q 51 486 51 250 q 166 853 51 721 q 496 986 281 986 q 733 928 635 986 q 885 764 832 871 q 938 824 915 790 q 965 893 961 858 q 939 886 956 886 q 892 904 910 886 q 875 953 875 922 q 893 1002 875 982 q 950 1022 911 1022 q 1035 925 1035 1022 m 496 38 q 732 160 651 38 q 813 486 813 283 q 732 812 813 689 q 496 935 651 935 q 260 812 340 935 q 181 486 181 689 q 260 160 181 282 q 496 38 340 38 z "},"Ő":{"ha":993,"x_min":51,"x_max":942,"o":"m 292 1122 l 450 1269 q 513 1303 483 1303 q 545 1291 533 1303 q 557 1264 557 1279 q 511 1206 557 1232 l 314 1090 l 292 1122 m 567 1122 l 725 1269 q 751 1292 735 1281 q 788 1303 768 1303 q 820 1291 808 1303 q 832 1264 832 1279 q 786 1206 832 1232 l 589 1090 l 567 1122 m 496 -14 q 166 118 281 -14 q 51 486 51 250 q 166 853 51 721 q 496 986 281 986 q 826 853 710 986 q 942 486 942 721 q 826 119 942 251 q 496 -14 710 -14 m 496 38 q 732 160 651 38 q 813 486 813 283 q 732 812 813 689 q 496 935 651 935 q 260 812 340 935 q 181 486 181 689 q 260 160 181 282 q 496 38 340 38 z "},"Ō":{"ha":993,"x_min":51,"x_max":942,"o":"m 263 1156 l 725 1156 l 725 1107 l 263 1107 l 263 1156 m 496 -14 q 166 118 281 -14 q 51 486 51 250 q 166 853 51 721 q 496 986 281 986 q 826 853 710 986 q 942 486 942 721 q 826 119 942 251 q 496 -14 710 -14 m 496 38 q 732 160 651 38 q 813 486 813 283 q 732 812 813 689 q 496 935 651 935 q 260 812 340 935 q 181 486 181 689 q 260 160 181 282 q 496 38 340 38 z "},"Ø":{"ha":993,"x_min":51,"x_max":942,"o":"m 797 882 q 905 717 868 817 q 942 486 942 617 q 826 119 942 251 q 496 -14 710 -14 q 225 64 335 -14 l 151 -42 l 110 -11 l 186 97 q 85 261 119 163 q 51 486 51 360 q 166 853 51 721 q 496 986 281 986 q 756 915 649 986 l 814 1000 l 858 969 l 797 882 m 181 486 q 246 183 181 300 l 706 844 q 496 935 626 935 q 260 812 340 935 q 181 486 181 689 m 496 38 q 732 160 651 38 q 813 486 813 283 q 740 800 813 682 l 276 138 q 496 38 357 38 z "},"Ǿ":{"ha":993,"x_min":51,"x_max":942,"o":"m 406 1092 l 383 1124 l 542 1271 q 604 1303 574 1303 q 636 1292 625 1303 q 647 1265 647 1281 q 603 1206 647 1233 l 406 1092 m 797 882 q 905 717 868 817 q 942 486 942 617 q 826 119 942 251 q 496 -14 710 -14 q 225 64 335 -14 l 151 -42 l 110 -11 l 186 97 q 85 261 119 163 q 51 486 51 360 q 166 853 51 721 q 496 986 281 986 q 756 915 649 986 l 814 1000 l 858 969 l 797 882 m 181 486 q 246 183 181 300 l 706 844 q 496 935 626 935 q 260 812 340 935 q 181 486 181 689 m 496 38 q 732 160 651 38 q 813 486 813 283 q 740 800 813 682 l 276 138 q 496 38 357 38 z "},"Õ":{"ha":993,"x_min":51,"x_max":942,"o":"m 258 1092 q 303 1197 268 1163 q 394 1231 339 1231 q 451 1219 424 1231 q 514 1188 478 1208 q 560 1163 540 1171 q 597 1154 579 1154 q 653 1174 629 1154 q 688 1238 678 1194 l 732 1238 q 688 1131 722 1169 q 594 1093 654 1093 q 548 1103 571 1093 q 482 1135 525 1113 q 431 1162 451 1153 q 392 1171 410 1171 q 336 1149 360 1171 q 304 1092 313 1128 l 258 1092 m 496 -14 q 166 118 281 -14 q 51 486 51 250 q 166 853 51 721 q 496 986 281 986 q 826 853 710 986 q 942 486 942 721 q 826 119 942 251 q 496 -14 710 -14 m 496 38 q 732 160 651 38 q 813 486 813 283 q 732 812 813 689 q 496 935 651 935 q 260 812 340 935 q 181 486 181 689 q 260 160 181 282 q 496 38 340 38 z "},"Œ":{"ha":1392,"x_min":51,"x_max":1325,"o":"m 478 -14 q 242 51 338 -14 q 99 228 146 115 q 51 486 51 340 q 99 743 51 631 q 242 921 146 856 q 478 986 338 986 q 711 907 621 986 l 711 972 l 1307 972 l 1307 769 l 1276 769 q 1253 840 1265 789 q 1239 921 1242 892 l 840 921 l 840 524 l 1131 524 q 1156 639 1139 599 l 1178 639 l 1178 358 l 1156 358 q 1131 474 1139 401 l 840 474 l 840 49 l 1243 49 q 1264 129 1246 79 q 1296 200 1282 179 l 1325 200 l 1306 0 l 711 0 l 711 61 q 609 4 665 22 q 478 -14 553 -14 m 496 38 q 711 139 631 38 l 711 831 q 619 906 675 878 q 496 935 563 935 q 262 812 342 935 q 182 486 182 689 q 262 160 182 282 q 496 38 342 38 z "},"P":{"ha":846,"x_min":50,"x_max":803,"o":"m 50 17 q 110 32 76 25 q 163 42 143 39 l 163 929 q 53 956 103 939 l 53 972 l 467 972 q 724 898 646 972 q 803 683 803 824 q 727 467 803 550 q 501 385 651 385 l 292 385 l 292 42 q 404 15 350 33 l 404 0 l 50 0 l 50 17 m 474 433 q 626 503 576 433 q 676 685 676 572 q 626 858 676 796 q 474 921 576 921 l 292 921 l 292 433 l 474 433 z "},"Þ":{"ha":846,"x_min":50,"x_max":804,"o":"m 50 17 q 164 42 117 36 l 164 929 q 53 956 107 938 l 53 972 l 292 972 l 292 781 l 501 781 q 732 703 660 781 q 804 493 804 625 q 728 277 804 360 q 503 194 653 194 l 292 194 l 292 42 q 404 15 347 33 l 404 0 l 50 0 l 50 17 m 474 243 q 627 313 578 243 q 676 494 676 382 q 626 669 676 607 q 469 732 575 732 l 292 732 l 292 243 l 474 243 z "},"Q":{"ha":993,"x_min":51,"x_max":942,"o":"m 582 -8 q 660 -124 597 -79 q 821 -176 722 -168 l 821 -221 q 574 -155 664 -208 q 460 -12 483 -101 q 156 130 261 -1 q 51 486 51 261 q 166 853 51 721 q 496 986 281 986 q 826 853 710 986 q 942 486 942 721 q 849 147 942 276 q 582 -8 757 18 m 181 486 q 260 160 181 283 q 496 38 340 38 q 732 160 651 38 q 813 486 813 283 q 732 812 813 689 q 496 935 651 935 q 261 812 342 935 q 181 486 181 689 z "},"R":{"ha":928,"x_min":56,"x_max":893,"o":"m 792 42 q 893 17 863 29 l 893 0 l 690 0 l 463 417 l 297 417 l 297 42 q 410 15 351 33 l 410 0 l 56 0 l 56 17 q 113 32 81 25 q 168 42 144 39 l 168 929 q 58 956 110 938 l 58 972 l 515 972 q 744 900 674 972 q 814 697 814 828 q 753 508 814 581 q 576 421 693 436 l 792 42 m 297 467 l 479 467 q 636 528 586 467 q 686 699 686 589 q 636 865 686 808 q 479 921 586 921 l 297 921 l 297 467 z "},"Ŕ":{"ha":928,"x_min":56,"x_max":893,"o":"m 354 1092 l 332 1124 l 490 1271 q 553 1303 522 1303 q 585 1292 574 1303 q 596 1265 596 1281 q 551 1206 596 1233 l 354 1092 m 792 42 q 893 17 863 29 l 893 0 l 690 0 l 463 417 l 297 417 l 297 42 q 410 15 351 33 l 410 0 l 56 0 l 56 17 q 113 32 81 25 q 168 42 144 39 l 168 929 q 58 956 110 938 l 58 972 l 515 972 q 744 900 674 972 q 814 697 814 828 q 753 508 814 581 q 576 421 693 436 l 792 42 m 297 467 l 479 467 q 636 528 586 467 q 686 699 686 589 q 636 865 686 808 q 479 921 586 921 l 297 921 l 297 467 z "},"Ř":{"ha":928,"x_min":56,"x_max":893,"o":"m 426 1092 q 343 1182 397 1132 q 244 1263 289 1232 l 296 1307 q 382 1234 338 1276 q 453 1156 426 1192 l 460 1156 q 530 1234 486 1192 q 615 1307 574 1276 l 668 1263 q 569 1183 624 1233 q 486 1092 515 1133 l 426 1092 m 792 42 q 893 17 863 29 l 893 0 l 690 0 l 463 417 l 297 417 l 297 42 q 410 15 351 33 l 410 0 l 56 0 l 56 17 q 113 32 81 25 q 168 42 144 39 l 168 929 q 58 956 110 938 l 58 972 l 515 972 q 744 900 674 972 q 814 697 814 828 q 753 508 814 581 q 576 421 693 436 l 792 42 m 297 467 l 479 467 q 636 528 586 467 q 686 699 686 589 q 636 865 686 808 q 479 921 586 921 l 297 921 l 297 467 z "},"Ŗ":{"ha":928,"x_min":56,"x_max":893,"o":"m 792 42 q 893 17 863 29 l 893 0 l 690 0 l 463 417 l 297 417 l 297 42 q 410 15 351 33 l 410 0 l 56 0 l 56 17 q 113 32 81 25 q 168 42 144 39 l 168 929 q 58 956 110 938 l 58 972 l 515 972 q 744 900 674 972 q 814 697 814 828 q 753 508 814 581 q 576 421 693 436 l 792 42 m 297 467 l 479 467 q 636 528 586 467 q 686 699 686 589 q 636 865 686 808 q 479 921 586 921 l 297 921 l 297 467 m 486 -96 q 549 -121 529 -96 q 569 -187 569 -146 q 541 -312 569 -246 q 469 -419 513 -379 l 425 -385 q 470 -313 451 -354 q 493 -231 489 -272 q 479 -232 489 -232 q 431 -213 450 -232 q 411 -164 411 -194 q 433 -114 411 -132 q 486 -96 456 -96 z "},"Ṛ":{"ha":928,"x_min":56,"x_max":893,"o":"m 792 42 q 893 17 863 29 l 893 0 l 690 0 l 463 417 l 297 417 l 297 42 q 410 15 351 33 l 410 0 l 56 0 l 56 17 q 113 32 81 25 q 168 42 144 39 l 168 929 q 58 956 110 938 l 58 972 l 515 972 q 744 900 674 972 q 814 697 814 828 q 753 508 814 581 q 576 421 693 436 l 792 42 m 297 467 l 479 467 q 636 528 586 467 q 686 699 686 589 q 636 865 686 808 q 479 921 586 921 l 297 921 l 297 467 m 479 -82 q 524 -100 507 -82 q 542 -147 542 -118 q 524 -192 542 -175 q 479 -210 507 -210 q 434 -192 451 -210 q 417 -147 417 -175 q 434 -100 417 -118 q 479 -82 451 -82 z "},"Ṝ":{"ha":928,"x_min":56,"x_max":893,"o":"m 658 1090 l 167 1090 l 167 1139 l 658 1139 l 658 1090 m 792 42 q 893 17 863 29 l 893 0 l 690 0 l 463 417 l 297 417 l 297 42 q 410 15 351 33 l 410 0 l 56 0 l 56 17 q 113 32 81 25 q 168 42 144 39 l 168 929 q 58 956 110 938 l 58 972 l 515 972 q 744 900 674 972 q 814 697 814 828 q 753 508 814 581 q 576 421 693 436 l 792 42 m 297 467 l 479 467 q 636 528 586 467 q 686 699 686 589 q 636 865 686 808 q 479 921 586 921 l 297 921 l 297 467 m 479 -82 q 526 -100 508 -82 q 543 -147 543 -118 q 526 -192 543 -175 q 479 -210 508 -210 q 435 -192 453 -210 q 418 -147 418 -175 q 435 -100 418 -118 q 479 -82 451 -82 z "},"Ṟ":{"ha":928,"x_min":56,"x_max":893,"o":"m 792 42 q 893 17 863 29 l 893 0 l 690 0 l 463 417 l 297 417 l 297 42 q 410 15 351 33 l 410 0 l 56 0 l 56 17 q 113 32 81 25 q 168 42 144 39 l 168 929 q 58 956 110 938 l 58 972 l 515 972 q 744 900 674 972 q 814 697 814 828 q 753 508 814 581 q 576 421 693 436 l 792 42 m 297 467 l 479 467 q 636 528 586 467 q 686 699 686 589 q 636 865 686 808 q 479 921 586 921 l 297 921 l 297 467 m 228 -96 l 690 -96 l 690 -144 l 228 -144 l 228 -96 z "},"S":{"ha":757,"x_min":47,"x_max":708,"o":"m 372 -14 q 178 22 264 -14 q 47 114 93 57 l 61 303 l 93 303 q 118 132 106 268 q 211 63 154 89 q 340 38 268 38 q 508 90 439 38 q 578 236 578 142 q 544 342 578 299 q 463 414 511 386 q 332 478 414 442 q 190 547 243 517 q 101 628 138 578 q 64 754 64 679 q 151 927 64 868 q 388 986 239 986 q 674 886 578 986 l 660 724 l 628 724 q 601 874 610 775 q 523 919 569 903 q 419 935 476 935 q 251 893 308 935 q 194 772 194 851 q 223 692 194 726 q 294 634 251 658 q 410 578 336 610 q 565 501 506 536 q 666 405 624 465 q 708 256 708 344 q 665 113 708 174 q 544 19 621 51 q 372 -14 468 -14 z "},"Ś":{"ha":757,"x_min":47,"x_max":708,"o":"m 275 1124 l 433 1271 q 496 1303 465 1303 q 528 1292 517 1303 q 539 1265 539 1281 q 494 1206 539 1233 l 297 1092 l 275 1124 m 372 -14 q 178 22 264 -14 q 47 114 93 57 l 61 303 l 93 303 q 118 132 106 268 q 211 63 154 89 q 340 38 268 38 q 508 90 439 38 q 578 236 578 142 q 544 342 578 299 q 463 414 511 386 q 332 478 414 442 q 190 547 243 517 q 101 628 138 578 q 64 754 64 679 q 151 927 64 868 q 388 986 239 986 q 674 886 578 986 l 660 724 l 628 724 q 601 874 610 775 q 523 919 569 903 q 419 935 476 935 q 251 893 308 935 q 194 772 194 851 q 223 692 194 726 q 294 634 251 658 q 410 578 336 610 q 565 501 506 536 q 666 405 624 465 q 708 256 708 344 q 665 113 708 174 q 544 19 621 51 q 372 -14 468 -14 z "},"Š":{"ha":757,"x_min":47,"x_max":708,"o":"m 347 1092 q 264 1182 318 1132 q 165 1263 210 1232 l 217 1307 q 303 1234 258 1276 q 374 1156 347 1192 l 381 1156 q 451 1234 407 1192 q 536 1307 494 1276 l 589 1263 q 490 1183 544 1233 q 407 1092 436 1133 l 347 1092 m 372 -14 q 178 22 264 -14 q 47 114 93 57 l 61 303 l 93 303 q 118 132 106 268 q 211 63 154 89 q 340 38 268 38 q 508 90 439 38 q 578 236 578 142 q 544 342 578 299 q 463 414 511 386 q 332 478 414 442 q 190 547 243 517 q 101 628 138 578 q 64 754 64 679 q 151 927 64 868 q 388 986 239 986 q 674 886 578 986 l 660 724 l 628 724 q 601 874 610 775 q 523 919 569 903 q 419 935 476 935 q 251 893 308 935 q 194 772 194 851 q 223 692 194 726 q 294 634 251 658 q 410 578 336 610 q 565 501 506 536 q 666 405 624 465 q 708 256 708 344 q 665 113 708 174 q 544 19 621 51 q 372 -14 468 -14 z "},"Ş":{"ha":757,"x_min":47,"x_max":708,"o":"m 708 256 q 625 69 708 140 q 408 -12 542 -3 l 372 -90 q 481 -113 443 -90 q 519 -183 519 -136 q 473 -273 519 -242 q 353 -304 426 -304 q 236 -279 286 -304 l 258 -239 q 346 -256 299 -256 q 422 -237 393 -256 q 450 -183 450 -219 q 426 -144 450 -157 q 368 -132 401 -132 q 333 -135 353 -132 l 303 -96 l 344 -14 q 167 26 246 -8 q 47 114 89 61 l 61 303 l 93 303 q 118 132 106 268 q 211 63 154 89 q 340 38 268 38 q 508 90 439 38 q 578 236 578 142 q 544 342 578 299 q 463 414 511 386 q 332 478 414 442 q 190 547 243 517 q 101 628 138 578 q 64 754 64 679 q 151 927 64 868 q 388 986 239 986 q 674 886 578 986 l 660 724 l 628 724 q 601 874 610 775 q 523 919 569 903 q 419 935 476 935 q 251 893 308 935 q 194 772 194 851 q 223 692 194 726 q 294 634 251 658 q 410 578 336 610 q 565 501 506 536 q 666 405 624 465 q 708 256 708 344 z "},"Ŝ":{"ha":757,"x_min":47,"x_max":708,"o":"m 165 1128 q 264 1208 210 1158 q 347 1297 318 1257 l 407 1297 q 490 1207 436 1257 q 589 1128 544 1157 l 536 1083 q 451 1156 494 1114 q 381 1235 407 1199 l 374 1235 q 303 1156 347 1199 q 217 1083 258 1114 l 165 1128 m 372 -14 q 178 22 264 -14 q 47 114 93 57 l 61 303 l 93 303 q 118 132 106 268 q 211 63 154 89 q 340 38 268 38 q 508 90 439 38 q 578 236 578 142 q 544 342 578 299 q 463 414 511 386 q 332 478 414 442 q 190 547 243 517 q 101 628 138 578 q 64 754 64 679 q 151 927 64 868 q 388 986 239 986 q 674 886 578 986 l 660 724 l 628 724 q 601 874 610 775 q 523 919 569 903 q 419 935 476 935 q 251 893 308 935 q 194 772 194 851 q 223 692 194 726 q 294 634 251 658 q 410 578 336 610 q 565 501 506 536 q 666 405 624 465 q 708 256 708 344 q 665 113 708 174 q 544 19 621 51 q 372 -14 468 -14 z "},"Ș":{"ha":757,"x_min":47,"x_max":708,"o":"m 372 -14 q 178 22 264 -14 q 47 114 93 57 l 61 303 l 93 303 q 118 132 106 268 q 211 63 154 89 q 340 38 268 38 q 508 90 439 38 q 578 236 578 142 q 544 342 578 299 q 463 414 511 386 q 332 478 414 442 q 190 547 243 517 q 101 628 138 578 q 64 754 64 679 q 151 927 64 868 q 388 986 239 986 q 674 886 578 986 l 660 724 l 628 724 q 601 874 610 775 q 523 919 569 903 q 419 935 476 935 q 251 893 308 935 q 194 772 194 851 q 223 692 194 726 q 294 634 251 658 q 410 578 336 610 q 565 501 506 536 q 666 405 624 465 q 708 256 708 344 q 665 113 708 174 q 544 19 621 51 q 372 -14 468 -14 m 313 -371 q 358 -298 339 -339 q 382 -215 378 -257 q 367 -218 376 -218 q 318 -198 339 -218 q 297 -149 297 -178 q 319 -96 297 -117 q 374 -75 342 -75 q 439 -102 417 -75 q 461 -171 461 -129 q 431 -296 461 -228 q 358 -406 401 -364 l 313 -371 z "},"Ṡ":{"ha":757,"x_min":47,"x_max":708,"o":"m 392 1090 q 346 1108 363 1090 q 329 1153 329 1125 q 346 1200 329 1182 q 392 1218 363 1218 q 436 1200 419 1218 q 453 1153 453 1182 q 435 1108 453 1125 q 392 1090 418 1090 m 372 -14 q 178 22 264 -14 q 47 114 93 57 l 61 303 l 93 303 q 118 132 106 268 q 211 63 154 89 q 340 38 268 38 q 508 90 439 38 q 578 236 578 142 q 544 342 578 299 q 463 414 511 386 q 332 478 414 442 q 190 547 243 517 q 101 628 138 578 q 64 754 64 679 q 151 927 64 868 q 388 986 239 986 q 674 886 578 986 l 660 724 l 628 724 q 601 874 610 775 q 523 919 569 903 q 419 935 476 935 q 251 893 308 935 q 194 772 194 851 q 223 692 194 726 q 294 634 251 658 q 410 578 336 610 q 565 501 506 536 q 666 405 624 465 q 708 256 708 344 q 665 113 708 174 q 544 19 621 51 q 372 -14 468 -14 z "},"Ṣ":{"ha":757,"x_min":47,"x_max":708,"o":"m 372 -14 q 178 22 264 -14 q 47 114 93 57 l 61 303 l 93 303 q 118 132 106 268 q 211 63 154 89 q 340 38 268 38 q 508 90 439 38 q 578 236 578 142 q 544 342 578 299 q 463 414 511 386 q 332 478 414 442 q 190 547 243 517 q 101 628 138 578 q 64 754 64 679 q 151 927 64 868 q 388 986 239 986 q 674 886 578 986 l 660 724 l 628 724 q 601 874 610 775 q 523 919 569 903 q 419 935 476 935 q 251 893 308 935 q 194 772 194 851 q 223 692 194 726 q 294 634 251 658 q 410 578 336 610 q 565 501 506 536 q 666 405 624 465 q 708 256 708 344 q 665 113 708 174 q 544 19 621 51 q 372 -14 468 -14 m 374 -210 q 328 -192 346 -210 q 311 -147 311 -175 q 328 -100 311 -118 q 374 -82 346 -82 q 419 -100 401 -82 q 436 -147 436 -118 q 419 -192 436 -175 q 374 -210 401 -210 z "},"ẞ":{"ha":979,"x_min":11,"x_max":938,"o":"m 588 -14 q 385 19 468 -14 l 385 72 q 582 35 481 35 q 751 103 690 35 q 811 282 811 171 q 747 444 811 383 q 564 504 683 504 l 481 504 l 481 538 l 724 796 q 633 896 699 857 q 481 935 568 935 q 311 869 371 935 q 251 689 251 804 l 251 42 q 297 30 272 38 q 333 15 321 22 l 333 0 l 11 0 l 11 17 q 125 42 76 35 l 125 653 q 217 898 125 810 q 489 986 308 986 q 647 955 578 986 q 760 874 717 924 q 821 769 804 825 l 613 551 q 851 469 765 542 q 938 282 938 397 q 850 69 938 153 q 588 -14 763 -14 z "},"Ə":{"ha":988,"x_min":50,"x_max":936,"o":"m 431 986 q 698 922 583 986 q 874 742 813 857 q 936 478 936 626 q 810 113 936 239 q 464 -14 683 -14 q 232 46 325 -14 q 94 206 139 106 q 50 432 50 307 l 50 469 l 813 469 q 763 699 810 594 q 626 867 717 804 q 410 931 536 931 q 100 839 239 931 q 92 863 94 853 q 85 883 89 872 q 226 956 140 926 q 431 986 313 986 m 457 35 q 712 143 622 35 q 811 417 801 251 l 172 417 q 201 233 172 319 q 295 90 231 146 q 457 35 360 35 z "},"T":{"ha":888,"x_min":56,"x_max":831,"o":"m 261 17 q 379 42 308 29 l 379 921 l 122 921 q 108 831 119 889 q 85 754 96 774 l 56 754 l 56 972 l 831 972 l 831 754 l 801 754 q 778 831 790 774 q 764 921 767 889 l 507 921 l 507 42 q 625 15 575 31 l 625 0 l 261 0 l 261 17 z "},"Ŧ":{"ha":888,"x_min":56,"x_max":831,"o":"m 831 972 l 831 754 l 801 754 q 778 831 790 774 q 764 921 767 889 l 507 921 l 507 497 l 718 497 l 718 449 l 507 449 l 507 42 q 625 15 575 31 l 625 0 l 261 0 l 261 17 q 379 42 308 29 l 379 449 l 174 449 l 174 497 l 379 497 l 379 921 l 122 921 q 108 831 119 889 q 85 754 96 774 l 56 754 l 56 972 l 831 972 z "},"Ť":{"ha":888,"x_min":56,"x_max":831,"o":"m 411 1092 q 328 1182 382 1132 q 229 1263 274 1232 l 281 1307 q 367 1234 322 1276 q 438 1156 411 1192 l 444 1156 q 515 1234 471 1192 q 600 1307 558 1276 l 653 1263 q 554 1183 608 1233 q 471 1092 500 1133 l 411 1092 m 261 17 q 379 42 308 29 l 379 921 l 122 921 q 108 831 119 889 q 85 754 96 774 l 56 754 l 56 972 l 831 972 l 831 754 l 801 754 q 778 831 790 774 q 764 921 767 889 l 507 921 l 507 42 q 625 15 575 31 l 625 0 l 261 0 l 261 17 z "},"Ţ":{"ha":888,"x_min":56,"x_max":831,"o":"m 831 972 l 831 754 l 801 754 q 778 831 790 774 q 764 921 767 889 l 507 921 l 507 42 q 625 15 575 31 l 625 0 l 465 0 l 424 -90 q 444 -89 431 -89 q 539 -116 506 -90 q 572 -183 572 -142 q 526 -273 572 -242 q 406 -304 479 -304 q 288 -279 340 -304 l 310 -239 q 399 -256 350 -256 q 474 -237 446 -256 q 503 -183 503 -219 q 478 -144 503 -157 q 419 -132 454 -132 q 386 -135 406 -132 l 356 -96 l 403 0 l 261 0 l 261 17 q 379 42 308 29 l 379 921 l 122 921 q 108 831 119 889 q 85 754 96 774 l 56 754 l 56 972 l 831 972 z "},"Ț":{"ha":888,"x_min":56,"x_max":831,"o":"m 261 17 q 379 42 308 29 l 379 921 l 122 921 q 108 831 119 889 q 85 754 96 774 l 56 754 l 56 972 l 831 972 l 831 754 l 801 754 q 778 831 790 774 q 764 921 767 889 l 507 921 l 507 42 q 625 15 575 31 l 625 0 l 261 0 l 261 17 m 378 -385 q 423 -313 404 -354 q 446 -231 442 -272 q 432 -232 442 -232 q 383 -213 403 -232 q 364 -164 364 -194 q 386 -114 364 -132 q 439 -96 408 -96 q 502 -121 482 -96 q 522 -187 522 -146 q 494 -312 522 -246 q 422 -419 465 -379 l 378 -385 z "},"Ṭ":{"ha":888,"x_min":56,"x_max":831,"o":"m 261 17 q 379 42 308 29 l 379 921 l 122 921 q 108 831 119 889 q 85 754 96 774 l 56 754 l 56 972 l 831 972 l 831 754 l 801 754 q 778 831 790 774 q 764 921 767 889 l 507 921 l 507 42 q 625 15 575 31 l 625 0 l 261 0 l 261 17 m 442 -210 q 397 -192 414 -210 q 379 -147 379 -175 q 397 -100 379 -118 q 442 -82 414 -82 q 487 -100 469 -82 q 504 -147 504 -118 q 487 -192 504 -175 q 442 -210 469 -210 z "},"Ṯ":{"ha":888,"x_min":56,"x_max":831,"o":"m 261 17 q 379 42 308 29 l 379 921 l 122 921 q 108 831 119 889 q 85 754 96 774 l 56 754 l 56 972 l 831 972 l 831 754 l 801 754 q 778 831 790 774 q 764 921 767 889 l 507 921 l 507 42 q 625 15 575 31 l 625 0 l 261 0 l 261 17 m 210 -96 l 672 -96 l 672 -144 l 210 -144 l 210 -96 z "},"U":{"ha":1069,"x_min":53,"x_max":1017,"o":"m 539 -14 q 165 296 165 -14 l 165 929 q 53 956 101 939 l 53 972 l 406 972 l 406 954 q 293 929 357 938 l 293 282 q 571 38 293 38 q 767 95 693 38 q 842 282 842 153 l 842 931 q 728 956 785 936 l 728 972 l 1017 972 l 1017 956 q 903 928 953 935 l 903 296 q 539 -14 903 -14 z "},"Ú":{"ha":1069,"x_min":53,"x_max":1017,"o":"m 435 1124 l 593 1271 q 656 1303 625 1303 q 688 1292 676 1303 q 699 1265 699 1281 q 654 1206 699 1233 l 457 1092 l 435 1124 m 539 -14 q 165 296 165 -14 l 165 929 q 53 956 101 939 l 53 972 l 406 972 l 406 954 q 293 929 357 938 l 293 282 q 571 38 293 38 q 767 95 693 38 q 842 282 842 153 l 842 931 q 728 956 785 936 l 728 972 l 1017 972 l 1017 956 q 903 928 953 935 l 903 296 q 539 -14 903 -14 z "},"Ŭ":{"ha":1069,"x_min":53,"x_max":1017,"o":"m 542 1076 q 393 1119 450 1076 q 325 1249 336 1163 l 403 1249 q 449 1153 410 1178 q 542 1128 488 1128 q 634 1153 596 1128 q 679 1249 672 1178 l 757 1249 q 690 1119 747 1163 q 542 1076 632 1076 m 539 -14 q 165 296 165 -14 l 165 929 q 53 956 101 939 l 53 972 l 406 972 l 406 954 q 293 929 357 938 l 293 282 q 571 38 293 38 q 767 95 693 38 q 842 282 842 153 l 842 931 q 728 956 785 936 l 728 972 l 1017 972 l 1017 956 q 903 928 953 935 l 903 296 q 539 -14 903 -14 z "},"Ǔ":{"ha":1069,"x_min":53,"x_max":1017,"o":"m 501 1092 q 418 1182 472 1132 q 319 1263 364 1232 l 371 1307 q 457 1234 413 1276 q 528 1156 501 1192 l 535 1156 q 605 1234 561 1192 q 690 1307 649 1276 l 743 1263 q 644 1183 699 1233 q 561 1092 590 1133 l 501 1092 m 539 -14 q 165 296 165 -14 l 165 929 q 53 956 101 939 l 53 972 l 406 972 l 406 954 q 293 929 357 938 l 293 282 q 571 38 293 38 q 767 95 693 38 q 842 282 842 153 l 842 931 q 728 956 785 936 l 728 972 l 1017 972 l 1017 956 q 903 928 953 935 l 903 296 q 539 -14 903 -14 z "},"Û":{"ha":1069,"x_min":53,"x_max":1017,"o":"m 322 1128 q 421 1208 367 1158 q 504 1297 475 1257 l 564 1297 q 647 1207 593 1257 q 746 1128 701 1157 l 693 1083 q 608 1156 651 1114 q 538 1235 564 1199 l 531 1235 q 460 1156 504 1199 q 374 1083 415 1114 l 322 1128 m 539 -14 q 165 296 165 -14 l 165 929 q 53 956 101 939 l 53 972 l 406 972 l 406 954 q 293 929 357 938 l 293 282 q 571 38 293 38 q 767 95 693 38 q 842 282 842 153 l 842 931 q 728 956 785 936 l 728 972 l 1017 972 l 1017 956 q 903 928 953 935 l 903 296 q 539 -14 903 -14 z "},"Ü":{"ha":1069,"x_min":53,"x_max":1017,"o":"m 396 1090 q 352 1108 369 1090 q 335 1153 335 1125 q 351 1200 335 1182 q 396 1218 368 1218 q 441 1200 424 1218 q 458 1153 458 1182 q 441 1108 458 1125 q 396 1090 424 1090 m 701 1090 q 657 1108 674 1090 q 640 1153 640 1125 q 657 1200 640 1182 q 701 1218 674 1218 q 747 1200 729 1218 q 764 1153 764 1182 q 747 1108 764 1125 q 701 1090 729 1090 m 539 -14 q 165 296 165 -14 l 165 929 q 53 956 101 939 l 53 972 l 406 972 l 406 954 q 293 929 357 938 l 293 282 q 571 38 293 38 q 767 95 693 38 q 842 282 842 153 l 842 931 q 728 956 785 936 l 728 972 l 1017 972 l 1017 956 q 903 928 953 935 l 903 296 q 539 -14 903 -14 z "},"Ǘ":{"ha":1069,"x_min":53,"x_max":1017,"o":"m 518 1283 l 660 1417 q 688 1442 675 1432 q 721 1451 701 1451 q 753 1439 740 1451 q 765 1410 765 1426 q 719 1353 765 1378 l 540 1251 l 518 1283 m 401 1090 q 357 1108 374 1090 q 340 1153 340 1125 q 357 1199 340 1181 q 401 1217 374 1217 q 447 1199 429 1217 q 464 1153 464 1181 q 447 1108 464 1125 q 401 1090 429 1090 m 707 1090 q 662 1108 679 1090 q 644 1153 644 1125 q 662 1199 644 1181 q 707 1217 679 1217 q 752 1199 735 1217 q 769 1153 769 1181 q 752 1108 769 1125 q 707 1090 735 1090 m 539 -14 q 165 296 165 -14 l 165 929 q 53 956 101 939 l 53 972 l 406 972 l 406 954 q 293 929 357 938 l 293 282 q 571 38 293 38 q 767 95 693 38 q 842 282 842 153 l 842 931 q 728 956 785 936 l 728 972 l 1017 972 l 1017 956 q 903 928 953 935 l 903 296 q 539 -14 903 -14 z "},"Ǚ":{"ha":1069,"x_min":53,"x_max":1017,"o":"m 529 1242 q 449 1328 500 1282 q 350 1407 399 1374 l 403 1450 q 488 1380 446 1418 q 556 1307 529 1342 l 561 1307 q 629 1380 588 1342 q 714 1450 671 1418 l 767 1407 q 667 1328 718 1374 q 588 1242 617 1282 l 529 1242 m 406 1089 q 360 1107 378 1089 q 343 1153 343 1125 q 360 1199 343 1181 q 406 1217 378 1217 q 449 1199 432 1217 q 467 1153 467 1181 q 449 1107 467 1125 q 406 1089 432 1089 m 710 1089 q 666 1107 683 1089 q 649 1153 649 1125 q 666 1199 649 1181 q 710 1217 683 1217 q 756 1199 739 1217 q 774 1153 774 1181 q 756 1107 774 1125 q 710 1089 739 1089 m 539 -14 q 165 296 165 -14 l 165 929 q 53 956 101 939 l 53 972 l 406 972 l 406 954 q 293 929 357 938 l 293 282 q 571 38 293 38 q 767 95 693 38 q 842 282 842 153 l 842 931 q 728 956 785 936 l 728 972 l 1017 972 l 1017 956 q 903 928 953 935 l 903 296 q 539 -14 903 -14 z "},"Ǜ":{"ha":1069,"x_min":53,"x_max":1017,"o":"m 417 1317 q 372 1375 372 1342 q 384 1402 372 1390 q 415 1414 396 1414 q 478 1382 446 1414 l 613 1253 l 590 1221 l 417 1317 m 401 1090 q 356 1108 374 1090 q 339 1153 339 1125 q 356 1199 339 1181 q 401 1217 374 1217 q 445 1199 428 1217 q 463 1153 463 1181 q 446 1108 463 1125 q 401 1090 429 1090 m 706 1090 q 661 1108 678 1090 q 644 1153 644 1125 q 662 1199 644 1181 q 706 1217 679 1217 q 752 1199 735 1217 q 769 1153 769 1181 q 752 1108 769 1125 q 706 1090 735 1090 m 539 -14 q 165 296 165 -14 l 165 929 q 53 956 101 939 l 53 972 l 406 972 l 406 954 q 293 929 357 938 l 293 282 q 571 38 293 38 q 767 95 693 38 q 842 282 842 153 l 842 931 q 728 956 785 936 l 728 972 l 1017 972 l 1017 956 q 903 928 953 935 l 903 296 q 539 -14 903 -14 z "},"Ǖ":{"ha":1069,"x_min":53,"x_max":1017,"o":"m 331 1357 l 776 1357 l 776 1308 l 331 1308 l 331 1357 m 401 1090 q 357 1108 374 1090 q 340 1153 340 1125 q 357 1199 340 1181 q 401 1217 374 1217 q 447 1199 429 1217 q 464 1153 464 1181 q 447 1108 464 1125 q 401 1090 429 1090 m 707 1090 q 662 1108 679 1090 q 644 1153 644 1125 q 662 1199 644 1181 q 707 1217 679 1217 q 752 1199 735 1217 q 769 1153 769 1181 q 752 1108 769 1125 q 707 1090 735 1090 m 539 -14 q 165 296 165 -14 l 165 929 q 53 956 101 939 l 53 972 l 406 972 l 406 954 q 293 929 357 938 l 293 282 q 571 38 293 38 q 767 95 693 38 q 842 282 842 153 l 842 931 q 728 956 785 936 l 728 972 l 1017 972 l 1017 956 q 903 928 953 935 l 903 296 q 539 -14 903 -14 z "},"Ụ":{"ha":1069,"x_min":53,"x_max":1017,"o":"m 539 -14 q 165 296 165 -14 l 165 929 q 53 956 101 939 l 53 972 l 406 972 l 406 954 q 293 929 357 938 l 293 282 q 571 38 293 38 q 767 95 693 38 q 842 282 842 153 l 842 931 q 728 956 785 936 l 728 972 l 1017 972 l 1017 956 q 903 928 953 935 l 903 296 q 539 -14 903 -14 m 546 -210 q 501 -192 518 -210 q 483 -147 483 -175 q 501 -100 483 -118 q 546 -82 518 -82 q 591 -100 574 -82 q 608 -147 608 -118 q 591 -192 608 -175 q 546 -210 574 -210 z "},"Ù":{"ha":1069,"x_min":53,"x_max":1017,"o":"m 449 1206 q 401 1265 401 1233 q 413 1292 401 1281 q 446 1303 425 1303 q 507 1272 476 1303 l 668 1124 l 646 1092 l 449 1206 m 539 -14 q 165 296 165 -14 l 165 929 q 53 956 101 939 l 53 972 l 406 972 l 406 954 q 293 929 357 938 l 293 282 q 571 38 293 38 q 767 95 693 38 q 842 282 842 153 l 842 931 q 728 956 785 936 l 728 972 l 1017 972 l 1017 956 q 903 928 953 935 l 903 296 q 539 -14 903 -14 z "},"Ủ":{"ha":1069,"x_min":53,"x_max":1017,"o":"m 521 1207 l 554 1207 q 619 1226 596 1207 q 642 1279 642 1246 q 620 1325 642 1307 q 560 1343 599 1343 q 479 1321 519 1343 l 469 1363 q 576 1386 517 1386 q 673 1358 633 1386 q 713 1276 713 1331 q 682 1203 713 1229 q 596 1171 651 1176 l 582 1082 l 528 1082 l 521 1207 m 539 -14 q 165 296 165 -14 l 165 929 q 53 956 101 939 l 53 972 l 406 972 l 406 954 q 293 929 357 938 l 293 282 q 571 38 293 38 q 767 95 693 38 q 842 282 842 153 l 842 931 q 728 956 785 936 l 728 972 l 1017 972 l 1017 956 q 903 928 953 935 l 903 296 q 539 -14 903 -14 z "},"Ư":{"ha":1069,"x_min":53,"x_max":1128,"o":"m 539 -14 q 165 296 165 -14 l 165 929 q 53 956 101 939 l 53 972 l 406 972 l 406 954 q 293 929 357 938 l 293 282 q 571 38 293 38 q 767 95 693 38 q 842 282 842 153 l 842 931 q 728 956 785 936 l 728 972 l 915 972 q 1012 990 971 972 q 1058 1042 1053 1007 q 1032 1035 1049 1035 q 985 1053 1004 1035 q 967 1103 967 1072 q 987 1151 967 1131 q 1044 1172 1007 1172 q 1128 1081 1128 1172 q 1067 977 1128 1018 q 903 928 1006 936 l 903 296 q 539 -14 903 -14 z "},"Ứ":{"ha":1069,"x_min":53,"x_max":1128,"o":"m 460 1121 l 618 1268 q 681 1300 650 1300 q 713 1289 701 1300 q 724 1263 724 1278 q 679 1203 724 1231 l 482 1089 l 460 1121 m 539 -14 q 165 296 165 -14 l 165 929 q 53 956 101 939 l 53 972 l 406 972 l 406 954 q 293 929 357 938 l 293 282 q 571 38 293 38 q 767 95 693 38 q 842 282 842 153 l 842 931 q 728 956 785 936 l 728 972 l 915 972 q 1012 990 971 972 q 1058 1042 1053 1007 q 1032 1035 1049 1035 q 985 1053 1004 1035 q 967 1103 967 1072 q 987 1151 967 1131 q 1044 1172 1007 1172 q 1128 1081 1128 1172 q 1067 977 1128 1018 q 903 928 1006 936 l 903 296 q 539 -14 903 -14 z "},"Ự":{"ha":1069,"x_min":53,"x_max":1128,"o":"m 539 -14 q 165 296 165 -14 l 165 929 q 53 956 101 939 l 53 972 l 406 972 l 406 954 q 293 929 357 938 l 293 282 q 571 38 293 38 q 767 95 693 38 q 842 282 842 153 l 842 931 q 728 956 785 936 l 728 972 l 915 972 q 1012 990 971 972 q 1058 1042 1053 1007 q 1032 1035 1049 1035 q 985 1053 1004 1035 q 967 1103 967 1072 q 987 1151 967 1131 q 1044 1172 1007 1172 q 1128 1081 1128 1172 q 1067 977 1128 1018 q 903 928 1006 936 l 903 296 q 539 -14 903 -14 m 546 -210 q 501 -192 518 -210 q 483 -147 483 -175 q 501 -100 483 -118 q 546 -82 518 -82 q 591 -100 574 -82 q 608 -147 608 -118 q 591 -192 608 -175 q 546 -210 574 -210 z "},"Ừ":{"ha":1069,"x_min":53,"x_max":1128,"o":"m 453 1203 q 406 1263 406 1231 q 417 1289 406 1278 q 450 1300 429 1300 q 511 1269 481 1300 l 672 1121 l 650 1089 l 453 1203 m 539 -14 q 165 296 165 -14 l 165 929 q 53 956 101 939 l 53 972 l 406 972 l 406 954 q 293 929 357 938 l 293 282 q 571 38 293 38 q 767 95 693 38 q 842 282 842 153 l 842 931 q 728 956 785 936 l 728 972 l 915 972 q 1012 990 971 972 q 1058 1042 1053 1007 q 1032 1035 1049 1035 q 985 1053 1004 1035 q 967 1103 967 1072 q 987 1151 967 1131 q 1044 1172 1007 1172 q 1128 1081 1128 1172 q 1067 977 1128 1018 q 903 928 1006 936 l 903 296 q 539 -14 903 -14 z "},"Ử":{"ha":1069,"x_min":53,"x_max":1128,"o":"m 522 1207 l 556 1207 q 620 1226 597 1207 q 643 1279 643 1246 q 622 1325 643 1307 q 561 1343 600 1343 q 481 1321 521 1343 l 471 1363 q 578 1386 518 1386 q 674 1358 635 1386 q 714 1276 714 1331 q 683 1203 714 1229 q 597 1171 653 1176 l 583 1082 l 529 1082 l 522 1207 m 539 -14 q 165 296 165 -14 l 165 929 q 53 956 101 939 l 53 972 l 406 972 l 406 954 q 293 929 357 938 l 293 282 q 571 38 293 38 q 767 95 693 38 q 842 282 842 153 l 842 931 q 728 956 785 936 l 728 972 l 915 972 q 1012 990 971 972 q 1058 1042 1053 1007 q 1032 1035 1049 1035 q 985 1053 1004 1035 q 967 1103 967 1072 q 987 1151 967 1131 q 1044 1172 1007 1172 q 1128 1081 1128 1172 q 1067 977 1128 1018 q 903 928 1006 936 l 903 296 q 539 -14 903 -14 z "},"Ữ":{"ha":1069,"x_min":53,"x_max":1128,"o":"m 310 1083 q 355 1188 319 1154 q 446 1222 390 1222 q 502 1211 475 1222 q 565 1179 529 1200 q 611 1154 592 1163 q 649 1146 631 1146 q 705 1166 681 1146 q 739 1229 729 1186 l 783 1229 q 740 1123 774 1161 q 646 1085 706 1085 q 599 1094 622 1085 q 533 1126 576 1104 q 482 1153 503 1144 q 443 1163 461 1163 q 388 1141 411 1163 q 356 1083 364 1119 l 310 1083 m 539 -14 q 165 296 165 -14 l 165 929 q 53 956 101 939 l 53 972 l 406 972 l 406 954 q 293 929 357 938 l 293 282 q 571 38 293 38 q 767 95 693 38 q 842 282 842 153 l 842 931 q 728 956 785 936 l 728 972 l 915 972 q 1012 990 971 972 q 1058 1042 1053 1007 q 1032 1035 1049 1035 q 985 1053 1004 1035 q 967 1103 967 1072 q 987 1151 967 1131 q 1044 1172 1007 1172 q 1128 1081 1128 1172 q 1067 977 1128 1018 q 903 928 1006 936 l 903 296 q 539 -14 903 -14 z "},"Ű":{"ha":1069,"x_min":53,"x_max":1017,"o":"m 292 1122 l 450 1269 q 513 1303 483 1303 q 545 1291 533 1303 q 557 1264 557 1279 q 511 1206 557 1232 l 314 1090 l 292 1122 m 567 1122 l 725 1269 q 751 1292 735 1281 q 788 1303 768 1303 q 820 1291 808 1303 q 832 1264 832 1279 q 786 1206 832 1232 l 589 1090 l 567 1122 m 539 -14 q 165 296 165 -14 l 165 929 q 53 956 101 939 l 53 972 l 406 972 l 406 954 q 293 929 357 938 l 293 282 q 571 38 293 38 q 767 95 693 38 q 842 282 842 153 l 842 931 q 728 956 785 936 l 728 972 l 1017 972 l 1017 956 q 903 928 953 935 l 903 296 q 539 -14 903 -14 z "},"Ū":{"ha":1069,"x_min":53,"x_max":1017,"o":"m 301 1140 l 764 1140 l 764 1092 l 301 1092 l 301 1140 m 539 -14 q 165 296 165 -14 l 165 929 q 53 956 101 939 l 53 972 l 406 972 l 406 954 q 293 929 357 938 l 293 282 q 571 38 293 38 q 767 95 693 38 q 842 282 842 153 l 842 931 q 728 956 785 936 l 728 972 l 1017 972 l 1017 956 q 903 928 953 935 l 903 296 q 539 -14 903 -14 z "},"Ų":{"ha":1069,"x_min":53,"x_max":1017,"o":"m 1017 972 l 1017 956 q 903 928 953 935 l 903 296 q 665 -3 903 44 q 606 -59 629 -25 q 582 -128 582 -93 q 606 -181 582 -162 q 668 -199 631 -199 q 743 -179 706 -199 l 743 -236 q 626 -260 692 -260 q 522 -227 560 -260 q 485 -149 485 -194 q 508 -72 485 -108 q 572 -14 531 -36 l 539 -14 q 165 296 165 -14 l 165 929 q 53 956 101 939 l 53 972 l 406 972 l 406 954 q 293 929 357 938 l 293 282 q 571 38 293 38 q 767 95 693 38 q 842 282 842 153 l 842 931 q 728 956 785 936 l 728 972 l 1017 972 z "},"Ů":{"ha":1069,"x_min":53,"x_max":1017,"o":"m 535 1072 q 442 1106 478 1072 q 406 1193 406 1139 q 442 1283 406 1249 q 535 1317 478 1317 q 627 1283 592 1317 q 663 1193 663 1249 q 627 1106 663 1139 q 535 1072 592 1072 m 535 1117 q 591 1138 569 1117 q 613 1193 613 1158 q 591 1249 613 1228 q 535 1271 569 1271 q 477 1249 500 1271 q 454 1193 454 1228 q 477 1138 454 1158 q 535 1117 500 1117 m 539 -14 q 165 296 165 -14 l 165 929 q 53 956 101 939 l 53 972 l 406 972 l 406 954 q 293 929 357 938 l 293 282 q 571 38 293 38 q 767 95 693 38 q 842 282 842 153 l 842 931 q 728 956 785 936 l 728 972 l 1017 972 l 1017 956 q 903 928 953 935 l 903 296 q 539 -14 903 -14 z "},"Ũ":{"ha":1069,"x_min":53,"x_max":1017,"o":"m 297 1092 q 342 1197 307 1163 q 433 1231 378 1231 q 490 1219 463 1231 q 553 1188 517 1208 q 599 1163 579 1171 q 636 1154 618 1154 q 692 1174 668 1154 q 726 1238 717 1194 l 771 1238 q 727 1131 761 1169 q 633 1093 693 1093 q 587 1103 610 1093 q 521 1135 564 1113 q 469 1162 490 1153 q 431 1171 449 1171 q 375 1149 399 1171 q 343 1092 351 1128 l 297 1092 m 539 -14 q 165 296 165 -14 l 165 929 q 53 956 101 939 l 53 972 l 406 972 l 406 954 q 293 929 357 938 l 293 282 q 571 38 293 38 q 767 95 693 38 q 842 282 842 153 l 842 931 q 728 956 785 936 l 728 972 l 1017 972 l 1017 956 q 903 928 953 935 l 903 296 q 539 -14 903 -14 z "},"V":{"ha":1007,"x_min":24,"x_max":982,"o":"m 129 928 q 24 956 69 938 l 24 972 l 369 972 l 369 954 q 254 929 321 936 l 528 103 l 801 929 q 685 957 729 939 l 685 972 l 982 972 l 982 954 q 876 925 926 933 l 554 -7 l 451 -7 l 129 928 z "},"W":{"ha":1408,"x_min":24,"x_max":1383,"o":"m 131 926 q 24 956 83 935 l 24 972 l 368 972 l 368 954 q 254 928 321 935 l 443 156 l 686 925 l 749 925 l 1021 107 l 1238 933 q 1147 954 1199 940 l 1147 972 l 1383 972 l 1383 957 q 1301 932 1340 938 l 1054 -7 l 944 -7 l 694 744 l 458 -7 l 368 -7 l 131 926 z "},"Ẃ":{"ha":1408,"x_min":24,"x_max":1383,"o":"m 611 1124 l 769 1271 q 832 1303 801 1303 q 864 1292 853 1303 q 875 1265 875 1281 q 831 1206 875 1233 l 633 1092 l 611 1124 m 131 926 q 24 956 83 935 l 24 972 l 368 972 l 368 954 q 254 928 321 935 l 443 156 l 686 925 l 749 925 l 1021 107 l 1238 933 q 1147 954 1199 940 l 1147 972 l 1383 972 l 1383 957 q 1301 932 1340 938 l 1054 -7 l 944 -7 l 694 744 l 458 -7 l 368 -7 l 131 926 z "},"Ŵ":{"ha":1408,"x_min":24,"x_max":1383,"o":"m 510 1128 q 608 1208 554 1158 q 692 1297 663 1257 l 751 1297 q 835 1207 781 1257 q 933 1128 889 1157 l 881 1083 q 795 1156 839 1114 q 725 1235 751 1199 l 718 1235 q 647 1156 692 1199 q 561 1083 603 1114 l 510 1128 m 131 926 q 24 956 83 935 l 24 972 l 368 972 l 368 954 q 254 928 321 935 l 443 156 l 686 925 l 749 925 l 1021 107 l 1238 933 q 1147 954 1199 940 l 1147 972 l 1383 972 l 1383 957 q 1301 932 1340 938 l 1054 -7 l 944 -7 l 694 744 l 458 -7 l 368 -7 l 131 926 z "},"Ẅ":{"ha":1408,"x_min":24,"x_max":1383,"o":"m 567 1090 q 523 1108 540 1090 q 506 1153 506 1125 q 522 1200 506 1182 q 567 1218 539 1218 q 612 1200 594 1218 q 629 1153 629 1182 q 612 1108 629 1125 q 567 1090 594 1090 m 872 1090 q 828 1108 844 1090 q 811 1153 811 1125 q 828 1200 811 1182 q 872 1218 844 1218 q 917 1200 900 1218 q 935 1153 935 1182 q 917 1108 935 1125 q 872 1090 900 1090 m 131 926 q 24 956 83 935 l 24 972 l 368 972 l 368 954 q 254 928 321 935 l 443 156 l 686 925 l 749 925 l 1021 107 l 1238 933 q 1147 954 1199 940 l 1147 972 l 1383 972 l 1383 957 q 1301 932 1340 938 l 1054 -7 l 944 -7 l 694 744 l 458 -7 l 368 -7 l 131 926 z "},"Ẁ":{"ha":1408,"x_min":24,"x_max":1383,"o":"m 613 1206 q 565 1265 565 1233 q 577 1292 565 1281 q 610 1303 589 1303 q 671 1272 640 1303 l 832 1124 l 810 1092 l 613 1206 m 131 926 q 24 956 83 935 l 24 972 l 368 972 l 368 954 q 254 928 321 935 l 443 156 l 686 925 l 749 925 l 1021 107 l 1238 933 q 1147 954 1199 940 l 1147 972 l 1383 972 l 1383 957 q 1301 932 1340 938 l 1054 -7 l 944 -7 l 694 744 l 458 -7 l 368 -7 l 131 926 z "},"X":{"ha":956,"x_min":18,"x_max":942,"o":"m 840 43 q 942 17 894 32 l 942 0 l 594 0 l 594 14 q 717 44 653 39 l 457 446 l 161 39 q 251 15 210 29 l 251 0 l 18 0 l 18 17 q 94 39 49 29 l 426 493 l 147 926 q 47 954 92 938 l 47 972 l 393 972 l 393 953 q 271 926 335 932 l 492 583 l 746 931 q 657 956 694 940 l 657 972 l 892 972 l 892 956 q 811 931 843 936 l 524 535 l 840 43 z "},"Y":{"ha":986,"x_min":24,"x_max":961,"o":"m 321 15 q 433 42 385 36 l 433 419 l 131 926 q 24 954 76 935 l 24 972 l 372 972 l 372 953 q 254 926 313 932 l 522 475 l 807 931 q 718 956 767 939 l 718 972 l 961 972 l 961 953 q 885 932 929 939 l 561 418 l 561 42 q 675 15 618 33 l 675 0 l 321 0 l 321 15 z "},"Ý":{"ha":986,"x_min":24,"x_max":961,"o":"m 393 1124 l 551 1271 q 614 1303 583 1303 q 646 1292 635 1303 q 657 1265 657 1281 q 613 1206 657 1233 l 415 1092 l 393 1124 m 321 15 q 433 42 385 36 l 433 419 l 131 926 q 24 954 76 935 l 24 972 l 372 972 l 372 953 q 254 926 313 932 l 522 475 l 807 931 q 718 956 767 939 l 718 972 l 961 972 l 961 953 q 885 932 929 939 l 561 418 l 561 42 q 675 15 618 33 l 675 0 l 321 0 l 321 15 z "},"Ŷ":{"ha":986,"x_min":24,"x_max":961,"o":"m 283 1128 q 382 1208 328 1158 q 465 1297 436 1257 l 525 1297 q 608 1207 554 1257 q 707 1128 663 1157 l 654 1083 q 569 1156 613 1114 q 499 1235 525 1199 l 492 1235 q 421 1156 465 1199 q 335 1083 376 1114 l 283 1128 m 321 15 q 433 42 385 36 l 433 419 l 131 926 q 24 954 76 935 l 24 972 l 372 972 l 372 953 q 254 926 313 932 l 522 475 l 807 931 q 718 956 767 939 l 718 972 l 961 972 l 961 953 q 885 932 929 939 l 561 418 l 561 42 q 675 15 618 33 l 675 0 l 321 0 l 321 15 z "},"Ÿ":{"ha":986,"x_min":24,"x_max":961,"o":"m 361 1090 q 317 1108 335 1090 q 300 1153 300 1125 q 317 1200 300 1182 q 361 1218 333 1218 q 406 1200 389 1218 q 424 1153 424 1182 q 406 1108 424 1125 q 361 1090 389 1090 m 667 1090 q 622 1108 639 1090 q 606 1153 606 1125 q 622 1200 606 1182 q 667 1218 639 1218 q 712 1200 694 1218 q 729 1153 729 1182 q 712 1108 729 1125 q 667 1090 694 1090 m 321 15 q 433 42 385 36 l 433 419 l 131 926 q 24 954 76 935 l 24 972 l 372 972 l 372 953 q 254 926 313 932 l 522 475 l 807 931 q 718 956 767 939 l 718 972 l 961 972 l 961 953 q 885 932 929 939 l 561 418 l 561 42 q 675 15 618 33 l 675 0 l 321 0 l 321 15 z "},"Ẏ":{"ha":986,"x_min":24,"x_max":961,"o":"m 496 1090 q 450 1108 467 1090 q 433 1153 433 1125 q 450 1200 433 1182 q 496 1218 467 1218 q 540 1200 524 1218 q 557 1153 557 1182 q 540 1108 557 1125 q 496 1090 522 1090 m 321 15 q 433 42 385 36 l 433 419 l 131 926 q 24 954 76 935 l 24 972 l 372 972 l 372 953 q 254 926 313 932 l 522 475 l 807 931 q 718 956 767 939 l 718 972 l 961 972 l 961 953 q 885 932 929 939 l 561 418 l 561 42 q 675 15 618 33 l 675 0 l 321 0 l 321 15 z "},"Ỵ":{"ha":986,"x_min":24,"x_max":961,"o":"m 321 15 q 433 42 385 36 l 433 419 l 131 926 q 24 954 76 935 l 24 972 l 372 972 l 372 953 q 254 926 313 932 l 522 475 l 807 931 q 718 956 767 939 l 718 972 l 961 972 l 961 953 q 885 932 929 939 l 561 418 l 561 42 q 675 15 618 33 l 675 0 l 321 0 l 321 15 m 490 -210 q 445 -192 463 -210 q 428 -147 428 -175 q 445 -100 428 -118 q 490 -82 463 -82 q 535 -100 518 -82 q 553 -147 553 -118 q 535 -192 553 -175 q 490 -210 518 -210 z "},"Ỳ":{"ha":986,"x_min":24,"x_max":961,"o":"m 392 1206 q 344 1265 344 1233 q 356 1292 344 1281 q 389 1303 368 1303 q 450 1272 419 1303 l 611 1124 l 589 1092 l 392 1206 m 321 15 q 433 42 385 36 l 433 419 l 131 926 q 24 954 76 935 l 24 972 l 372 972 l 372 953 q 254 926 313 932 l 522 475 l 807 931 q 718 956 767 939 l 718 972 l 961 972 l 961 953 q 885 932 929 939 l 561 418 l 561 42 q 675 15 618 33 l 675 0 l 321 0 l 321 15 z "},"Ỷ":{"ha":986,"x_min":24,"x_max":961,"o":"m 493 1213 l 526 1213 q 591 1232 568 1213 q 614 1285 614 1251 q 592 1331 614 1313 q 532 1349 571 1349 q 451 1326 492 1349 l 442 1368 q 549 1392 489 1392 q 645 1364 606 1392 q 685 1282 685 1336 q 654 1208 685 1235 q 568 1176 624 1182 l 554 1088 l 500 1088 l 493 1213 m 321 15 q 433 42 385 36 l 433 419 l 131 926 q 24 954 76 935 l 24 972 l 372 972 l 372 953 q 254 926 313 932 l 522 475 l 807 931 q 718 956 767 939 l 718 972 l 961 972 l 961 953 q 885 932 929 939 l 561 418 l 561 42 q 675 15 618 33 l 675 0 l 321 0 l 321 15 z "},"Ỹ":{"ha":986,"x_min":24,"x_max":961,"o":"m 263 1092 q 308 1197 272 1163 q 399 1231 343 1231 q 455 1219 428 1231 q 518 1188 482 1208 q 564 1163 544 1171 q 601 1154 583 1154 q 658 1174 633 1154 q 692 1238 682 1194 l 736 1238 q 692 1131 726 1169 q 599 1093 658 1093 q 552 1103 575 1093 q 486 1135 529 1113 q 435 1162 456 1153 q 396 1171 414 1171 q 340 1149 364 1171 q 308 1092 317 1128 l 263 1092 m 321 15 q 433 42 385 36 l 433 419 l 131 926 q 24 954 76 935 l 24 972 l 372 972 l 372 953 q 254 926 313 932 l 522 475 l 807 931 q 718 956 767 939 l 718 972 l 961 972 l 961 953 q 885 932 929 939 l 561 418 l 561 42 q 675 15 618 33 l 675 0 l 321 0 l 321 15 z "},"Z":{"ha":801,"x_min":36,"x_max":754,"o":"m 36 32 l 615 921 l 157 921 q 142 840 154 892 q 119 769 131 789 l 89 769 l 89 972 l 754 972 l 754 949 l 172 49 l 667 49 q 688 129 669 79 q 719 200 706 179 l 750 200 l 729 0 l 36 0 l 36 32 z "},"Ź":{"ha":801,"x_min":36,"x_max":754,"o":"m 331 1124 l 489 1271 q 551 1303 521 1303 q 583 1292 572 1303 q 594 1265 594 1281 q 550 1206 594 1233 l 353 1092 l 331 1124 m 36 32 l 615 921 l 157 921 q 142 840 154 892 q 119 769 131 789 l 89 769 l 89 972 l 754 972 l 754 949 l 172 49 l 667 49 q 688 129 669 79 q 719 200 706 179 l 750 200 l 729 0 l 36 0 l 36 32 z "},"Ž":{"ha":801,"x_min":36,"x_max":754,"o":"m 381 1092 q 297 1182 351 1132 q 199 1263 243 1232 l 250 1307 q 336 1234 292 1276 q 407 1156 381 1192 l 414 1156 q 484 1234 440 1192 q 569 1307 528 1276 l 622 1263 q 524 1183 578 1233 q 440 1092 469 1133 l 381 1092 m 36 32 l 615 921 l 157 921 q 142 840 154 892 q 119 769 131 789 l 89 769 l 89 972 l 754 972 l 754 949 l 172 49 l 667 49 q 688 129 669 79 q 719 200 706 179 l 750 200 l 729 0 l 36 0 l 36 32 z "},"Ż":{"ha":801,"x_min":36,"x_max":754,"o":"m 407 1090 q 361 1108 378 1090 q 344 1153 344 1125 q 361 1200 344 1182 q 407 1218 378 1218 q 451 1200 435 1218 q 468 1153 468 1182 q 451 1108 468 1125 q 407 1090 433 1090 m 36 32 l 615 921 l 157 921 q 142 840 154 892 q 119 769 131 789 l 89 769 l 89 972 l 754 972 l 754 949 l 172 49 l 667 49 q 688 129 669 79 q 719 200 706 179 l 750 200 l 729 0 l 36 0 l 36 32 z "},"Ẓ":{"ha":801,"x_min":36,"x_max":754,"o":"m 36 32 l 615 921 l 157 921 q 142 840 154 892 q 119 769 131 789 l 89 769 l 89 972 l 754 972 l 754 949 l 172 49 l 667 49 q 688 129 669 79 q 719 200 706 179 l 750 200 l 729 0 l 36 0 l 36 32 m 393 -210 q 348 -192 365 -210 q 331 -147 331 -175 q 348 -100 331 -118 q 393 -82 365 -82 q 438 -100 421 -82 q 456 -147 456 -118 q 438 -192 456 -175 q 393 -210 421 -210 z "},"a":{"ha":747,"x_min":42,"x_max":740,"o":"m 269 -14 q 100 38 158 -14 q 42 186 42 89 q 118 341 42 293 q 313 389 194 389 l 518 389 l 518 500 q 471 617 518 579 q 338 654 424 654 q 226 638 283 654 q 119 597 168 622 l 110 640 q 235 687 165 669 q 379 704 306 704 q 574 651 503 704 q 644 508 644 597 l 644 53 q 740 31 693 43 l 740 19 l 518 -3 l 518 99 q 397 12 461 38 q 269 -14 332 -14 m 314 38 q 430 73 371 38 q 518 156 489 108 l 518 339 l 343 339 q 210 299 254 339 q 165 188 165 260 q 206 75 165 113 q 314 38 247 38 z "},"á":{"ha":747,"x_min":42,"x_max":740,"o":"m 254 843 l 413 990 q 475 1022 444 1022 q 507 1011 496 1022 q 518 985 518 1000 q 474 925 518 953 l 276 811 l 254 843 m 269 -14 q 100 38 158 -14 q 42 186 42 89 q 118 341 42 293 q 313 389 194 389 l 518 389 l 518 500 q 471 617 518 579 q 338 654 424 654 q 226 638 283 654 q 119 597 168 622 l 110 640 q 235 687 165 669 q 379 704 306 704 q 574 651 503 704 q 644 508 644 597 l 644 53 q 740 31 693 43 l 740 19 l 518 -3 l 518 99 q 397 12 461 38 q 269 -14 332 -14 m 314 38 q 430 73 371 38 q 518 156 489 108 l 518 339 l 343 339 q 210 299 254 339 q 165 188 165 260 q 206 75 165 113 q 314 38 247 38 z "},"ă":{"ha":747,"x_min":42,"x_max":740,"o":"m 381 804 q 232 847 289 804 q 164 976 175 890 l 242 976 q 288 881 249 906 q 381 856 326 856 q 473 881 435 856 q 518 976 511 906 l 596 976 q 528 847 586 890 q 381 804 471 804 m 269 -14 q 100 38 158 -14 q 42 186 42 89 q 118 341 42 293 q 313 389 194 389 l 518 389 l 518 500 q 471 617 518 579 q 338 654 424 654 q 226 638 283 654 q 119 597 168 622 l 110 640 q 235 687 165 669 q 379 704 306 704 q 574 651 503 704 q 644 508 644 597 l 644 53 q 740 31 693 43 l 740 19 l 518 -3 l 518 99 q 397 12 461 38 q 269 -14 332 -14 m 314 38 q 430 73 371 38 q 518 156 489 108 l 518 339 l 343 339 q 210 299 254 339 q 165 188 165 260 q 206 75 165 113 q 314 38 247 38 z "},"ắ":{"ha":747,"x_min":42,"x_max":740,"o":"m 326 999 l 438 1108 q 519 1154 485 1154 q 546 1145 536 1154 q 556 1122 556 1136 q 540 1085 556 1104 q 492 1049 524 1065 l 347 969 l 326 999 m 381 804 q 233 847 290 804 q 165 975 175 890 l 243 975 q 288 880 250 904 q 381 856 326 856 q 474 880 436 856 q 519 975 513 904 l 597 975 q 529 847 586 890 q 381 804 472 804 m 269 -14 q 100 38 158 -14 q 42 186 42 89 q 118 341 42 293 q 313 389 194 389 l 518 389 l 518 500 q 471 617 518 579 q 338 654 424 654 q 226 638 283 654 q 119 597 168 622 l 110 640 q 235 687 165 669 q 379 704 306 704 q 574 651 503 704 q 644 508 644 597 l 644 53 q 740 31 693 43 l 740 19 l 518 -3 l 518 99 q 397 12 461 38 q 269 -14 332 -14 m 314 38 q 430 73 371 38 q 518 156 489 108 l 518 339 l 343 339 q 210 299 254 339 q 165 188 165 260 q 206 75 165 113 q 314 38 247 38 z "},"ặ":{"ha":747,"x_min":42,"x_max":740,"o":"m 381 804 q 232 847 289 804 q 164 976 175 890 l 242 976 q 288 881 249 906 q 381 856 326 856 q 473 881 435 856 q 518 976 511 906 l 596 976 q 528 847 586 890 q 381 804 471 804 m 269 -14 q 100 38 158 -14 q 42 186 42 89 q 118 341 42 293 q 313 389 194 389 l 518 389 l 518 500 q 471 617 518 579 q 338 654 424 654 q 226 638 283 654 q 119 597 168 622 l 110 640 q 235 687 165 669 q 379 704 306 704 q 574 651 503 704 q 644 508 644 597 l 644 53 q 740 31 693 43 l 740 19 l 518 -3 l 518 99 q 397 12 461 38 q 269 -14 332 -14 m 314 38 q 430 73 371 38 q 518 156 489 108 l 518 339 l 343 339 q 210 299 254 339 q 165 188 165 260 q 206 75 165 113 q 314 38 247 38 m 367 -210 q 322 -192 339 -210 q 304 -147 304 -175 q 322 -100 304 -118 q 367 -82 339 -82 q 412 -100 394 -82 q 429 -147 429 -118 q 412 -192 429 -175 q 367 -210 394 -210 z "},"ằ":{"ha":747,"x_min":42,"x_max":740,"o":"m 267 1049 q 219 1085 235 1065 q 204 1122 204 1104 q 214 1145 204 1136 q 239 1154 224 1154 q 321 1108 274 1154 l 433 999 l 413 969 l 267 1049 m 381 804 q 233 847 290 804 q 165 975 175 890 l 243 975 q 288 880 250 904 q 381 856 326 856 q 474 880 436 856 q 519 975 513 904 l 597 975 q 529 847 586 890 q 381 804 472 804 m 269 -14 q 100 38 158 -14 q 42 186 42 89 q 118 341 42 293 q 313 389 194 389 l 518 389 l 518 500 q 471 617 518 579 q 338 654 424 654 q 226 638 283 654 q 119 597 168 622 l 110 640 q 235 687 165 669 q 379 704 306 704 q 574 651 503 704 q 644 508 644 597 l 644 53 q 740 31 693 43 l 740 19 l 518 -3 l 518 99 q 397 12 461 38 q 269 -14 332 -14 m 314 38 q 430 73 371 38 q 518 156 489 108 l 518 339 l 343 339 q 210 299 254 339 q 165 188 165 260 q 206 75 165 113 q 314 38 247 38 z "},"ẳ":{"ha":747,"x_min":42,"x_max":740,"o":"m 342 1061 l 371 1061 q 426 1076 407 1061 q 446 1119 446 1092 q 428 1157 446 1143 q 376 1171 411 1171 q 307 1153 342 1171 l 299 1190 q 390 1210 343 1210 q 475 1187 440 1210 q 510 1118 510 1164 q 408 1031 510 1039 l 396 957 l 347 957 l 342 1061 m 381 804 q 233 847 290 804 q 165 975 175 890 l 243 975 q 288 880 250 904 q 381 856 326 856 q 474 880 436 856 q 519 975 513 904 l 597 975 q 529 847 586 890 q 381 804 472 804 m 269 -14 q 100 38 158 -14 q 42 186 42 89 q 118 341 42 293 q 313 389 194 389 l 518 389 l 518 500 q 471 617 518 579 q 338 654 424 654 q 226 638 283 654 q 119 597 168 622 l 110 640 q 235 687 165 669 q 379 704 306 704 q 574 651 503 704 q 644 508 644 597 l 644 53 q 740 31 693 43 l 740 19 l 518 -3 l 518 99 q 397 12 461 38 q 269 -14 332 -14 m 314 38 q 430 73 371 38 q 518 156 489 108 l 518 339 l 343 339 q 210 299 254 339 q 165 188 165 260 q 206 75 165 113 q 314 38 247 38 z "},"ẵ":{"ha":747,"x_min":42,"x_max":740,"o":"m 157 1057 q 200 1161 167 1126 q 288 1196 233 1196 q 338 1185 315 1196 q 394 1153 361 1174 q 436 1128 419 1136 q 469 1119 453 1119 q 525 1140 501 1119 q 558 1203 549 1160 l 600 1203 q 558 1097 592 1135 q 468 1058 525 1058 q 422 1069 444 1058 q 365 1100 399 1079 q 319 1127 339 1118 q 283 1136 300 1136 q 231 1115 253 1136 q 201 1057 208 1093 l 157 1057 m 381 804 q 233 847 290 804 q 165 975 175 890 l 243 975 q 288 880 250 904 q 381 856 326 856 q 474 880 436 856 q 519 975 513 904 l 597 975 q 529 847 586 890 q 381 804 472 804 m 269 -14 q 100 38 158 -14 q 42 186 42 89 q 118 341 42 293 q 313 389 194 389 l 518 389 l 518 500 q 471 617 518 579 q 338 654 424 654 q 226 638 283 654 q 119 597 168 622 l 110 640 q 235 687 165 669 q 379 704 306 704 q 574 651 503 704 q 644 508 644 597 l 644 53 q 740 31 693 43 l 740 19 l 518 -3 l 518 99 q 397 12 461 38 q 269 -14 332 -14 m 314 38 q 430 73 371 38 q 518 156 489 108 l 518 339 l 343 339 q 210 299 254 339 q 165 188 165 260 q 206 75 165 113 q 314 38 247 38 z "},"ǎ":{"ha":747,"x_min":42,"x_max":740,"o":"m 340 811 q 257 901 311 851 q 158 982 203 951 l 211 1026 q 297 953 253 996 q 367 875 340 911 l 374 875 q 445 955 401 913 q 529 1026 489 997 l 582 982 q 483 901 538 951 q 400 811 429 851 l 340 811 m 269 -14 q 100 38 158 -14 q 42 186 42 89 q 118 341 42 293 q 313 389 194 389 l 518 389 l 518 500 q 471 617 518 579 q 338 654 424 654 q 226 638 283 654 q 119 597 168 622 l 110 640 q 235 687 165 669 q 379 704 306 704 q 574 651 503 704 q 644 508 644 597 l 644 53 q 740 31 693 43 l 740 19 l 518 -3 l 518 99 q 397 12 461 38 q 269 -14 332 -14 m 314 38 q 430 73 371 38 q 518 156 489 108 l 518 339 l 343 339 q 210 299 254 339 q 165 188 165 260 q 206 75 165 113 q 314 38 247 38 z "},"â":{"ha":747,"x_min":42,"x_max":740,"o":"m 167 847 q 265 927 211 878 q 349 1017 319 976 l 408 1017 q 492 926 438 976 q 590 847 546 876 l 538 803 q 452 876 496 833 q 382 954 408 918 l 375 954 q 304 876 349 918 q 218 803 260 833 l 167 847 m 269 -14 q 100 38 158 -14 q 42 186 42 89 q 118 341 42 293 q 313 389 194 389 l 518 389 l 518 500 q 471 617 518 579 q 338 654 424 654 q 226 638 283 654 q 119 597 168 622 l 110 640 q 235 687 165 669 q 379 704 306 704 q 574 651 503 704 q 644 508 644 597 l 644 53 q 740 31 693 43 l 740 19 l 518 -3 l 518 99 q 397 12 461 38 q 269 -14 332 -14 m 314 38 q 430 73 371 38 q 518 156 489 108 l 518 339 l 343 339 q 210 299 254 339 q 165 188 165 260 q 206 75 165 113 q 314 38 247 38 z "},"ấ":{"ha":747,"x_min":42,"x_max":753,"o":"m 524 999 l 636 1108 q 718 1154 681 1154 q 743 1145 733 1154 q 753 1122 753 1136 q 738 1085 753 1104 q 690 1049 722 1065 l 544 969 l 524 999 m 168 847 q 265 926 211 876 q 350 1017 319 976 l 408 1017 q 492 927 438 976 q 590 847 547 878 l 539 803 q 453 876 497 833 q 382 954 410 918 l 376 954 q 306 876 350 918 q 221 803 261 833 l 168 847 m 269 -14 q 100 38 158 -14 q 42 186 42 89 q 118 341 42 293 q 313 389 194 389 l 518 389 l 518 500 q 471 617 518 579 q 338 654 424 654 q 226 638 283 654 q 119 597 168 622 l 110 640 q 235 687 165 669 q 379 704 306 704 q 574 651 503 704 q 644 508 644 597 l 644 53 q 740 31 693 43 l 740 19 l 518 -3 l 518 99 q 397 12 461 38 q 269 -14 332 -14 m 314 38 q 430 73 371 38 q 518 156 489 108 l 518 339 l 343 339 q 210 299 254 339 q 165 188 165 260 q 206 75 165 113 q 314 38 247 38 z "},"ậ":{"ha":747,"x_min":42,"x_max":740,"o":"m 167 847 q 265 927 211 878 q 349 1017 319 976 l 408 1017 q 492 926 438 976 q 590 847 546 876 l 538 803 q 452 876 496 833 q 382 954 408 918 l 375 954 q 304 876 349 918 q 218 803 260 833 l 167 847 m 269 -14 q 100 38 158 -14 q 42 186 42 89 q 118 341 42 293 q 313 389 194 389 l 518 389 l 518 500 q 471 617 518 579 q 338 654 424 654 q 226 638 283 654 q 119 597 168 622 l 110 640 q 235 687 165 669 q 379 704 306 704 q 574 651 503 704 q 644 508 644 597 l 644 53 q 740 31 693 43 l 740 19 l 518 -3 l 518 99 q 397 12 461 38 q 269 -14 332 -14 m 314 38 q 430 73 371 38 q 518 156 489 108 l 518 339 l 343 339 q 210 299 254 339 q 165 188 165 260 q 206 75 165 113 q 314 38 247 38 m 381 -210 q 335 -192 353 -210 q 318 -147 318 -175 q 335 -100 318 -118 q 381 -82 353 -82 q 426 -100 408 -82 q 443 -147 443 -118 q 426 -192 443 -175 q 381 -210 408 -210 z "},"ầ":{"ha":747,"x_min":17,"x_max":740,"o":"m 93 1040 q 37 1082 57 1060 q 17 1122 17 1104 q 26 1145 17 1136 q 51 1154 36 1154 q 146 1097 89 1154 l 246 999 l 224 969 l 93 1040 m 168 847 q 265 926 211 876 q 350 1017 319 976 l 408 1017 q 492 927 438 976 q 590 847 547 878 l 539 803 q 453 876 497 833 q 382 954 410 918 l 376 954 q 306 876 350 918 q 221 803 261 833 l 168 847 m 269 -14 q 100 38 158 -14 q 42 186 42 89 q 118 341 42 293 q 313 389 194 389 l 518 389 l 518 500 q 471 617 518 579 q 338 654 424 654 q 226 638 283 654 q 119 597 168 622 l 110 640 q 235 687 165 669 q 379 704 306 704 q 574 651 503 704 q 644 508 644 597 l 644 53 q 740 31 693 43 l 740 19 l 518 -3 l 518 99 q 397 12 461 38 q 269 -14 332 -14 m 314 38 q 430 73 371 38 q 518 156 489 108 l 518 339 l 343 339 q 210 299 254 339 q 165 188 165 260 q 206 75 165 113 q 314 38 247 38 z "},"ẩ":{"ha":747,"x_min":42,"x_max":740,"o":"m 517 1061 l 546 1061 q 601 1076 582 1061 q 621 1119 621 1092 q 603 1157 621 1143 q 551 1171 586 1171 q 482 1153 517 1171 l 474 1190 q 565 1210 518 1210 q 650 1187 615 1210 q 685 1118 685 1164 q 583 1031 685 1039 l 571 957 l 522 957 l 517 1061 m 168 847 q 265 926 211 876 q 350 1017 319 976 l 408 1017 q 492 927 438 976 q 590 847 547 878 l 539 803 q 453 876 497 833 q 382 954 410 918 l 376 954 q 306 876 350 918 q 221 803 261 833 l 168 847 m 269 -14 q 100 38 158 -14 q 42 186 42 89 q 118 341 42 293 q 313 389 194 389 l 518 389 l 518 500 q 471 617 518 579 q 338 654 424 654 q 226 638 283 654 q 119 597 168 622 l 110 640 q 235 687 165 669 q 379 704 306 704 q 574 651 503 704 q 644 508 644 597 l 644 53 q 740 31 693 43 l 740 19 l 518 -3 l 518 99 q 397 12 461 38 q 269 -14 332 -14 m 314 38 q 430 73 371 38 q 518 156 489 108 l 518 339 l 343 339 q 210 299 254 339 q 165 188 165 260 q 206 75 165 113 q 314 38 247 38 z "},"ẫ":{"ha":747,"x_min":42,"x_max":740,"o":"m 156 1057 q 199 1162 165 1128 q 285 1196 232 1196 q 338 1185 313 1196 q 397 1153 364 1174 q 442 1128 424 1136 q 478 1119 461 1119 q 531 1140 508 1119 q 564 1203 554 1160 l 606 1203 q 565 1097 597 1135 q 475 1058 532 1058 q 433 1067 454 1058 q 393 1087 413 1076 q 368 1100 374 1097 q 318 1127 338 1118 q 282 1136 299 1136 q 229 1115 251 1136 q 199 1057 207 1093 l 156 1057 m 168 847 q 265 926 211 876 q 350 1017 319 976 l 408 1017 q 492 927 438 976 q 590 847 547 878 l 539 803 q 453 876 497 833 q 382 954 410 918 l 376 954 q 306 876 350 918 q 221 803 261 833 l 168 847 m 269 -14 q 100 38 158 -14 q 42 186 42 89 q 118 341 42 293 q 313 389 194 389 l 518 389 l 518 500 q 471 617 518 579 q 338 654 424 654 q 226 638 283 654 q 119 597 168 622 l 110 640 q 235 687 165 669 q 379 704 306 704 q 574 651 503 704 q 644 508 644 597 l 644 53 q 740 31 693 43 l 740 19 l 518 -3 l 518 99 q 397 12 461 38 q 269 -14 332 -14 m 314 38 q 430 73 371 38 q 518 156 489 108 l 518 339 l 343 339 q 210 299 254 339 q 165 188 165 260 q 206 75 165 113 q 314 38 247 38 z "},"ä":{"ha":747,"x_min":42,"x_max":740,"o":"m 213 810 q 169 827 186 810 q 151 872 151 844 q 168 919 151 901 q 213 938 185 938 q 258 919 240 938 q 275 872 275 901 q 258 827 275 844 q 213 810 240 810 m 518 810 q 474 827 490 810 q 457 872 457 844 q 474 919 457 901 q 518 938 490 938 q 563 919 546 938 q 581 872 581 901 q 563 827 581 844 q 518 810 546 810 m 269 -14 q 100 38 158 -14 q 42 186 42 89 q 118 341 42 293 q 313 389 194 389 l 518 389 l 518 500 q 471 617 518 579 q 338 654 424 654 q 226 638 283 654 q 119 597 168 622 l 110 640 q 235 687 165 669 q 379 704 306 704 q 574 651 503 704 q 644 508 644 597 l 644 53 q 740 31 693 43 l 740 19 l 518 -3 l 518 99 q 397 12 461 38 q 269 -14 332 -14 m 314 38 q 430 73 371 38 q 518 156 489 108 l 518 339 l 343 339 q 210 299 254 339 q 165 188 165 260 q 206 75 165 113 q 314 38 247 38 z "},"ạ":{"ha":747,"x_min":42,"x_max":740,"o":"m 269 -14 q 100 38 158 -14 q 42 186 42 89 q 118 341 42 293 q 313 389 194 389 l 518 389 l 518 500 q 471 617 518 579 q 338 654 424 654 q 226 638 283 654 q 119 597 168 622 l 110 640 q 235 687 165 669 q 379 704 306 704 q 574 651 503 704 q 644 508 644 597 l 644 53 q 740 31 693 43 l 740 19 l 518 -3 l 518 99 q 397 12 461 38 q 269 -14 332 -14 m 314 38 q 430 73 371 38 q 518 156 489 108 l 518 339 l 343 339 q 210 299 254 339 q 165 188 165 260 q 206 75 165 113 q 314 38 247 38 m 372 -210 q 327 -192 344 -210 q 310 -147 310 -175 q 327 -100 310 -118 q 372 -82 344 -82 q 417 -100 400 -82 q 435 -147 435 -118 q 417 -192 435 -175 q 372 -210 400 -210 z "},"à":{"ha":747,"x_min":42,"x_max":740,"o":"m 278 925 q 231 985 231 953 q 242 1011 231 1000 q 275 1022 254 1022 q 336 992 306 1022 l 497 843 l 475 811 l 278 925 m 269 -14 q 100 38 158 -14 q 42 186 42 89 q 118 341 42 293 q 313 389 194 389 l 518 389 l 518 500 q 471 617 518 579 q 338 654 424 654 q 226 638 283 654 q 119 597 168 622 l 110 640 q 235 687 165 669 q 379 704 306 704 q 574 651 503 704 q 644 508 644 597 l 644 53 q 740 31 693 43 l 740 19 l 518 -3 l 518 99 q 397 12 461 38 q 269 -14 332 -14 m 314 38 q 430 73 371 38 q 518 156 489 108 l 518 339 l 343 339 q 210 299 254 339 q 165 188 165 260 q 206 75 165 113 q 314 38 247 38 z "},"ả":{"ha":747,"x_min":42,"x_max":740,"o":"m 343 932 l 376 932 q 441 951 418 932 q 464 1004 464 971 q 442 1050 464 1032 q 382 1068 421 1068 q 301 1046 342 1068 l 292 1088 q 399 1111 339 1111 q 495 1083 456 1111 q 535 1001 535 1056 q 504 928 535 954 q 418 896 474 901 l 404 807 l 350 807 l 343 932 m 269 -14 q 100 38 158 -14 q 42 186 42 89 q 118 341 42 293 q 313 389 194 389 l 518 389 l 518 500 q 471 617 518 579 q 338 654 424 654 q 226 638 283 654 q 119 597 168 622 l 110 640 q 235 687 165 669 q 379 704 306 704 q 574 651 503 704 q 644 508 644 597 l 644 53 q 740 31 693 43 l 740 19 l 518 -3 l 518 99 q 397 12 461 38 q 269 -14 332 -14 m 314 38 q 430 73 371 38 q 518 156 489 108 l 518 339 l 343 339 q 210 299 254 339 q 165 188 165 260 q 206 75 165 113 q 314 38 247 38 z "},"ɑ":{"ha":817,"x_min":36,"x_max":810,"o":"m 349 -14 q 36 358 36 -14 q 87 547 36 468 q 221 665 138 625 q 400 704 304 704 q 574 673 490 704 q 713 578 657 642 l 713 53 q 810 31 768 43 l 810 19 l 597 -4 q 588 101 590 33 q 488 16 556 46 q 349 -14 419 -14 m 379 35 q 492 63 444 35 q 563 139 539 92 q 588 240 588 186 l 588 561 q 399 654 517 654 q 220 577 281 654 q 160 356 160 500 q 212 122 160 210 q 379 35 264 35 z "},"ā":{"ha":747,"x_min":42,"x_max":740,"o":"m 133 860 l 596 860 l 596 811 l 133 811 l 133 860 m 269 -14 q 100 38 158 -14 q 42 186 42 89 q 118 341 42 293 q 313 389 194 389 l 518 389 l 518 500 q 471 617 518 579 q 338 654 424 654 q 226 638 283 654 q 119 597 168 622 l 110 640 q 235 687 165 669 q 379 704 306 704 q 574 651 503 704 q 644 508 644 597 l 644 53 q 740 31 693 43 l 740 19 l 518 -3 l 518 99 q 397 12 461 38 q 269 -14 332 -14 m 314 38 q 430 73 371 38 q 518 156 489 108 l 518 339 l 343 339 q 210 299 254 339 q 165 188 165 260 q 206 75 165 113 q 314 38 247 38 z "},"ą":{"ha":747,"x_min":42,"x_max":772,"o":"m 697 -187 q 772 -168 735 -187 l 772 -225 q 656 -249 721 -249 q 551 -216 589 -249 q 514 -137 514 -183 q 542 -53 514 -93 q 621 7 571 -14 l 518 -3 l 518 99 q 397 12 461 38 q 269 -14 332 -14 q 100 38 158 -14 q 42 186 42 89 q 118 341 42 293 q 313 389 194 389 l 518 389 l 518 500 q 471 617 518 579 q 338 654 424 654 q 226 638 283 654 q 119 597 168 622 l 110 640 q 235 687 165 669 q 379 704 306 704 q 574 651 503 704 q 644 508 644 597 l 644 53 q 740 31 693 43 l 740 19 l 696 15 q 636 -44 661 -7 q 611 -117 611 -82 q 635 -169 611 -151 q 697 -187 660 -187 m 518 339 l 343 339 q 210 299 254 339 q 165 188 165 260 q 206 75 165 113 q 314 38 247 38 q 430 73 371 38 q 518 156 489 108 l 518 339 z "},"å":{"ha":747,"x_min":42,"x_max":740,"o":"m 374 792 q 281 825 317 792 q 244 913 244 858 q 281 1002 244 968 q 374 1036 317 1036 q 466 1002 431 1036 q 501 913 501 968 q 466 825 501 858 q 374 792 431 792 m 374 836 q 430 857 408 836 q 451 913 451 878 q 430 969 451 947 q 374 990 408 990 q 316 969 339 990 q 293 913 293 947 q 316 857 293 878 q 374 836 339 836 m 269 -14 q 100 38 158 -14 q 42 186 42 89 q 118 341 42 293 q 313 389 194 389 l 518 389 l 518 500 q 471 617 518 579 q 338 654 424 654 q 226 638 283 654 q 119 597 168 622 l 110 640 q 235 687 165 669 q 379 704 306 704 q 574 651 503 704 q 644 508 644 597 l 644 53 q 740 31 693 43 l 740 19 l 518 -3 l 518 99 q 397 12 461 38 q 269 -14 332 -14 m 314 38 q 430 73 371 38 q 518 156 489 108 l 518 339 l 343 339 q 210 299 254 339 q 165 188 165 260 q 206 75 165 113 q 314 38 247 38 z "},"ǻ":{"ha":747,"x_min":42,"x_max":740,"o":"m 290 1088 l 449 1235 q 511 1267 481 1267 q 543 1256 532 1267 q 554 1229 554 1244 q 510 1169 554 1197 l 313 1056 l 290 1088 m 374 774 q 281 807 317 774 q 244 894 244 840 q 281 984 244 950 q 374 1018 317 1018 q 466 984 431 1018 q 501 894 501 950 q 466 807 501 840 q 374 774 431 774 m 374 818 q 430 839 408 818 q 451 894 451 860 q 430 951 451 929 q 374 972 408 972 q 316 951 339 972 q 293 894 293 929 q 316 839 293 860 q 374 818 339 818 m 269 -14 q 100 38 158 -14 q 42 186 42 89 q 118 341 42 293 q 313 389 194 389 l 518 389 l 518 500 q 471 617 518 579 q 338 654 424 654 q 226 638 283 654 q 119 597 168 622 l 110 640 q 235 687 165 669 q 379 704 306 704 q 574 651 503 704 q 644 508 644 597 l 644 53 q 740 31 693 43 l 740 19 l 518 -3 l 518 99 q 397 12 461 38 q 269 -14 332 -14 m 314 38 q 430 73 371 38 q 518 156 489 108 l 518 339 l 343 339 q 210 299 254 339 q 165 188 165 260 q 206 75 165 113 q 314 38 247 38 z "},"ã":{"ha":747,"x_min":42,"x_max":740,"o":"m 131 811 q 176 916 140 882 q 267 950 211 950 q 323 939 296 950 q 386 907 350 928 q 432 882 413 890 q 469 874 451 874 q 526 894 501 874 q 560 957 550 914 l 604 957 q 560 851 594 889 q 467 813 526 813 q 420 822 443 813 q 354 854 397 832 q 303 881 324 872 q 264 890 282 890 q 208 869 232 890 q 176 811 185 847 l 131 811 m 269 -14 q 100 38 158 -14 q 42 186 42 89 q 118 341 42 293 q 313 389 194 389 l 518 389 l 518 500 q 471 617 518 579 q 338 654 424 654 q 226 638 283 654 q 119 597 168 622 l 110 640 q 235 687 165 669 q 379 704 306 704 q 574 651 503 704 q 644 508 644 597 l 644 53 q 740 31 693 43 l 740 19 l 518 -3 l 518 99 q 397 12 461 38 q 269 -14 332 -14 m 314 38 q 430 73 371 38 q 518 156 489 108 l 518 339 l 343 339 q 210 299 254 339 q 165 188 165 260 q 206 75 165 113 q 314 38 247 38 z "},"æ":{"ha":1211,"x_min":42,"x_max":1169,"o":"m 276 -14 q 106 37 171 -14 q 42 186 42 88 q 122 344 42 293 q 321 396 203 396 l 510 396 q 517 450 511 414 q 524 500 522 488 q 473 615 524 576 q 338 654 422 654 q 226 638 283 654 q 119 597 168 622 l 110 640 q 235 687 165 669 q 379 704 306 704 q 519 676 461 704 q 603 599 576 647 q 714 676 647 649 q 863 704 781 704 q 1034 660 965 704 q 1136 543 1103 617 q 1169 379 1169 469 l 1169 346 l 632 346 q 708 117 635 200 q 911 33 781 33 q 1024 52 967 33 q 1124 101 1081 71 l 1136 65 q 1029 8 1094 31 q 881 -14 964 -14 q 710 22 786 -14 q 586 124 635 57 q 442 17 526 49 q 276 -14 358 -14 m 1058 397 q 1009 579 1057 501 q 861 657 961 657 q 697 583 754 657 q 633 397 640 510 l 1058 397 m 319 38 q 452 73 383 38 q 557 160 521 108 q 508 346 511 240 l 351 346 q 214 303 263 346 q 165 188 165 260 q 208 74 165 111 q 319 38 251 38 z "},"ǽ":{"ha":1211,"x_min":42,"x_max":1169,"o":"m 551 843 l 710 990 q 772 1022 742 1022 q 804 1011 793 1022 q 815 985 815 1000 q 771 925 815 953 l 574 811 l 551 843 m 276 -14 q 106 37 171 -14 q 42 186 42 88 q 122 344 42 293 q 321 396 203 396 l 510 396 q 517 450 511 414 q 524 500 522 488 q 473 615 524 576 q 338 654 422 654 q 226 638 283 654 q 119 597 168 622 l 110 640 q 235 687 165 669 q 379 704 306 704 q 519 676 461 704 q 603 599 576 647 q 714 676 647 649 q 863 704 781 704 q 1034 660 965 704 q 1136 543 1103 617 q 1169 379 1169 469 l 1169 346 l 632 346 q 708 117 635 200 q 911 33 781 33 q 1024 52 967 33 q 1124 101 1081 71 l 1136 65 q 1029 8 1094 31 q 881 -14 964 -14 q 710 22 786 -14 q 586 124 635 57 q 442 17 526 49 q 276 -14 358 -14 m 1058 397 q 1009 579 1057 501 q 861 657 961 657 q 697 583 754 657 q 633 397 640 510 l 1058 397 m 319 38 q 452 73 383 38 q 557 160 521 108 q 508 346 511 240 l 351 346 q 214 303 263 346 q 165 188 165 260 q 208 74 165 111 q 319 38 251 38 z "},"b":{"ha":831,"x_min":15,"x_max":789,"o":"m 463 -14 q 316 18 381 -14 q 221 106 251 50 q 194 0 214 61 l 113 0 l 113 924 q 15 949 54 935 l 15 958 l 238 982 l 238 607 q 357 685 296 665 q 482 704 418 704 q 640 665 571 704 q 749 549 710 626 q 789 363 789 472 q 703 78 789 171 q 463 -14 617 -14 m 446 35 q 613 122 561 35 q 664 356 664 210 q 611 579 664 504 q 440 654 558 654 q 327 623 381 654 q 238 546 274 592 l 238 235 q 293 93 238 151 q 446 35 349 35 z "},"c":{"ha":689,"x_min":42,"x_max":660,"o":"m 401 -14 q 210 31 292 -14 q 85 156 129 75 q 42 344 42 238 q 141 609 42 514 q 407 704 240 704 q 656 621 557 704 l 646 469 l 618 469 q 604 531 610 490 q 597 606 599 572 q 442 654 524 654 q 239 572 310 654 q 168 336 168 490 q 197 188 168 257 q 285 76 225 119 q 435 33 344 33 q 548 52 490 33 q 647 101 606 71 l 660 65 q 551 8 618 31 q 401 -14 485 -14 z "},"ć":{"ha":689,"x_min":42,"x_max":660,"o":"m 314 843 l 472 990 q 535 1022 504 1022 q 567 1011 556 1022 q 578 985 578 1000 q 533 925 578 953 l 336 811 l 314 843 m 401 -14 q 210 31 292 -14 q 85 156 129 75 q 42 344 42 238 q 141 609 42 514 q 407 704 240 704 q 656 621 557 704 l 646 469 l 618 469 q 604 531 610 490 q 597 606 599 572 q 442 654 524 654 q 239 572 310 654 q 168 336 168 490 q 197 188 168 257 q 285 76 225 119 q 435 33 344 33 q 548 52 490 33 q 647 101 606 71 l 660 65 q 551 8 618 31 q 401 -14 485 -14 z "},"č":{"ha":689,"x_min":42,"x_max":660,"o":"m 393 811 q 310 901 364 851 q 211 982 256 951 l 263 1026 q 349 953 304 996 q 419 875 393 911 l 426 875 q 497 953 453 911 q 582 1026 540 996 l 635 982 q 536 903 590 953 q 453 811 482 853 l 393 811 m 401 -14 q 210 31 292 -14 q 85 156 129 75 q 42 344 42 238 q 141 609 42 514 q 407 704 240 704 q 656 621 557 704 l 646 469 l 618 469 q 604 531 610 490 q 597 606 599 572 q 442 654 524 654 q 239 572 310 654 q 168 336 168 490 q 197 188 168 257 q 285 76 225 119 q 435 33 344 33 q 548 52 490 33 q 647 101 606 71 l 660 65 q 551 8 618 31 q 401 -14 485 -14 z "},"ç":{"ha":689,"x_min":42,"x_max":660,"o":"m 406 -90 q 515 -113 476 -90 q 553 -183 553 -136 q 506 -273 553 -242 q 386 -304 460 -304 q 269 -279 319 -304 l 292 -239 q 379 -256 332 -256 q 455 -237 426 -256 q 483 -183 483 -219 q 459 -144 483 -157 q 401 -132 435 -132 q 367 -135 386 -132 l 336 -96 l 378 -14 q 199 38 275 -8 q 83 163 124 83 q 42 344 42 242 q 141 609 42 514 q 407 704 240 704 q 656 621 557 704 l 646 469 l 618 469 q 604 531 610 490 q 597 606 599 572 q 442 654 524 654 q 239 572 310 654 q 168 336 168 490 q 197 188 168 257 q 285 76 225 119 q 435 33 344 33 q 548 52 490 33 q 647 101 606 71 l 660 65 q 567 14 624 35 q 442 -12 511 -7 l 406 -90 z "},"ĉ":{"ha":689,"x_min":42,"x_max":660,"o":"m 207 847 q 306 927 251 878 q 389 1017 360 976 l 449 1017 q 532 926 478 976 q 631 847 586 876 l 578 803 q 492 876 536 833 q 422 954 449 918 l 415 954 q 344 876 389 918 q 258 803 300 833 l 207 847 m 401 -14 q 210 31 292 -14 q 85 156 129 75 q 42 344 42 238 q 141 609 42 514 q 407 704 240 704 q 656 621 557 704 l 646 469 l 618 469 q 604 531 610 490 q 597 606 599 572 q 442 654 524 654 q 239 572 310 654 q 168 336 168 490 q 197 188 168 257 q 285 76 225 119 q 435 33 344 33 q 548 52 490 33 q 647 101 606 71 l 660 65 q 551 8 618 31 q 401 -14 485 -14 z "},"ċ":{"ha":689,"x_min":42,"x_max":660,"o":"m 414 810 q 368 827 385 810 q 351 872 351 844 q 368 919 351 901 q 414 938 385 938 q 458 919 442 938 q 475 872 475 901 q 458 827 475 844 q 414 810 440 810 m 401 -14 q 210 31 292 -14 q 85 156 129 75 q 42 344 42 238 q 141 609 42 514 q 407 704 240 704 q 656 621 557 704 l 646 469 l 618 469 q 604 531 610 490 q 597 606 599 572 q 442 654 524 654 q 239 572 310 654 q 168 336 168 490 q 197 188 168 257 q 285 76 225 119 q 435 33 344 33 q 548 52 490 33 q 647 101 606 71 l 660 65 q 551 8 618 31 q 401 -14 485 -14 z "},"d":{"ha":821,"x_min":42,"x_max":814,"o":"m 350 -14 q 123 73 204 -14 q 42 342 42 160 q 129 608 42 511 q 367 704 217 704 q 487 685 431 704 q 593 610 543 665 l 593 924 q 497 949 535 935 l 497 958 l 718 982 l 718 53 q 814 31 774 42 l 814 21 l 621 -7 q 608 115 614 38 q 504 19 572 51 q 350 -14 436 -14 m 385 35 q 535 92 478 35 q 593 238 593 150 l 593 547 q 396 654 503 654 q 223 565 279 654 q 167 340 167 475 q 219 115 167 196 q 385 35 272 35 z "},"ð":{"ha":829,"x_min":63,"x_max":767,"o":"m 507 932 q 698 684 629 824 q 767 406 767 544 q 674 97 767 208 q 401 -14 582 -14 q 218 35 294 -14 q 102 166 142 85 q 63 344 63 247 q 100 512 63 431 q 215 645 138 593 q 408 697 293 697 q 533 671 472 697 q 629 592 593 644 q 558 749 607 669 q 440 894 510 828 l 211 765 l 190 824 l 392 939 q 236 1033 319 996 l 272 1079 q 454 975 374 1038 q 636 1083 549 1029 l 674 1026 l 507 932 m 404 35 q 532 80 478 35 q 614 203 586 125 q 642 375 642 281 q 613 509 642 446 q 531 610 583 572 q 414 647 479 647 q 297 608 349 647 q 216 500 244 569 q 188 344 188 431 q 213 190 188 261 q 288 77 239 119 q 404 35 336 35 z "},"ď":{"ha":992,"x_min":42,"x_max":968,"o":"m 350 -14 q 123 73 204 -14 q 42 342 42 160 q 129 608 42 511 q 367 704 217 704 q 487 685 431 704 q 593 610 543 665 l 593 924 q 497 949 535 935 l 497 958 l 718 982 l 718 53 q 814 31 774 42 l 814 21 l 621 -7 q 608 115 614 38 q 504 19 572 51 q 350 -14 436 -14 m 824 692 q 869 763 850 722 q 892 846 888 804 l 878 844 q 829 863 849 844 q 810 913 810 882 q 832 963 810 944 q 885 981 854 981 q 948 956 928 981 q 968 889 968 931 q 940 764 968 831 q 868 657 911 697 l 824 692 m 385 35 q 535 92 478 35 q 593 238 593 150 l 593 547 q 396 654 503 654 q 223 565 279 654 q 167 340 167 475 q 219 115 167 196 q 385 35 272 35 z "},"đ":{"ha":821,"x_min":42,"x_max":814,"o":"m 350 -14 q 123 73 204 -14 q 42 342 42 160 q 129 608 42 511 q 367 704 217 704 q 487 685 431 704 q 593 610 543 665 l 593 792 l 369 792 l 369 843 l 593 843 l 593 953 q 497 976 536 964 l 497 988 l 718 1011 l 718 843 l 785 843 l 785 792 l 718 792 l 718 53 q 814 31 774 42 l 814 21 l 621 -7 q 608 115 614 38 q 504 19 572 51 q 350 -14 436 -14 m 385 35 q 535 92 478 35 q 593 238 593 150 l 593 547 q 396 654 503 654 q 223 565 279 654 q 167 340 167 475 q 219 115 167 196 q 385 35 272 35 z "},"ḍ":{"ha":821,"x_min":42,"x_max":814,"o":"m 350 -14 q 123 73 204 -14 q 42 342 42 160 q 129 608 42 511 q 367 704 217 704 q 487 685 431 704 q 593 610 543 665 l 593 924 q 497 949 535 935 l 497 958 l 718 982 l 718 53 q 814 31 774 42 l 814 21 l 621 -7 q 608 115 614 38 q 504 19 572 51 q 350 -14 436 -14 m 385 35 q 535 92 478 35 q 593 238 593 150 l 593 547 q 396 654 503 654 q 223 565 279 654 q 167 340 167 475 q 219 115 167 196 q 385 35 272 35 m 399 -210 q 353 -192 371 -210 q 336 -147 336 -175 q 353 -100 336 -118 q 399 -82 371 -82 q 444 -100 426 -82 q 461 -147 461 -118 q 444 -192 461 -175 q 399 -210 426 -210 z "},"ḏ":{"ha":821,"x_min":42,"x_max":814,"o":"m 350 -14 q 123 73 204 -14 q 42 342 42 160 q 129 608 42 511 q 367 704 217 704 q 487 685 431 704 q 593 610 543 665 l 593 924 q 497 949 535 935 l 497 958 l 718 982 l 718 53 q 814 31 774 42 l 814 21 l 621 -7 q 608 115 614 38 q 504 19 572 51 q 350 -14 436 -14 m 385 35 q 535 92 478 35 q 593 238 593 150 l 593 547 q 396 654 503 654 q 223 565 279 654 q 167 340 167 475 q 219 115 167 196 q 385 35 272 35 m 174 -96 l 636 -96 l 636 -144 l 174 -144 l 174 -96 z "},"e":{"ha":742,"x_min":38,"x_max":699,"o":"m 699 344 l 164 344 q 234 121 165 208 q 433 33 303 33 q 549 52 489 33 q 654 101 610 71 l 667 65 q 556 9 626 32 q 403 -14 486 -14 q 210 31 293 -14 q 83 158 128 76 q 38 344 38 239 q 131 610 38 515 q 389 704 225 704 q 563 660 493 704 q 665 541 632 615 q 699 376 699 467 l 699 344 m 588 393 q 568 515 588 456 q 505 615 549 575 q 392 654 461 654 q 231 581 288 654 q 165 393 175 507 l 588 393 z "},"é":{"ha":742,"x_min":38,"x_max":699,"o":"m 285 811 l 263 843 l 421 990 q 483 1022 453 1022 q 515 1011 504 1022 q 526 985 526 1000 q 482 925 526 953 l 285 811 m 699 344 l 164 344 q 234 121 165 208 q 433 33 303 33 q 549 52 489 33 q 654 101 610 71 l 667 65 q 556 9 626 32 q 403 -14 486 -14 q 210 31 293 -14 q 83 158 128 76 q 38 344 38 239 q 131 610 38 515 q 389 704 225 704 q 563 660 493 704 q 665 541 632 615 q 699 376 699 467 l 699 344 m 588 393 q 568 515 588 456 q 505 615 549 575 q 392 654 461 654 q 231 581 288 654 q 165 393 175 507 l 588 393 z "},"ĕ":{"ha":742,"x_min":38,"x_max":699,"o":"m 371 799 q 222 842 279 799 q 154 971 165 885 l 232 971 q 278 875 239 900 q 371 850 317 850 q 463 875 425 850 q 508 971 501 900 l 586 971 q 519 842 576 885 q 371 799 461 799 m 699 344 l 164 344 q 234 121 165 208 q 433 33 303 33 q 549 52 489 33 q 654 101 610 71 l 667 65 q 556 9 626 32 q 403 -14 486 -14 q 210 31 293 -14 q 83 158 128 76 q 38 344 38 239 q 131 610 38 515 q 389 704 225 704 q 563 660 493 704 q 665 541 632 615 q 699 376 699 467 l 699 344 m 588 393 q 568 515 588 456 q 505 615 549 575 q 392 654 461 654 q 231 581 288 654 q 165 393 175 507 l 588 393 z "},"ě":{"ha":742,"x_min":38,"x_max":699,"o":"m 360 811 q 276 901 331 851 q 178 982 222 951 l 229 1026 q 315 953 271 996 q 386 875 360 911 l 393 875 q 463 953 419 911 q 549 1026 507 996 l 601 982 q 503 903 557 953 q 419 811 449 853 l 360 811 m 699 344 l 164 344 q 234 121 165 208 q 433 33 303 33 q 549 52 489 33 q 654 101 610 71 l 667 65 q 556 9 626 32 q 403 -14 486 -14 q 210 31 293 -14 q 83 158 128 76 q 38 344 38 239 q 131 610 38 515 q 389 704 225 704 q 563 660 493 704 q 665 541 632 615 q 699 376 699 467 l 699 344 m 588 393 q 568 515 588 456 q 505 615 549 575 q 392 654 461 654 q 231 581 288 654 q 165 393 175 507 l 588 393 z "},"ê":{"ha":742,"x_min":38,"x_max":699,"o":"m 375 954 q 304 876 349 918 q 218 803 260 833 l 167 847 q 265 927 211 878 q 349 1017 319 976 l 408 1017 q 492 926 438 976 q 590 847 546 876 l 538 803 q 452 876 496 833 q 382 954 408 918 l 375 954 m 699 344 l 164 344 q 234 121 165 208 q 433 33 303 33 q 549 52 489 33 q 654 101 610 71 l 667 65 q 556 9 626 32 q 403 -14 486 -14 q 210 31 293 -14 q 83 158 128 76 q 38 344 38 239 q 131 610 38 515 q 389 704 225 704 q 563 660 493 704 q 665 541 632 615 q 699 376 699 467 l 699 344 m 588 393 q 568 515 588 456 q 505 615 549 575 q 392 654 461 654 q 231 581 288 654 q 165 393 175 507 l 588 393 z "},"ế":{"ha":742,"x_min":38,"x_max":753,"o":"m 718 1154 q 743 1145 733 1154 q 753 1122 753 1136 q 738 1085 753 1104 q 690 1049 722 1065 l 544 969 l 524 999 l 636 1108 q 718 1154 681 1154 m 376 954 q 306 876 350 918 q 221 803 261 833 l 168 847 q 265 926 211 876 q 350 1017 319 976 l 408 1017 q 492 927 438 976 q 590 847 547 878 l 539 803 q 453 876 497 833 q 382 954 410 918 l 376 954 m 389 704 q 563 660 493 704 q 665 541 632 615 q 699 376 699 467 l 699 344 l 164 344 q 234 121 165 208 q 433 33 303 33 q 549 52 489 33 q 654 101 610 71 l 667 65 q 556 9 626 32 q 403 -14 486 -14 q 210 31 293 -14 q 83 158 128 76 q 38 344 38 239 q 131 610 38 515 q 389 704 225 704 m 588 393 q 568 515 588 456 q 505 615 549 575 q 392 654 461 654 q 231 581 288 654 q 165 393 175 507 l 588 393 z "},"ệ":{"ha":742,"x_min":38,"x_max":699,"o":"m 375 954 q 304 876 349 918 q 218 803 260 833 l 167 847 q 265 927 211 878 q 349 1017 319 976 l 408 1017 q 492 926 438 976 q 590 847 546 876 l 538 803 q 452 876 496 833 q 382 954 408 918 l 375 954 m 699 344 l 164 344 q 234 121 165 208 q 433 33 303 33 q 549 52 489 33 q 654 101 610 71 l 667 65 q 556 9 626 32 q 403 -14 486 -14 q 210 31 293 -14 q 83 158 128 76 q 38 344 38 239 q 131 610 38 515 q 389 704 225 704 q 563 660 493 704 q 665 541 632 615 q 699 376 699 467 l 699 344 m 588 393 q 568 515 588 456 q 505 615 549 575 q 392 654 461 654 q 231 581 288 654 q 165 393 175 507 l 588 393 m 379 -82 q 424 -100 407 -82 q 442 -147 442 -118 q 424 -192 442 -175 q 379 -210 407 -210 q 334 -192 351 -210 q 317 -147 317 -175 q 334 -100 317 -118 q 379 -82 351 -82 z "},"ề":{"ha":742,"x_min":17,"x_max":699,"o":"m 93 1040 q 37 1082 57 1060 q 17 1122 17 1104 q 26 1145 17 1136 q 51 1154 36 1154 q 146 1097 89 1154 l 246 999 l 224 969 l 93 1040 m 168 847 q 265 926 211 876 q 350 1017 319 976 l 408 1017 q 492 927 438 976 q 590 847 547 878 l 539 803 q 453 876 497 833 q 382 954 410 918 l 376 954 q 306 876 350 918 q 221 803 261 833 l 168 847 m 699 344 l 164 344 q 234 121 165 208 q 433 33 303 33 q 549 52 489 33 q 654 101 610 71 l 667 65 q 556 9 626 32 q 403 -14 486 -14 q 210 31 293 -14 q 83 158 128 76 q 38 344 38 239 q 131 610 38 515 q 389 704 225 704 q 563 660 493 704 q 665 541 632 615 q 699 376 699 467 l 699 344 m 588 393 q 568 515 588 456 q 505 615 549 575 q 392 654 461 654 q 231 581 288 654 q 165 393 175 507 l 588 393 z "},"ể":{"ha":742,"x_min":38,"x_max":699,"o":"m 551 1171 q 482 1153 517 1171 l 474 1190 q 565 1210 518 1210 q 650 1187 615 1210 q 685 1118 685 1164 q 583 1031 685 1039 l 571 957 l 522 957 l 517 1061 l 546 1061 q 601 1076 582 1061 q 621 1119 621 1092 q 603 1157 621 1143 q 551 1171 586 1171 m 376 954 q 306 876 350 918 q 221 803 261 833 l 168 847 q 265 926 211 876 q 350 1017 319 976 l 408 1017 q 492 927 438 976 q 590 847 547 878 l 539 803 q 453 876 497 833 q 382 954 410 918 l 376 954 m 699 344 l 164 344 q 234 121 165 208 q 433 33 303 33 q 549 52 489 33 q 654 101 610 71 l 667 65 q 556 9 626 32 q 403 -14 486 -14 q 210 31 293 -14 q 83 158 128 76 q 38 344 38 239 q 131 610 38 515 q 389 704 225 704 q 563 660 493 704 q 665 541 632 615 q 699 376 699 467 l 699 344 m 588 393 q 568 515 588 456 q 505 615 549 575 q 392 654 461 654 q 231 581 288 654 q 165 393 175 507 l 588 393 z "},"ễ":{"ha":742,"x_min":38,"x_max":699,"o":"m 282 1136 q 229 1115 251 1136 q 199 1057 207 1093 l 156 1057 q 199 1162 165 1128 q 285 1196 232 1196 q 338 1185 313 1196 q 397 1153 364 1174 q 442 1128 424 1136 q 478 1119 461 1119 q 531 1140 508 1119 q 564 1203 554 1160 l 606 1203 q 565 1097 597 1135 q 475 1058 532 1058 q 433 1067 454 1058 q 393 1087 413 1076 q 368 1100 374 1097 q 318 1127 338 1118 q 282 1136 299 1136 m 408 1017 q 492 927 438 976 q 590 847 547 878 l 539 803 q 453 876 497 833 q 382 954 410 918 l 376 954 q 306 876 350 918 q 221 803 261 833 l 168 847 q 265 926 211 876 q 350 1017 319 976 l 408 1017 m 699 344 l 164 344 q 234 121 165 208 q 433 33 303 33 q 549 52 489 33 q 654 101 610 71 l 667 65 q 556 9 626 32 q 403 -14 486 -14 q 210 31 293 -14 q 83 158 128 76 q 38 344 38 239 q 131 610 38 515 q 389 704 225 704 q 563 660 493 704 q 665 541 632 615 q 699 376 699 467 l 699 344 m 588 393 q 568 515 588 456 q 505 615 549 575 q 392 654 461 654 q 231 581 288 654 q 165 393 175 507 l 588 393 z "},"ë":{"ha":742,"x_min":38,"x_max":699,"o":"m 226 810 q 183 827 200 810 q 165 872 165 844 q 182 919 165 901 q 226 938 199 938 q 272 919 254 938 q 289 872 289 901 q 272 827 289 844 q 226 810 254 810 m 532 810 q 488 827 504 810 q 471 872 471 844 q 488 919 471 901 q 532 938 504 938 q 577 919 560 938 q 594 872 594 901 q 577 827 594 844 q 532 810 560 810 m 699 344 l 164 344 q 234 121 165 208 q 433 33 303 33 q 549 52 489 33 q 654 101 610 71 l 667 65 q 556 9 626 32 q 403 -14 486 -14 q 210 31 293 -14 q 83 158 128 76 q 38 344 38 239 q 131 610 38 515 q 389 704 225 704 q 563 660 493 704 q 665 541 632 615 q 699 376 699 467 l 699 344 m 588 393 q 568 515 588 456 q 505 615 549 575 q 392 654 461 654 q 231 581 288 654 q 165 393 175 507 l 588 393 z "},"ė":{"ha":742,"x_min":38,"x_max":699,"o":"m 386 810 q 340 827 357 810 q 324 872 324 844 q 340 919 324 901 q 386 938 357 938 q 431 919 414 938 q 447 872 447 901 q 430 827 447 844 q 386 810 413 810 m 699 344 l 164 344 q 234 121 165 208 q 433 33 303 33 q 549 52 489 33 q 654 101 610 71 l 667 65 q 556 9 626 32 q 403 -14 486 -14 q 210 31 293 -14 q 83 158 128 76 q 38 344 38 239 q 131 610 38 515 q 389 704 225 704 q 563 660 493 704 q 665 541 632 615 q 699 376 699 467 l 699 344 m 588 393 q 568 515 588 456 q 505 615 549 575 q 392 654 461 654 q 231 581 288 654 q 165 393 175 507 l 588 393 z "},"ẹ":{"ha":742,"x_min":38,"x_max":699,"o":"m 699 344 l 164 344 q 234 121 165 208 q 433 33 303 33 q 549 52 489 33 q 654 101 610 71 l 667 65 q 556 9 626 32 q 403 -14 486 -14 q 210 31 293 -14 q 83 158 128 76 q 38 344 38 239 q 131 610 38 515 q 389 704 225 704 q 563 660 493 704 q 665 541 632 615 q 699 376 699 467 l 699 344 m 588 393 q 568 515 588 456 q 505 615 549 575 q 392 654 461 654 q 231 581 288 654 q 165 393 175 507 l 588 393 m 381 -82 q 426 -100 408 -82 q 443 -147 443 -118 q 426 -192 443 -175 q 381 -210 408 -210 q 335 -192 353 -210 q 318 -147 318 -175 q 335 -100 318 -118 q 381 -82 353 -82 z "},"è":{"ha":742,"x_min":38,"x_max":699,"o":"m 290 925 q 243 985 243 953 q 255 1011 243 1000 q 288 1022 267 1022 q 349 992 318 1022 l 510 843 l 488 811 l 290 925 m 699 344 l 164 344 q 234 121 165 208 q 433 33 303 33 q 549 52 489 33 q 654 101 610 71 l 667 65 q 556 9 626 32 q 403 -14 486 -14 q 210 31 293 -14 q 83 158 128 76 q 38 344 38 239 q 131 610 38 515 q 389 704 225 704 q 563 660 493 704 q 665 541 632 615 q 699 376 699 467 l 699 344 m 588 393 q 568 515 588 456 q 505 615 549 575 q 392 654 461 654 q 231 581 288 654 q 165 393 175 507 l 588 393 z "},"ẻ":{"ha":742,"x_min":38,"x_max":699,"o":"m 375 1068 q 294 1046 335 1068 l 285 1088 q 392 1111 332 1111 q 488 1083 449 1111 q 528 1001 528 1056 q 497 928 528 954 q 411 896 467 901 l 397 807 l 343 807 l 336 932 l 369 932 q 434 951 411 932 q 457 1004 457 971 q 435 1050 457 1032 q 375 1068 414 1068 m 699 344 l 164 344 q 234 121 165 208 q 433 33 303 33 q 549 52 489 33 q 654 101 610 71 l 667 65 q 556 9 626 32 q 403 -14 486 -14 q 210 31 293 -14 q 83 158 128 76 q 38 344 38 239 q 131 610 38 515 q 389 704 225 704 q 563 660 493 704 q 665 541 632 615 q 699 376 699 467 l 699 344 m 588 393 q 568 515 588 456 q 505 615 549 575 q 392 654 461 654 q 231 581 288 654 q 165 393 175 507 l 588 393 z "},"ē":{"ha":742,"x_min":38,"x_max":699,"o":"m 606 811 l 143 811 l 143 860 l 606 860 l 606 811 m 699 344 l 164 344 q 234 121 165 208 q 433 33 303 33 q 549 52 489 33 q 654 101 610 71 l 667 65 q 556 9 626 32 q 403 -14 486 -14 q 210 31 293 -14 q 83 158 128 76 q 38 344 38 239 q 131 610 38 515 q 389 704 225 704 q 563 660 493 704 q 665 541 632 615 q 699 376 699 467 l 699 344 m 588 393 q 568 515 588 456 q 505 615 549 575 q 392 654 461 654 q 231 581 288 654 q 165 393 175 507 l 588 393 z "},"ę":{"ha":742,"x_min":38,"x_max":707,"o":"m 632 -156 q 707 -136 669 -156 l 707 -193 q 590 -217 656 -217 q 486 -184 524 -217 q 449 -106 449 -151 q 489 -7 449 -51 q 403 -14 444 -14 q 210 31 293 -14 q 83 158 128 76 q 38 344 38 239 q 131 610 38 515 q 389 704 225 704 q 563 660 493 704 q 665 541 632 615 q 699 376 699 467 l 699 344 l 164 344 q 234 121 165 208 q 433 33 303 33 q 549 52 489 33 q 654 101 610 71 l 667 65 q 622 36 650 53 q 567 -19 589 13 q 546 -85 546 -51 q 570 -137 546 -119 q 632 -156 594 -156 m 392 654 q 231 581 288 654 q 165 393 175 507 l 588 393 q 568 515 588 456 q 505 615 549 575 q 392 654 461 654 z "},"ẽ":{"ha":742,"x_min":38,"x_max":699,"o":"m 278 890 q 222 869 246 890 q 190 811 199 847 l 144 811 q 190 916 154 882 q 281 950 225 950 q 337 939 310 950 q 400 907 364 928 q 446 882 426 890 q 483 874 465 874 q 540 894 515 874 q 574 957 564 914 l 618 957 q 574 851 608 889 q 481 813 540 813 q 434 822 457 813 q 368 854 411 832 q 317 881 338 872 q 278 890 296 890 m 699 344 l 164 344 q 234 121 165 208 q 433 33 303 33 q 549 52 489 33 q 654 101 610 71 l 667 65 q 556 9 626 32 q 403 -14 486 -14 q 210 31 293 -14 q 83 158 128 76 q 38 344 38 239 q 131 610 38 515 q 389 704 225 704 q 563 660 493 704 q 665 541 632 615 q 699 376 699 467 l 699 344 m 588 393 q 568 515 588 456 q 505 615 549 575 q 392 654 461 654 q 231 581 288 654 q 165 393 175 507 l 588 393 z "},"f":{"ha":556,"x_min":36,"x_max":519,"o":"m 419 943 q 327 902 361 943 q 293 776 293 861 l 293 692 l 503 692 l 503 642 l 293 642 l 293 42 q 410 15 358 32 l 410 0 l 56 0 l 56 15 q 168 42 126 38 l 168 642 l 36 642 l 36 692 l 168 692 l 168 750 q 222 932 168 869 q 378 994 275 994 q 519 972 453 994 l 510 925 q 419 943 463 943 z "},"g":{"ha":731,"x_min":51,"x_max":703,"o":"m 506 163 q 641 115 593 163 q 689 -14 689 68 q 344 -212 689 -212 q 130 -167 208 -212 q 51 -39 51 -122 q 125 83 51 38 q 82 123 96 99 q 68 175 68 147 q 147 297 68 250 q 78 371 101 325 q 54 475 54 417 q 133 644 54 583 q 349 704 211 704 q 563 644 486 704 q 595 690 582 665 q 608 731 608 715 l 703 731 q 672 663 696 697 q 606 600 647 628 q 643 475 643 550 q 565 307 643 367 q 349 247 486 247 q 211 267 274 247 q 167 207 167 239 q 192 172 167 181 q 271 163 217 163 l 506 163 m 349 654 q 222 603 265 654 q 178 475 178 553 q 222 347 178 397 q 349 296 265 296 q 476 347 432 296 q 519 475 519 397 q 476 603 519 553 q 349 654 432 654 m 354 -160 q 515 -128 456 -160 q 575 -32 575 -97 q 546 37 575 13 q 458 61 517 61 l 229 61 q 186 64 214 61 q 151 -31 151 26 q 206 -126 151 -93 q 354 -160 261 -160 z "},"ğ":{"ha":731,"x_min":51,"x_max":703,"o":"m 367 799 q 218 842 275 799 q 150 971 161 885 l 228 971 q 274 875 235 900 q 367 850 313 850 q 459 875 421 850 q 504 971 497 900 l 582 971 q 515 842 572 885 q 367 799 457 799 m 506 163 q 641 115 593 163 q 689 -14 689 68 q 344 -212 689 -212 q 130 -167 208 -212 q 51 -39 51 -122 q 125 83 51 38 q 82 123 96 99 q 68 175 68 147 q 147 297 68 250 q 78 371 101 325 q 54 475 54 417 q 133 644 54 583 q 349 704 211 704 q 563 644 486 704 q 595 690 582 665 q 608 731 608 715 l 703 731 q 672 663 696 697 q 606 600 647 628 q 643 475 643 550 q 565 307 643 367 q 349 247 486 247 q 211 267 274 247 q 167 207 167 239 q 192 172 167 181 q 271 163 217 163 l 506 163 m 349 654 q 222 603 265 654 q 178 475 178 553 q 222 347 178 397 q 349 296 265 296 q 476 347 432 296 q 519 475 519 397 q 476 603 519 553 q 349 654 432 654 m 354 -160 q 515 -128 456 -160 q 575 -32 575 -97 q 546 37 575 13 q 458 61 517 61 l 229 61 q 186 64 214 61 q 151 -31 151 26 q 206 -126 151 -93 q 354 -160 261 -160 z "},"ǧ":{"ha":731,"x_min":51,"x_max":703,"o":"m 333 811 q 250 901 304 851 q 151 982 196 951 l 203 1026 q 289 953 244 996 q 360 875 333 911 l 367 875 q 437 953 393 911 q 522 1026 481 996 l 575 982 q 476 903 531 953 q 393 811 422 853 l 333 811 m 506 163 q 641 115 593 163 q 689 -14 689 68 q 344 -212 689 -212 q 130 -167 208 -212 q 51 -39 51 -122 q 125 83 51 38 q 82 123 96 99 q 68 175 68 147 q 147 297 68 250 q 78 371 101 325 q 54 475 54 417 q 133 644 54 583 q 349 704 211 704 q 563 644 486 704 q 595 690 582 665 q 608 731 608 715 l 703 731 q 672 663 696 697 q 606 600 647 628 q 643 475 643 550 q 565 307 643 367 q 349 247 486 247 q 211 267 274 247 q 167 207 167 239 q 192 172 167 181 q 271 163 217 163 l 506 163 m 349 654 q 222 603 265 654 q 178 475 178 553 q 222 347 178 397 q 349 296 265 296 q 476 347 432 296 q 519 475 519 397 q 476 603 519 553 q 349 654 432 654 m 354 -160 q 515 -128 456 -160 q 575 -32 575 -97 q 546 37 575 13 q 458 61 517 61 l 229 61 q 186 64 214 61 q 151 -31 151 26 q 206 -126 151 -93 q 354 -160 261 -160 z "},"ĝ":{"ha":731,"x_min":51,"x_max":703,"o":"m 364 954 q 293 876 338 918 q 207 803 249 833 l 156 847 q 254 927 200 878 q 338 1017 308 976 l 397 1017 q 481 926 426 976 q 579 847 535 876 l 526 803 q 441 876 485 833 q 371 954 397 918 l 364 954 m 506 163 q 641 115 593 163 q 689 -14 689 68 q 344 -212 689 -212 q 130 -167 208 -212 q 51 -39 51 -122 q 125 83 51 38 q 82 123 96 99 q 68 175 68 147 q 147 297 68 250 q 78 371 101 325 q 54 475 54 417 q 133 644 54 583 q 349 704 211 704 q 563 644 486 704 q 595 690 582 665 q 608 731 608 715 l 703 731 q 672 663 696 697 q 606 600 647 628 q 643 475 643 550 q 565 307 643 367 q 349 247 486 247 q 211 267 274 247 q 167 207 167 239 q 192 172 167 181 q 271 163 217 163 l 506 163 m 349 654 q 222 603 265 654 q 178 475 178 553 q 222 347 178 397 q 349 296 265 296 q 476 347 432 296 q 519 475 519 397 q 476 603 519 553 q 349 654 432 654 m 354 -160 q 515 -128 456 -160 q 575 -32 575 -97 q 546 37 575 13 q 458 61 517 61 l 229 61 q 186 64 214 61 q 151 -31 151 26 q 206 -126 151 -93 q 354 -160 261 -160 z "},"ģ":{"ha":731,"x_min":51,"x_max":703,"o":"m 365 807 q 302 832 322 807 q 282 899 282 857 q 310 1024 282 957 q 382 1131 339 1090 l 426 1096 q 381 1024 400 1065 q 358 942 363 983 q 372 943 364 943 q 421 924 401 943 q 440 875 440 906 q 418 825 440 843 q 365 807 396 807 m 506 163 q 641 115 593 163 q 689 -14 689 68 q 344 -212 689 -212 q 130 -167 208 -212 q 51 -39 51 -122 q 125 83 51 38 q 82 123 96 99 q 68 175 68 147 q 147 297 68 250 q 78 371 101 325 q 54 475 54 417 q 133 644 54 583 q 349 704 211 704 q 563 644 486 704 q 595 690 582 665 q 608 731 608 715 l 703 731 q 672 663 696 697 q 606 600 647 628 q 643 475 643 550 q 565 307 643 367 q 349 247 486 247 q 211 267 274 247 q 167 207 167 239 q 192 172 167 181 q 271 163 217 163 l 506 163 m 349 654 q 222 603 265 654 q 178 475 178 553 q 222 347 178 397 q 349 296 265 296 q 476 347 432 296 q 519 475 519 397 q 476 603 519 553 q 349 654 432 654 m 354 -160 q 515 -128 456 -160 q 575 -32 575 -97 q 546 37 575 13 q 458 61 517 61 l 229 61 q 186 64 214 61 q 151 -31 151 26 q 206 -126 151 -93 q 354 -160 261 -160 z "},"ġ":{"ha":731,"x_min":51,"x_max":703,"o":"m 360 810 q 314 827 331 810 q 297 872 297 844 q 314 919 297 901 q 360 938 331 938 q 404 919 388 938 q 421 872 421 901 q 403 827 421 844 q 360 810 386 810 m 506 163 q 641 115 593 163 q 689 -14 689 68 q 344 -212 689 -212 q 130 -167 208 -212 q 51 -39 51 -122 q 125 83 51 38 q 82 123 96 99 q 68 175 68 147 q 147 297 68 250 q 78 371 101 325 q 54 475 54 417 q 133 644 54 583 q 349 704 211 704 q 563 644 486 704 q 595 690 582 665 q 608 731 608 715 l 703 731 q 672 663 696 697 q 606 600 647 628 q 643 475 643 550 q 565 307 643 367 q 349 247 486 247 q 211 267 274 247 q 167 207 167 239 q 192 172 167 181 q 271 163 217 163 l 506 163 m 349 654 q 222 603 265 654 q 178 475 178 553 q 222 347 178 397 q 349 296 265 296 q 476 347 432 296 q 519 475 519 397 q 476 603 519 553 q 349 654 432 654 m 354 -160 q 515 -128 456 -160 q 575 -32 575 -97 q 546 37 575 13 q 458 61 517 61 l 229 61 q 186 64 214 61 q 151 -31 151 26 q 206 -126 151 -93 q 354 -160 261 -160 z "},"ḡ":{"ha":731,"x_min":51,"x_max":703,"o":"m 586 811 l 124 811 l 124 860 l 586 860 l 586 811 m 506 163 q 641 115 593 163 q 689 -14 689 68 q 344 -212 689 -212 q 130 -167 208 -212 q 51 -39 51 -122 q 125 83 51 38 q 82 123 96 99 q 68 175 68 147 q 147 297 68 250 q 78 371 101 325 q 54 475 54 417 q 133 644 54 583 q 349 704 211 704 q 563 644 486 704 q 595 690 582 665 q 608 731 608 715 l 703 731 q 672 663 696 697 q 606 600 647 628 q 643 475 643 550 q 565 307 643 367 q 349 247 486 247 q 211 267 274 247 q 167 207 167 239 q 192 172 167 181 q 271 163 217 163 l 506 163 m 349 654 q 222 603 265 654 q 178 475 178 553 q 222 347 178 397 q 349 296 265 296 q 476 347 432 296 q 519 475 519 397 q 476 603 519 553 q 349 654 432 654 m 354 -160 q 515 -128 456 -160 q 575 -32 575 -97 q 546 37 575 13 q 458 61 517 61 l 229 61 q 186 64 214 61 q 151 -31 151 26 q 206 -126 151 -93 q 354 -160 261 -160 z "},"h":{"ha":917,"x_min":43,"x_max":889,"o":"m 778 42 q 889 15 833 33 l 889 0 l 546 0 l 546 15 q 653 42 600 35 l 653 497 q 613 617 653 581 q 506 654 572 654 q 389 626 450 654 q 279 544 328 597 l 279 42 q 385 15 332 33 l 385 0 l 43 0 l 43 15 q 154 42 99 36 l 154 924 q 57 949 96 935 l 57 958 l 279 982 l 279 597 q 398 674 328 644 q 549 704 468 704 q 715 651 651 704 q 778 508 778 599 l 778 42 z "},"ħ":{"ha":917,"x_min":43,"x_max":889,"o":"m 778 42 q 889 15 833 33 l 889 0 l 546 0 l 546 15 q 653 42 600 35 l 653 497 q 613 617 653 581 q 506 654 572 654 q 389 626 450 654 q 279 544 328 597 l 279 42 q 385 15 332 33 l 385 0 l 43 0 l 43 15 q 154 42 99 36 l 154 789 l 69 789 l 69 842 l 154 842 l 154 924 q 57 949 96 935 l 57 958 l 279 982 l 279 842 l 485 842 l 485 789 l 279 789 l 279 597 q 398 674 328 644 q 549 704 468 704 q 715 651 651 704 q 778 508 778 599 l 778 42 z "},"ḫ":{"ha":917,"x_min":43,"x_max":889,"o":"m 778 42 q 889 15 833 33 l 889 0 l 546 0 l 546 15 q 653 42 600 35 l 653 497 q 613 617 653 581 q 506 654 572 654 q 389 626 450 654 q 279 544 328 597 l 279 42 q 385 15 332 33 l 385 0 l 43 0 l 43 15 q 154 42 99 36 l 154 924 q 57 949 96 935 l 57 958 l 279 982 l 279 597 q 398 674 328 644 q 549 704 468 704 q 715 651 651 704 q 778 508 778 599 l 778 42 m 465 -192 q 558 -166 519 -192 q 603 -69 596 -140 l 681 -69 q 613 -199 671 -156 q 465 -242 556 -242 q 317 -199 374 -242 q 249 -69 260 -156 l 326 -69 q 465 -192 339 -192 z "},"ĥ":{"ha":917,"x_min":43,"x_max":889,"o":"m 471 1235 q 400 1156 444 1199 q 314 1083 356 1114 l 263 1128 q 361 1208 307 1158 q 444 1297 415 1257 l 504 1297 q 588 1207 533 1257 q 686 1128 642 1157 l 633 1083 q 548 1156 592 1114 q 478 1235 504 1199 l 471 1235 m 778 42 q 889 15 833 33 l 889 0 l 546 0 l 546 15 q 653 42 600 35 l 653 497 q 613 617 653 581 q 506 654 572 654 q 389 626 450 654 q 279 544 328 597 l 279 42 q 385 15 332 33 l 385 0 l 43 0 l 43 15 q 154 42 99 36 l 154 924 q 57 949 96 935 l 57 958 l 279 982 l 279 597 q 398 674 328 644 q 549 704 468 704 q 715 651 651 704 q 778 508 778 599 l 778 42 z "},"ḥ":{"ha":917,"x_min":43,"x_max":889,"o":"m 778 42 q 889 15 833 33 l 889 0 l 546 0 l 546 15 q 653 42 600 35 l 653 497 q 613 617 653 581 q 506 654 572 654 q 389 626 450 654 q 279 544 328 597 l 279 42 q 385 15 332 33 l 385 0 l 43 0 l 43 15 q 154 42 99 36 l 154 924 q 57 949 96 935 l 57 958 l 279 982 l 279 597 q 398 674 328 644 q 549 704 468 704 q 715 651 651 704 q 778 508 778 599 l 778 42 m 467 -82 q 512 -100 494 -82 q 529 -147 529 -118 q 512 -192 529 -175 q 467 -210 494 -210 q 422 -192 439 -210 q 404 -147 404 -175 q 422 -100 404 -118 q 467 -82 439 -82 z "},"i":{"ha":421,"x_min":36,"x_max":383,"o":"m 200 765 q 144 786 165 765 q 122 840 122 807 q 144 895 122 874 q 200 917 165 917 q 256 895 235 917 q 278 840 278 874 q 256 786 278 807 q 200 765 235 765 m 36 15 q 100 33 63 25 q 147 42 138 40 l 147 643 q 50 667 92 653 l 50 678 l 272 700 l 272 42 q 383 15 336 31 l 383 0 l 36 0 l 36 15 z "},"ı":{"ha":449,"x_min":50,"x_max":397,"o":"m 50 15 q 114 33 76 25 q 161 42 151 40 l 161 643 q 64 667 106 653 l 64 678 l 286 700 l 286 42 q 397 15 350 31 l 397 0 l 50 0 l 50 15 z "},"í":{"ha":449,"x_min":50,"x_max":397,"o":"m 85 843 l 243 990 q 306 1022 275 1022 q 338 1011 326 1022 q 349 985 349 1000 q 304 925 349 953 l 107 811 l 85 843 m 50 15 q 114 33 76 25 q 161 42 151 40 l 161 643 q 64 667 106 653 l 64 678 l 286 700 l 286 42 q 397 15 350 31 l 397 0 l 50 0 l 50 15 z "},"ĭ":{"ha":449,"x_min":6,"x_max":438,"o":"m 222 807 q 74 850 131 807 q 6 979 17 893 l 83 979 q 130 883 92 908 q 222 858 168 858 q 315 883 276 858 q 360 979 353 908 l 438 979 q 370 850 428 893 q 222 807 313 807 m 50 15 q 114 33 76 25 q 161 42 151 40 l 161 643 q 64 667 106 653 l 64 678 l 286 700 l 286 42 q 397 15 350 31 l 397 0 l 50 0 l 50 15 z "},"ǐ":{"ha":449,"x_min":11,"x_max":435,"o":"m 193 811 q 110 901 164 851 q 11 982 56 951 l 64 1026 q 149 953 106 996 q 219 875 193 911 l 226 875 q 298 955 254 913 q 382 1026 342 997 l 435 982 q 336 901 390 951 q 253 811 282 851 l 193 811 m 50 15 q 114 33 76 25 q 161 42 151 40 l 161 643 q 64 667 106 653 l 64 678 l 286 700 l 286 42 q 397 15 350 31 l 397 0 l 50 0 l 50 15 z "},"î":{"ha":449,"x_min":11,"x_max":435,"o":"m 11 847 q 110 927 56 878 q 193 1017 164 976 l 253 1017 q 336 926 282 976 q 435 847 390 876 l 382 803 q 297 876 340 833 q 226 954 253 918 l 219 954 q 149 876 193 918 q 63 803 104 833 l 11 847 m 50 15 q 114 33 76 25 q 161 42 151 40 l 161 643 q 64 667 106 653 l 64 678 l 286 700 l 286 42 q 397 15 350 31 l 397 0 l 50 0 l 50 15 z "},"ï":{"ha":449,"x_min":8,"x_max":438,"o":"m 69 810 q 26 827 43 810 q 8 872 8 844 q 25 919 8 901 q 69 938 42 938 q 115 919 97 938 q 132 872 132 901 q 115 827 132 844 q 69 810 97 810 m 375 810 q 331 827 347 810 q 314 872 314 844 q 331 919 314 901 q 375 938 347 938 q 420 919 403 938 q 438 872 438 901 q 420 827 438 844 q 375 810 403 810 m 50 15 q 114 33 76 25 q 161 42 151 40 l 161 643 q 64 667 106 653 l 64 678 l 286 700 l 286 42 q 397 15 350 31 l 397 0 l 50 0 l 50 15 z "},"ị":{"ha":421,"x_min":36,"x_max":383,"o":"m 200 765 q 144 786 165 765 q 122 840 122 807 q 144 895 122 874 q 200 917 165 917 q 256 895 235 917 q 278 840 278 874 q 256 786 278 807 q 200 765 235 765 m 36 15 q 100 33 63 25 q 147 42 138 40 l 147 643 q 50 667 92 653 l 50 678 l 272 700 l 272 42 q 383 15 336 31 l 383 0 l 36 0 l 36 15 m 208 -210 q 163 -192 181 -210 q 146 -147 146 -175 q 163 -100 146 -118 q 208 -82 181 -82 q 253 -100 236 -82 q 271 -147 271 -118 q 253 -192 271 -175 q 208 -210 236 -210 z "},"ì":{"ha":449,"x_min":50,"x_max":397,"o":"m 104 925 q 57 985 57 953 q 69 1011 57 1000 q 101 1022 81 1022 q 163 992 132 1022 l 324 843 l 301 811 l 104 925 m 50 15 q 114 33 76 25 q 161 42 151 40 l 161 643 q 64 667 106 653 l 64 678 l 286 700 l 286 42 q 397 15 350 31 l 397 0 l 50 0 l 50 15 z "},"ỉ":{"ha":449,"x_min":50,"x_max":397,"o":"m 174 932 l 207 932 q 272 951 249 932 q 294 1004 294 971 q 273 1050 294 1032 q 213 1068 251 1068 q 132 1046 172 1068 l 122 1088 q 229 1111 169 1111 q 326 1083 286 1111 q 365 1001 365 1056 q 335 928 365 954 q 249 896 304 901 l 235 807 l 181 807 l 174 932 m 50 15 q 114 33 76 25 q 161 42 151 40 l 161 643 q 64 667 106 653 l 64 678 l 286 700 l 286 42 q 397 15 350 31 l 397 0 l 50 0 l 50 15 z "},"ĳ":{"ha":850,"x_min":36,"x_max":733,"o":"m 200 765 q 144 786 165 765 q 122 840 122 807 q 144 895 122 874 q 200 917 165 917 q 256 895 235 917 q 278 840 278 874 q 256 786 278 807 q 200 765 235 765 m 656 765 q 600 786 621 765 q 579 840 579 807 q 600 895 579 874 q 656 917 621 917 q 712 895 690 917 q 733 840 733 874 q 712 786 733 807 q 656 765 690 765 m 36 15 q 100 33 63 25 q 147 42 138 40 l 147 643 q 50 667 92 653 l 50 678 l 272 700 l 272 42 q 383 15 336 31 l 383 0 l 36 0 l 36 15 m 536 -171 q 396 -144 457 -171 l 404 -99 q 493 -118 443 -118 q 575 -86 547 -118 q 603 7 603 -54 l 603 643 q 507 667 543 654 l 507 678 l 729 700 l 729 13 q 676 -126 729 -81 q 536 -171 624 -171 z "},"ī":{"ha":449,"x_min":-8,"x_max":454,"o":"m -8 860 l 454 860 l 454 811 l -8 811 l -8 860 m 50 15 q 114 33 76 25 q 161 42 151 40 l 161 643 q 64 667 106 653 l 64 678 l 286 700 l 286 42 q 397 15 350 31 l 397 0 l 50 0 l 50 15 z "},"į":{"ha":421,"x_min":36,"x_max":447,"o":"m 200 765 q 144 786 165 765 q 122 840 122 807 q 144 895 122 874 q 200 917 165 917 q 256 895 235 917 q 278 840 278 874 q 256 786 278 807 q 200 765 235 765 m 372 -199 q 447 -179 410 -199 l 447 -236 q 331 -260 396 -260 q 226 -227 264 -260 q 189 -149 189 -194 q 220 -61 189 -101 q 304 0 251 -21 l 36 0 l 36 15 q 100 33 63 25 q 147 42 138 40 l 147 643 q 50 667 92 653 l 50 678 l 272 700 l 272 42 q 383 15 336 31 l 383 0 l 374 0 q 311 -57 336 -22 q 286 -128 286 -92 q 310 -181 286 -162 q 372 -199 335 -199 z "},"ĩ":{"ha":449,"x_min":-14,"x_max":460,"o":"m -14 811 q 31 916 -4 882 q 122 950 67 950 q 178 939 151 950 q 242 907 206 928 q 288 882 268 890 q 325 874 307 874 q 381 894 357 874 q 415 957 406 914 l 460 957 q 416 851 450 889 q 322 813 382 813 q 276 822 299 813 q 210 854 253 832 q 158 881 179 872 q 119 890 138 890 q 64 869 88 890 q 32 811 40 847 l -14 811 m 50 15 q 114 33 76 25 q 161 42 151 40 l 161 643 q 64 667 106 653 l 64 678 l 286 700 l 286 42 q 397 15 350 31 l 397 0 l 50 0 l 50 15 z "},"j":{"ha":429,"x_min":-25,"x_max":313,"o":"m 235 765 q 179 786 200 765 q 158 840 158 807 q 179 895 158 874 q 235 917 200 917 q 291 895 269 917 q 313 840 313 874 q 291 786 313 807 q 235 765 269 765 m 115 -171 q -25 -144 36 -171 l -17 -99 q 72 -118 22 -118 q 154 -86 126 -118 q 182 7 182 -54 l 182 643 q 86 667 122 654 l 86 678 l 308 700 l 308 13 q 256 -126 308 -81 q 115 -171 203 -171 z "},"ȷ":{"ha":429,"x_min":-25,"x_max":308,"o":"m 115 -171 q -25 -144 36 -171 l -17 -99 q 72 -118 22 -118 q 154 -86 126 -118 q 182 7 182 -54 l 182 643 q 86 667 122 654 l 86 678 l 308 700 l 308 13 q 256 -126 308 -81 q 115 -171 203 -171 z "},"ĵ":{"ha":429,"x_min":-25,"x_max":433,"o":"m 10 847 q 108 927 54 878 q 192 1017 163 976 l 251 1017 q 335 926 281 976 q 433 847 389 876 l 381 803 q 295 876 339 833 q 225 954 251 918 l 218 954 q 147 876 192 918 q 61 803 103 833 l 10 847 m 115 -171 q -25 -144 36 -171 l -17 -99 q 72 -118 22 -118 q 154 -86 126 -118 q 182 7 182 -54 l 182 643 q 86 667 122 654 l 86 678 l 308 700 l 308 13 q 256 -126 308 -81 q 115 -171 203 -171 z "},"k":{"ha":875,"x_min":43,"x_max":851,"o":"m 742 42 q 851 15 793 35 l 851 0 l 653 0 l 369 338 l 279 247 l 279 42 q 390 15 339 32 l 390 0 l 43 0 l 43 15 q 154 42 104 36 l 154 924 q 57 949 96 935 l 57 958 l 279 982 l 279 321 l 579 625 q 586 633 586 629 q 589 644 589 639 q 553 656 575 650 q 522 666 542 660 q 493 676 503 672 l 493 692 l 788 692 l 788 676 q 717 653 772 668 q 667 638 674 642 l 439 408 l 742 42 z "},"ķ":{"ha":875,"x_min":43,"x_max":851,"o":"m 742 42 q 851 15 793 35 l 851 0 l 653 0 l 369 338 l 279 247 l 279 42 q 390 15 339 32 l 390 0 l 43 0 l 43 15 q 154 42 104 36 l 154 924 q 57 949 96 935 l 57 958 l 279 982 l 279 321 l 579 625 q 586 633 586 629 q 589 644 589 639 q 553 656 575 650 q 522 666 542 660 q 493 676 503 672 l 493 692 l 788 692 l 788 676 q 717 653 772 668 q 667 638 674 642 l 439 408 l 742 42 m 461 -96 q 524 -121 504 -96 q 544 -187 544 -146 q 516 -312 544 -246 q 444 -419 488 -379 l 400 -385 q 445 -313 426 -354 q 468 -231 464 -272 q 454 -232 464 -232 q 406 -213 425 -232 q 386 -164 386 -194 q 408 -114 386 -132 q 461 -96 431 -96 z "},"ĸ":{"ha":875,"x_min":43,"x_max":851,"o":"m 742 42 q 851 15 793 35 l 851 0 l 653 0 l 369 338 l 279 247 l 279 42 q 390 15 339 32 l 390 0 l 43 0 l 43 15 q 154 42 104 36 l 154 650 q 57 674 99 660 l 57 685 l 279 707 l 279 319 l 579 625 q 594 643 592 638 l 557 656 q 493 676 517 665 l 493 692 l 788 692 l 788 676 q 717 653 772 668 q 667 638 674 642 l 439 408 l 742 42 z "},"l":{"ha":435,"x_min":43,"x_max":390,"o":"m 43 15 q 154 42 74 25 l 154 924 q 57 949 96 935 l 57 958 l 279 982 l 279 42 q 390 15 339 32 l 390 0 l 43 0 l 43 15 z "},"ĺ":{"ha":435,"x_min":43,"x_max":390,"o":"m 103 1104 l 261 1251 q 324 1283 293 1283 q 356 1272 344 1283 q 367 1246 367 1261 q 322 1186 367 1214 l 125 1072 l 103 1104 m 43 15 q 154 42 74 25 l 154 924 q 57 949 96 935 l 57 958 l 279 982 l 279 42 q 390 15 339 32 l 390 0 l 43 0 l 43 15 z "},"ľ":{"ha":624,"x_min":43,"x_max":569,"o":"m 422 689 q 467 760 449 719 q 490 843 486 801 q 476 842 485 842 q 426 862 444 842 q 407 913 407 882 q 428 966 407 946 q 482 986 449 986 q 548 958 526 986 q 569 886 569 929 q 540 761 569 828 q 465 654 510 694 l 422 689 m 43 15 q 154 42 74 25 l 154 924 q 57 949 96 935 l 57 958 l 279 982 l 279 42 q 390 15 339 32 l 390 0 l 43 0 l 43 15 z "},"ļ":{"ha":435,"x_min":43,"x_max":390,"o":"m 43 15 q 154 42 74 25 l 154 924 q 57 949 96 935 l 57 958 l 279 982 l 279 42 q 390 15 339 32 l 390 0 l 43 0 l 43 15 m 151 -385 q 197 -313 178 -354 q 219 -231 215 -272 q 206 -232 215 -232 q 157 -213 176 -232 q 138 -164 138 -194 q 160 -114 138 -132 q 213 -96 182 -96 q 276 -121 256 -96 q 296 -187 296 -146 q 267 -312 296 -246 q 196 -419 239 -379 l 151 -385 z "},"ŀ":{"ha":583,"x_min":43,"x_max":517,"o":"m 43 15 q 154 42 74 25 l 154 924 q 57 949 96 935 l 57 958 l 279 982 l 279 42 q 390 15 339 32 l 390 0 l 43 0 l 43 15 m 450 413 q 401 431 419 413 q 383 479 383 450 q 401 528 383 510 q 450 547 419 547 q 499 528 481 547 q 517 479 517 510 q 499 431 517 450 q 450 413 481 413 z "},"ḷ":{"ha":435,"x_min":43,"x_max":390,"o":"m 43 15 q 154 42 74 25 l 154 924 q 57 949 96 935 l 57 958 l 279 982 l 279 42 q 390 15 339 32 l 390 0 l 43 0 l 43 15 m 215 -200 q 170 -183 188 -200 q 153 -136 153 -165 q 170 -91 153 -108 q 215 -74 188 -74 q 260 -91 243 -74 q 278 -136 278 -108 q 260 -183 278 -165 q 215 -200 243 -200 z "},"ḹ":{"ha":435,"x_min":-17,"x_max":446,"o":"m -17 1138 l 446 1138 l 446 1090 l -17 1090 l -17 1138 m 43 15 q 154 42 74 25 l 154 924 q 57 949 96 935 l 57 958 l 279 982 l 279 42 q 390 15 339 32 l 390 0 l 43 0 l 43 15 m 215 -200 q 170 -183 188 -200 q 153 -136 153 -165 q 170 -91 153 -108 q 215 -74 188 -74 q 260 -91 243 -74 q 278 -136 278 -108 q 260 -183 278 -165 q 215 -200 243 -200 z "},"ḻ":{"ha":435,"x_min":-17,"x_max":446,"o":"m 43 15 q 154 42 74 25 l 154 924 q 57 949 96 935 l 57 958 l 279 982 l 279 42 q 390 15 339 32 l 390 0 l 43 0 l 43 15 m -17 -96 l 446 -96 l 446 -144 l -17 -144 l -17 -96 z "},"ł":{"ha":442,"x_min":24,"x_max":424,"o":"m 282 419 l 282 42 q 393 15 338 33 l 393 0 l 44 0 l 44 15 q 157 42 72 24 l 157 371 l 24 318 l 24 383 l 157 436 l 157 924 q 60 949 96 935 l 60 958 l 282 982 l 282 486 l 424 542 l 424 475 l 282 419 z "},"m":{"ha":1317,"x_min":43,"x_max":1289,"o":"m 1178 42 q 1289 15 1233 33 l 1289 0 l 946 0 l 946 15 q 1051 42 1010 36 l 1051 497 q 1012 617 1051 581 q 906 654 972 654 q 808 626 856 654 q 722 550 761 597 q 726 508 726 529 l 726 42 q 831 15 781 33 l 831 0 l 501 0 l 501 15 q 606 42 567 36 l 606 497 q 463 654 606 654 q 365 626 413 654 q 279 549 317 597 l 279 42 q 390 15 335 33 l 390 0 l 43 0 l 43 15 q 154 42 99 33 l 154 644 q 57 669 96 656 l 57 679 l 279 703 l 279 603 q 376 674 319 644 q 500 704 432 704 q 633 674 578 704 q 711 589 688 644 q 813 671 751 638 q 949 704 874 704 q 1115 651 1051 704 q 1178 508 1178 599 l 1178 42 z "},"ṃ":{"ha":1317,"x_min":43,"x_max":1289,"o":"m 1178 42 q 1289 15 1233 33 l 1289 0 l 946 0 l 946 15 q 1051 42 1010 36 l 1051 497 q 1012 617 1051 581 q 906 654 972 654 q 808 626 856 654 q 722 550 761 597 q 726 508 726 529 l 726 42 q 831 15 781 33 l 831 0 l 501 0 l 501 15 q 606 42 567 36 l 606 497 q 463 654 606 654 q 365 626 413 654 q 279 549 317 597 l 279 42 q 390 15 335 33 l 390 0 l 43 0 l 43 15 q 154 42 99 33 l 154 644 q 57 669 96 656 l 57 679 l 279 703 l 279 603 q 376 674 319 644 q 500 704 432 704 q 633 674 578 704 q 711 589 688 644 q 813 671 751 638 q 949 704 874 704 q 1115 651 1051 704 q 1178 508 1178 599 l 1178 42 m 665 -82 q 710 -100 693 -82 q 728 -147 728 -118 q 710 -192 728 -175 q 665 -210 693 -210 q 620 -192 638 -210 q 603 -147 603 -175 q 620 -100 603 -118 q 665 -82 638 -82 z "},"n":{"ha":917,"x_min":43,"x_max":889,"o":"m 778 42 q 889 15 843 32 l 889 0 l 547 0 l 547 15 q 653 42 607 35 l 653 497 q 613 617 653 581 q 506 654 572 654 q 389 626 450 654 q 279 544 328 597 l 279 42 q 390 15 335 33 l 390 0 l 43 0 l 43 15 q 154 42 99 33 l 154 644 q 57 669 96 656 l 57 679 l 279 703 l 279 597 q 398 674 328 644 q 549 704 468 704 q 715 651 651 704 q 778 508 778 599 l 778 42 z "},"ń":{"ha":917,"x_min":43,"x_max":889,"o":"m 339 811 l 317 843 l 475 990 q 538 1022 507 1022 q 569 1011 558 1022 q 581 985 581 1000 q 536 925 581 953 l 339 811 m 778 42 q 889 15 843 32 l 889 0 l 547 0 l 547 15 q 653 42 607 35 l 653 497 q 613 617 653 581 q 506 654 572 654 q 389 626 450 654 q 279 544 328 597 l 279 42 q 390 15 335 33 l 390 0 l 43 0 l 43 15 q 154 42 99 33 l 154 644 q 57 669 96 656 l 57 679 l 279 703 l 279 597 q 398 674 328 644 q 549 704 468 704 q 715 651 651 704 q 778 508 778 599 l 778 42 z "},"ŉ":{"ha":1153,"x_min":42,"x_max":1125,"o":"m 117 871 q 180 846 160 871 q 200 779 200 821 q 172 654 200 721 q 100 547 143 588 l 56 582 q 101 653 82 613 q 124 736 119 694 l 110 735 q 61 753 81 735 q 42 803 42 772 q 64 853 42 835 q 117 871 86 871 m 1014 42 q 1125 15 1079 32 l 1125 0 l 783 0 l 783 15 q 889 42 843 35 l 889 497 q 849 617 889 581 q 742 654 808 654 q 625 626 686 654 q 515 544 564 597 l 515 42 q 626 15 571 33 l 626 0 l 279 0 l 279 15 q 390 42 335 33 l 390 644 q 293 669 332 656 l 293 679 l 515 703 l 515 597 q 634 674 564 644 q 785 704 704 704 q 951 651 888 704 q 1014 508 1014 599 l 1014 42 z "},"ň":{"ha":917,"x_min":43,"x_max":889,"o":"m 410 811 q 326 901 381 851 q 228 982 272 951 l 279 1026 q 365 953 321 996 q 436 875 410 911 l 443 875 q 513 953 469 911 q 599 1026 557 996 l 651 982 q 553 903 607 953 q 469 811 499 853 l 410 811 m 778 42 q 889 15 843 32 l 889 0 l 547 0 l 547 15 q 653 42 607 35 l 653 497 q 613 617 653 581 q 506 654 572 654 q 389 626 450 654 q 279 544 328 597 l 279 42 q 390 15 335 33 l 390 0 l 43 0 l 43 15 q 154 42 99 33 l 154 644 q 57 669 96 656 l 57 679 l 279 703 l 279 597 q 398 674 328 644 q 549 704 468 704 q 715 651 651 704 q 778 508 778 599 l 778 42 z "},"ņ":{"ha":917,"x_min":43,"x_max":889,"o":"m 778 42 q 889 15 843 32 l 889 0 l 547 0 l 547 15 q 653 42 607 35 l 653 497 q 613 617 653 581 q 506 654 572 654 q 389 626 450 654 q 279 544 328 597 l 279 42 q 390 15 335 33 l 390 0 l 43 0 l 43 15 q 154 42 99 33 l 154 644 q 57 669 96 656 l 57 679 l 279 703 l 279 597 q 398 674 328 644 q 549 704 468 704 q 715 651 651 704 q 778 508 778 599 l 778 42 m 436 -96 q 499 -121 479 -96 q 519 -187 519 -146 q 491 -312 519 -246 q 419 -419 463 -379 l 375 -385 q 420 -313 401 -354 q 443 -231 439 -272 q 429 -232 439 -232 q 381 -213 400 -232 q 361 -164 361 -194 q 383 -114 361 -132 q 436 -96 406 -96 z "},"ṅ":{"ha":917,"x_min":43,"x_max":889,"o":"m 447 810 q 401 827 418 810 q 385 872 385 844 q 401 919 385 901 q 447 938 418 938 q 492 919 475 938 q 508 872 508 901 q 491 827 508 844 q 447 810 474 810 m 778 42 q 889 15 843 32 l 889 0 l 547 0 l 547 15 q 653 42 607 35 l 653 497 q 613 617 653 581 q 506 654 572 654 q 389 626 450 654 q 279 544 328 597 l 279 42 q 390 15 335 33 l 390 0 l 43 0 l 43 15 q 154 42 99 33 l 154 644 q 57 669 96 656 l 57 679 l 279 703 l 279 597 q 398 674 328 644 q 549 704 468 704 q 715 651 651 704 q 778 508 778 599 l 778 42 z "},"ṇ":{"ha":917,"x_min":43,"x_max":889,"o":"m 778 42 q 889 15 843 32 l 889 0 l 547 0 l 547 15 q 653 42 607 35 l 653 497 q 613 617 653 581 q 506 654 572 654 q 389 626 450 654 q 279 544 328 597 l 279 42 q 390 15 335 33 l 390 0 l 43 0 l 43 15 q 154 42 99 33 l 154 644 q 57 669 96 656 l 57 679 l 279 703 l 279 597 q 398 674 328 644 q 549 704 468 704 q 715 651 651 704 q 778 508 778 599 l 778 42 m 440 -82 q 485 -100 468 -82 q 503 -147 503 -118 q 485 -192 503 -175 q 440 -210 468 -210 q 395 -192 413 -210 q 378 -147 378 -175 q 395 -100 378 -118 q 440 -82 413 -82 z "},"ŋ":{"ha":899,"x_min":43,"x_max":778,"o":"m 586 -286 q 444 -260 503 -286 l 454 -215 q 542 -233 494 -233 q 624 -201 596 -233 q 653 -108 653 -169 l 653 497 q 613 617 653 581 q 506 654 572 654 q 387 626 450 654 q 279 549 324 597 l 279 42 q 390 15 335 33 l 390 0 l 43 0 l 43 15 q 154 42 99 33 l 154 644 q 57 669 96 656 l 57 679 l 279 703 l 279 600 q 399 674 328 644 q 549 704 469 704 q 715 651 651 704 q 778 508 778 599 l 778 -104 q 726 -242 778 -197 q 586 -286 674 -286 z "},"ṉ":{"ha":917,"x_min":43,"x_max":889,"o":"m 778 42 q 889 15 843 32 l 889 0 l 547 0 l 547 15 q 653 42 607 35 l 653 497 q 613 617 653 581 q 506 654 572 654 q 389 626 450 654 q 279 544 328 597 l 279 42 q 390 15 335 33 l 390 0 l 43 0 l 43 15 q 154 42 99 33 l 154 644 q 57 669 96 656 l 57 679 l 279 703 l 279 597 q 398 674 328 644 q 549 704 468 704 q 715 651 651 704 q 778 508 778 599 l 778 42 m 201 -96 l 664 -96 l 664 -144 l 201 -144 l 201 -96 z "},"ñ":{"ha":917,"x_min":43,"x_max":889,"o":"m 336 890 q 281 869 304 890 q 249 811 257 847 l 203 811 q 248 916 213 882 q 339 950 283 950 q 395 939 368 950 q 458 907 422 928 q 504 882 485 890 q 542 874 524 874 q 598 894 574 874 q 632 957 622 914 l 676 957 q 633 851 667 889 q 539 813 599 813 q 492 822 515 813 q 426 854 469 832 q 375 881 396 872 q 336 890 354 890 m 778 42 q 889 15 843 32 l 889 0 l 547 0 l 547 15 q 653 42 607 35 l 653 497 q 613 617 653 581 q 506 654 572 654 q 389 626 450 654 q 279 544 328 597 l 279 42 q 390 15 335 33 l 390 0 l 43 0 l 43 15 q 154 42 99 33 l 154 644 q 57 669 96 656 l 57 679 l 279 703 l 279 597 q 398 674 328 644 q 549 704 468 704 q 715 651 651 704 q 778 508 778 599 l 778 42 z "},"o":{"ha":806,"x_min":36,"x_max":768,"o":"m 403 -14 q 133 81 229 -14 q 36 344 36 175 q 133 609 36 514 q 403 704 229 704 q 672 609 575 704 q 768 344 768 514 q 672 81 768 175 q 403 -14 575 -14 m 403 35 q 578 117 513 35 q 643 344 643 200 q 578 572 643 489 q 403 654 513 654 q 226 572 290 654 q 161 344 161 489 q 226 117 161 200 q 403 35 290 35 z "},"ó":{"ha":806,"x_min":36,"x_max":768,"o":"m 274 843 l 432 990 q 494 1022 464 1022 q 526 1011 515 1022 q 538 985 538 1000 q 493 925 538 953 l 296 811 l 274 843 m 403 -14 q 133 81 229 -14 q 36 344 36 175 q 133 609 36 514 q 403 704 229 704 q 672 609 575 704 q 768 344 768 514 q 672 81 768 175 q 403 -14 575 -14 m 403 35 q 578 117 513 35 q 643 344 643 200 q 578 572 643 489 q 403 654 513 654 q 226 572 290 654 q 161 344 161 489 q 226 117 161 200 q 403 35 290 35 z "},"ŏ":{"ha":806,"x_min":36,"x_max":768,"o":"m 403 799 q 254 842 311 799 q 186 971 197 885 l 264 971 q 310 875 271 900 q 403 850 349 850 q 495 875 457 850 q 540 971 533 900 l 618 971 q 551 842 608 885 q 403 799 493 799 m 403 -14 q 133 81 229 -14 q 36 344 36 175 q 133 609 36 514 q 403 704 229 704 q 672 609 575 704 q 768 344 768 514 q 672 81 768 175 q 403 -14 575 -14 m 403 35 q 578 117 513 35 q 643 344 643 200 q 578 572 643 489 q 403 654 513 654 q 226 572 290 654 q 161 344 161 489 q 226 117 161 200 q 403 35 290 35 z "},"ǒ":{"ha":806,"x_min":36,"x_max":768,"o":"m 243 1026 q 329 952 285 994 q 399 875 374 910 l 406 875 q 476 953 432 911 q 561 1026 519 996 l 614 982 q 515 901 569 951 q 432 811 461 851 l 372 811 q 289 901 343 851 q 190 982 235 951 l 243 1026 m 36 344 q 133 609 36 514 q 403 704 229 704 q 672 609 575 704 q 768 344 768 514 q 672 81 768 175 q 403 -14 575 -14 q 133 81 229 -14 q 36 344 36 175 m 161 344 q 226 117 161 200 q 403 35 290 35 q 578 117 513 35 q 643 344 643 200 q 578 572 643 489 q 403 654 513 654 q 226 572 290 654 q 161 344 161 489 z "},"ô":{"ha":806,"x_min":36,"x_max":768,"o":"m 190 847 q 289 927 235 878 q 372 1017 343 976 l 432 1017 q 515 926 461 976 q 614 847 569 876 l 561 803 q 476 876 519 833 q 406 954 432 918 l 399 954 q 328 876 372 918 q 242 803 283 833 l 190 847 m 403 -14 q 133 81 229 -14 q 36 344 36 175 q 133 609 36 514 q 403 704 229 704 q 672 609 575 704 q 768 344 768 514 q 672 81 768 175 q 403 -14 575 -14 m 403 35 q 578 117 513 35 q 643 344 643 200 q 578 572 643 489 q 403 654 513 654 q 226 572 290 654 q 161 344 161 489 q 226 117 161 200 q 403 35 290 35 z "},"ố":{"ha":806,"x_min":36,"x_max":775,"o":"m 546 999 l 658 1108 q 740 1154 703 1154 q 765 1145 756 1154 q 775 1122 775 1136 q 760 1085 775 1104 q 713 1049 744 1065 l 567 969 l 546 999 m 190 847 q 288 926 233 876 q 372 1017 342 976 l 431 1017 q 515 927 460 976 q 613 847 569 878 l 561 803 q 476 876 519 833 q 404 954 432 918 l 399 954 q 328 876 372 918 q 243 803 283 833 l 190 847 m 403 -14 q 133 81 229 -14 q 36 344 36 175 q 133 609 36 514 q 403 704 229 704 q 672 609 575 704 q 768 344 768 514 q 672 81 768 175 q 403 -14 575 -14 m 403 35 q 578 117 513 35 q 643 344 643 200 q 578 572 643 489 q 403 654 513 654 q 226 572 290 654 q 161 344 161 489 q 226 117 161 200 q 403 35 290 35 z "},"ộ":{"ha":806,"x_min":36,"x_max":768,"o":"m 190 847 q 289 927 235 878 q 372 1017 343 976 l 432 1017 q 515 926 461 976 q 614 847 569 876 l 561 803 q 476 876 519 833 q 406 954 432 918 l 399 954 q 328 876 372 918 q 242 803 283 833 l 190 847 m 36 344 q 133 609 36 514 q 403 704 229 704 q 672 609 575 704 q 768 344 768 514 q 672 81 768 175 q 403 -14 575 -14 q 133 81 229 -14 q 36 344 36 175 m 161 344 q 226 117 161 200 q 403 35 290 35 q 578 117 513 35 q 643 344 643 200 q 578 572 643 489 q 403 654 513 654 q 226 572 290 654 q 161 344 161 489 m 339 -147 q 356 -100 339 -118 q 401 -82 374 -82 q 447 -100 429 -82 q 464 -147 464 -118 q 447 -192 464 -175 q 401 -210 429 -210 q 356 -192 374 -210 q 339 -147 339 -175 z "},"ồ":{"ha":806,"x_min":36,"x_max":768,"o":"m 115 1040 q 59 1082 79 1060 q 39 1122 39 1104 q 49 1145 39 1136 q 74 1154 58 1154 q 168 1097 111 1154 l 268 999 l 246 969 l 115 1040 m 190 847 q 288 926 233 876 q 372 1017 342 976 l 431 1017 q 515 927 460 976 q 613 847 569 878 l 561 803 q 476 876 519 833 q 404 954 432 918 l 399 954 q 328 876 372 918 q 243 803 283 833 l 190 847 m 403 -14 q 133 81 229 -14 q 36 344 36 175 q 133 609 36 514 q 403 704 229 704 q 672 609 575 704 q 768 344 768 514 q 672 81 768 175 q 403 -14 575 -14 m 403 35 q 578 117 513 35 q 643 344 643 200 q 578 572 643 489 q 403 654 513 654 q 226 572 290 654 q 161 344 161 489 q 226 117 161 200 q 403 35 290 35 z "},"ổ":{"ha":806,"x_min":36,"x_max":768,"o":"m 539 1061 l 568 1061 q 624 1076 604 1061 q 643 1119 643 1092 q 626 1157 643 1143 q 574 1171 608 1171 q 504 1153 539 1171 l 496 1190 q 588 1210 540 1210 q 672 1187 638 1210 q 707 1118 707 1164 q 606 1031 707 1039 l 593 957 l 544 957 l 539 1061 m 190 847 q 288 926 233 876 q 372 1017 342 976 l 431 1017 q 515 927 460 976 q 613 847 569 878 l 561 803 q 476 876 519 833 q 404 954 432 918 l 399 954 q 328 876 372 918 q 243 803 283 833 l 190 847 m 403 -14 q 133 81 229 -14 q 36 344 36 175 q 133 609 36 514 q 403 704 229 704 q 672 609 575 704 q 768 344 768 514 q 672 81 768 175 q 403 -14 575 -14 m 403 35 q 578 117 513 35 q 643 344 643 200 q 578 572 643 489 q 403 654 513 654 q 226 572 290 654 q 161 344 161 489 q 226 117 161 200 q 403 35 290 35 z "},"ỗ":{"ha":806,"x_min":36,"x_max":768,"o":"m 178 1057 q 221 1162 188 1128 q 307 1196 254 1196 q 360 1185 335 1196 q 419 1153 386 1174 q 465 1128 446 1136 q 500 1119 483 1119 q 553 1140 531 1119 q 586 1203 576 1160 l 628 1203 q 587 1097 619 1135 q 497 1058 554 1058 q 456 1067 476 1058 q 415 1087 435 1076 q 390 1100 396 1097 q 340 1127 360 1118 q 304 1136 321 1136 q 251 1115 274 1136 q 221 1057 229 1093 l 178 1057 m 190 847 q 288 926 233 876 q 372 1017 342 976 l 431 1017 q 515 927 460 976 q 613 847 569 878 l 561 803 q 476 876 519 833 q 404 954 432 918 l 399 954 q 328 876 372 918 q 243 803 283 833 l 190 847 m 403 -14 q 133 81 229 -14 q 36 344 36 175 q 133 609 36 514 q 403 704 229 704 q 672 609 575 704 q 768 344 768 514 q 672 81 768 175 q 403 -14 575 -14 m 403 35 q 578 117 513 35 q 643 344 643 200 q 578 572 643 489 q 403 654 513 654 q 226 572 290 654 q 161 344 161 489 q 226 117 161 200 q 403 35 290 35 z "},"ö":{"ha":806,"x_min":36,"x_max":768,"o":"m 249 810 q 205 827 222 810 q 188 872 188 844 q 204 919 188 901 q 249 938 221 938 q 294 919 276 938 q 311 872 311 901 q 294 827 311 844 q 249 810 276 810 m 554 810 q 510 827 526 810 q 493 872 493 844 q 510 919 493 901 q 554 938 526 938 q 599 919 582 938 q 617 872 617 901 q 599 827 617 844 q 554 810 582 810 m 403 -14 q 133 81 229 -14 q 36 344 36 175 q 133 609 36 514 q 403 704 229 704 q 672 609 575 704 q 768 344 768 514 q 672 81 768 175 q 403 -14 575 -14 m 403 35 q 578 117 513 35 q 643 344 643 200 q 578 572 643 489 q 403 654 513 654 q 226 572 290 654 q 161 344 161 489 q 226 117 161 200 q 403 35 290 35 z "},"ọ":{"ha":806,"x_min":36,"x_max":768,"o":"m 36 344 q 133 609 36 514 q 403 704 229 704 q 672 609 575 704 q 768 344 768 514 q 672 81 768 175 q 403 -14 575 -14 q 133 81 229 -14 q 36 344 36 175 m 161 344 q 226 117 161 200 q 403 35 290 35 q 578 117 513 35 q 643 344 643 200 q 578 572 643 489 q 403 654 513 654 q 226 572 290 654 q 161 344 161 489 m 339 -147 q 356 -100 339 -118 q 401 -82 374 -82 q 447 -100 429 -82 q 464 -147 464 -118 q 447 -192 464 -175 q 401 -210 429 -210 q 356 -192 374 -210 q 339 -147 339 -175 z "},"ò":{"ha":806,"x_min":36,"x_max":768,"o":"m 310 925 q 263 985 263 953 q 274 1011 263 1000 q 307 1022 286 1022 q 368 992 338 1022 l 529 843 l 507 811 l 310 925 m 403 -14 q 133 81 229 -14 q 36 344 36 175 q 133 609 36 514 q 403 704 229 704 q 672 609 575 704 q 768 344 768 514 q 672 81 768 175 q 403 -14 575 -14 m 403 35 q 578 117 513 35 q 643 344 643 200 q 578 572 643 489 q 403 654 513 654 q 226 572 290 654 q 161 344 161 489 q 226 117 161 200 q 403 35 290 35 z "},"ỏ":{"ha":806,"x_min":36,"x_max":768,"o":"m 365 932 l 399 932 q 463 951 440 932 q 486 1004 486 971 q 465 1050 486 1032 q 404 1068 443 1068 q 324 1046 364 1068 l 314 1088 q 421 1111 361 1111 q 517 1083 478 1111 q 557 1001 557 1056 q 526 928 557 954 q 440 896 496 901 l 426 807 l 372 807 l 365 932 m 403 -14 q 133 81 229 -14 q 36 344 36 175 q 133 609 36 514 q 403 704 229 704 q 672 609 575 704 q 768 344 768 514 q 672 81 768 175 q 403 -14 575 -14 m 403 35 q 578 117 513 35 q 643 344 643 200 q 578 572 643 489 q 403 654 513 654 q 226 572 290 654 q 161 344 161 489 q 226 117 161 200 q 403 35 290 35 z "},"ơ":{"ha":871,"x_min":36,"x_max":885,"o":"m 885 650 q 853 549 885 603 q 758 446 822 494 q 768 344 768 393 q 672 81 768 175 q 403 -14 575 -14 q 133 81 229 -14 q 36 344 36 175 q 133 609 36 514 q 403 704 229 704 q 619 650 532 704 q 743 496 707 596 q 791 553 771 522 q 815 618 811 585 q 789 611 806 611 q 742 629 760 611 q 725 678 725 647 q 743 727 725 707 q 800 747 761 747 q 885 650 885 747 m 403 35 q 578 117 513 35 q 643 344 643 200 q 578 572 643 489 q 403 654 513 654 q 226 572 290 654 q 161 344 161 489 q 226 117 161 200 q 403 35 290 35 z "},"ớ":{"ha":871,"x_min":36,"x_max":885,"o":"m 297 811 l 275 843 l 433 990 q 496 1022 465 1022 q 528 1011 517 1022 q 539 985 539 1000 q 494 925 539 953 l 297 811 m 885 650 q 853 549 885 603 q 758 446 822 494 q 768 344 768 393 q 672 81 768 175 q 403 -14 575 -14 q 133 81 229 -14 q 36 344 36 175 q 133 609 36 514 q 403 704 229 704 q 619 650 532 704 q 743 496 707 596 q 791 553 771 522 q 815 618 811 585 q 789 611 806 611 q 742 629 760 611 q 725 678 725 647 q 743 727 725 707 q 800 747 761 747 q 885 650 885 747 m 403 35 q 578 117 513 35 q 643 344 643 200 q 578 572 643 489 q 403 654 513 654 q 226 572 290 654 q 161 344 161 489 q 226 117 161 200 q 403 35 290 35 z "},"ợ":{"ha":871,"x_min":36,"x_max":885,"o":"m 885 650 q 853 549 885 603 q 758 446 822 494 q 768 344 768 393 q 672 81 768 175 q 403 -14 575 -14 q 133 81 229 -14 q 36 344 36 175 q 133 609 36 514 q 403 704 229 704 q 619 650 532 704 q 743 496 707 596 q 791 553 771 522 q 815 618 811 585 q 789 611 806 611 q 742 629 760 611 q 725 678 725 647 q 743 727 725 707 q 800 747 761 747 q 885 650 885 747 m 403 35 q 578 117 513 35 q 643 344 643 200 q 578 572 643 489 q 403 654 513 654 q 226 572 290 654 q 161 344 161 489 q 226 117 161 200 q 403 35 290 35 m 401 -82 q 447 -100 429 -82 q 464 -147 464 -118 q 447 -192 464 -175 q 401 -210 429 -210 q 356 -192 374 -210 q 339 -147 339 -175 q 356 -100 339 -118 q 401 -82 374 -82 z "},"ờ":{"ha":871,"x_min":36,"x_max":885,"o":"m 311 925 q 264 985 264 953 q 276 1011 264 1000 q 308 1022 288 1022 q 369 992 339 1022 l 531 843 l 508 811 l 311 925 m 885 650 q 853 549 885 603 q 758 446 822 494 q 768 344 768 393 q 672 81 768 175 q 403 -14 575 -14 q 133 81 229 -14 q 36 344 36 175 q 133 609 36 514 q 403 704 229 704 q 619 650 532 704 q 743 496 707 596 q 791 553 771 522 q 815 618 811 585 q 789 611 806 611 q 742 629 760 611 q 725 678 725 647 q 743 727 725 707 q 800 747 761 747 q 885 650 885 747 m 403 35 q 578 117 513 35 q 643 344 643 200 q 578 572 643 489 q 403 654 513 654 q 226 572 290 654 q 161 344 161 489 q 226 117 161 200 q 403 35 290 35 z "},"ở":{"ha":871,"x_min":36,"x_max":885,"o":"m 407 1068 q 326 1046 367 1068 l 317 1088 q 424 1111 364 1111 q 520 1083 481 1111 q 560 1001 560 1056 q 529 928 560 954 q 443 896 499 901 l 429 807 l 375 807 l 368 932 l 401 932 q 466 951 443 932 q 489 1004 489 971 q 467 1050 489 1032 q 407 1068 446 1068 m 885 650 q 853 549 885 603 q 758 446 822 494 q 768 344 768 393 q 672 81 768 175 q 403 -14 575 -14 q 133 81 229 -14 q 36 344 36 175 q 133 609 36 514 q 403 704 229 704 q 619 650 532 704 q 743 496 707 596 q 791 553 771 522 q 815 618 811 585 q 789 611 806 611 q 742 629 760 611 q 725 678 725 647 q 743 727 725 707 q 800 747 761 747 q 885 650 885 747 m 403 35 q 578 117 513 35 q 643 344 643 200 q 578 572 643 489 q 403 654 513 654 q 226 572 290 654 q 161 344 161 489 q 226 117 161 200 q 403 35 290 35 z "},"ỡ":{"ha":871,"x_min":36,"x_max":885,"o":"m 299 890 q 243 869 267 890 q 211 811 219 847 l 165 811 q 210 916 175 882 q 301 950 246 950 q 358 939 331 950 q 421 907 385 928 q 467 882 447 890 q 504 874 486 874 q 560 894 536 874 q 594 957 585 914 l 639 957 q 595 851 629 889 q 501 813 561 813 q 455 822 478 813 q 389 854 432 832 q 338 881 358 872 q 299 890 317 890 m 885 650 q 853 549 885 603 q 758 446 822 494 q 768 344 768 393 q 672 81 768 175 q 403 -14 575 -14 q 133 81 229 -14 q 36 344 36 175 q 133 609 36 514 q 403 704 229 704 q 619 650 532 704 q 743 496 707 596 q 791 553 771 522 q 815 618 811 585 q 789 611 806 611 q 742 629 760 611 q 725 678 725 647 q 743 727 725 707 q 800 747 761 747 q 885 650 885 747 m 403 35 q 578 117 513 35 q 643 344 643 200 q 578 572 643 489 q 403 654 513 654 q 226 572 290 654 q 161 344 161 489 q 226 117 161 200 q 403 35 290 35 z "},"ő":{"ha":806,"x_min":36,"x_max":768,"o":"m 199 842 l 357 989 q 419 1022 390 1022 q 452 1010 440 1022 q 464 983 464 999 q 418 925 464 951 l 221 810 l 199 842 m 474 842 l 632 989 q 658 1011 642 1000 q 694 1022 675 1022 q 727 1010 715 1022 q 739 983 739 999 q 693 925 739 951 l 496 810 l 474 842 m 403 -14 q 133 81 229 -14 q 36 344 36 175 q 133 609 36 514 q 403 704 229 704 q 672 609 575 704 q 768 344 768 514 q 672 81 768 175 q 403 -14 575 -14 m 403 35 q 578 117 513 35 q 643 344 643 200 q 578 572 643 489 q 403 654 513 654 q 226 572 290 654 q 161 344 161 489 q 226 117 161 200 q 403 35 290 35 z "},"ō":{"ha":806,"x_min":36,"x_max":768,"o":"m 169 860 l 632 860 l 632 811 l 169 811 l 169 860 m 403 -14 q 133 81 229 -14 q 36 344 36 175 q 133 609 36 514 q 403 704 229 704 q 672 609 575 704 q 768 344 768 514 q 672 81 768 175 q 403 -14 575 -14 m 403 35 q 578 117 513 35 q 643 344 643 200 q 578 572 643 489 q 403 654 513 654 q 226 572 290 654 q 161 344 161 489 q 226 117 161 200 q 403 35 290 35 z "},"ø":{"ha":806,"x_min":36,"x_max":768,"o":"m 649 629 q 738 511 707 583 q 768 344 768 439 q 672 81 768 175 q 403 -14 575 -14 q 200 32 283 -14 l 142 -46 l 99 -14 l 154 61 q 67 179 97 107 q 36 344 36 251 q 133 609 36 514 q 403 704 229 704 q 601 660 519 704 l 653 729 l 699 696 l 649 629 m 161 344 q 211 138 161 218 l 554 597 q 403 654 494 654 q 226 572 290 654 q 161 344 161 489 m 403 35 q 578 117 513 35 q 643 344 643 200 q 592 553 643 471 l 247 94 q 403 35 310 35 z "},"ǿ":{"ha":806,"x_min":36,"x_max":768,"o":"m 294 811 l 272 843 l 431 990 q 493 1022 463 1022 q 525 1011 514 1022 q 536 985 536 1000 q 492 925 536 953 l 294 811 m 649 629 q 738 511 707 583 q 768 344 768 439 q 672 81 768 175 q 403 -14 575 -14 q 200 32 283 -14 l 142 -46 l 99 -14 l 154 61 q 67 179 97 107 q 36 344 36 251 q 133 609 36 514 q 403 704 229 704 q 601 660 519 704 l 653 729 l 699 696 l 649 629 m 161 344 q 211 138 161 218 l 554 597 q 403 654 494 654 q 226 572 290 654 q 161 344 161 489 m 403 35 q 578 117 513 35 q 643 344 643 200 q 592 553 643 471 l 247 94 q 403 35 310 35 z "},"õ":{"ha":806,"x_min":36,"x_max":768,"o":"m 164 811 q 209 916 174 882 q 300 950 244 950 q 356 939 329 950 q 419 907 383 928 q 465 882 446 890 q 503 874 485 874 q 559 894 535 874 q 593 957 583 914 l 638 957 q 594 851 628 889 q 500 813 560 813 q 453 822 476 813 q 388 854 431 832 q 336 881 357 872 q 297 890 315 890 q 242 869 265 890 q 210 811 218 847 l 164 811 m 403 -14 q 133 81 229 -14 q 36 344 36 175 q 133 609 36 514 q 403 704 229 704 q 672 609 575 704 q 768 344 768 514 q 672 81 768 175 q 403 -14 575 -14 m 403 35 q 578 117 513 35 q 643 344 643 200 q 578 572 643 489 q 403 654 513 654 q 226 572 290 654 q 161 344 161 489 q 226 117 161 200 q 403 35 290 35 z "}}}
